<?xml version="1.0" encoding="UTF-8"?>
<svg id="Komponente_13_1" xmlns="http://www.w3.org/2000/svg" version="1.1" viewBox="0 0 34.1 33">
  <!-- Generator: Adobe Illustrator 29.4.0, SVG Export Plug-In . SVG Version: 2.1.0 Build 152)  -->
  <defs>
    <style>
      .st0 {
        isolation: isolate;
      }

      .st1 {
        fill: none;
        stroke: #94a69e;
        stroke-linecap: round;
        stroke-width: 1.5px;
      }

      .st2 {
        fill: #94a69e;
      }
    </style>
  </defs>
  <path id="Icon_akar-plus" class="st1" d="M27.7,18.4v-4.7M27.7,13.7v-4.7M27.7,13.7h4.7M27.7,13.7h-4.7"/>
  <path id="Icon_akar-plus-2" class="st1" d="M27.7,22.7h4.7M27.7,22.7h-4.7"/>
  <g id="Gruppe_58">
    <g id="T" class="st0">
      <g class="st0">
        <path class="st2" d="M1.8,14.1l1.6-6h16.8l-.5,6h-1.2c0-.5,0-1.1,0-1.7s0-.9,0-1.2c0-.3-.2-.6-.4-1-.2-.3-.5-.6-1-.8-.5-.2-1.1-.3-1.8-.3h-1.9l-2.4,14.5h3.8l-.2,1.2c-.9,0-2.8,0-5.6,0s-4.7,0-5.6,0l.2-1.2h3.8l2.4-14.5h-1.9c-.6,0-1.1,0-1.5.1-.4,0-.8.3-1.2.5-.3.2-.6.5-.8.7-.2.2-.4.6-.6,1-.2.5-.3.8-.4,1.1s-.2.8-.4,1.4h-1.2Z"/>
      </g>
    </g>
  </g>
</svg>