<?xml version="1.0" encoding="UTF-8"?>
<svg id="Ebene_1" xmlns="http://www.w3.org/2000/svg" xmlns:xlink="http://www.w3.org/1999/xlink" version="1.1" viewBox="0 0 1668 2388">
  <!-- Generator: Adobe Illustrator 29.5.0, SVG Export Plug-In . SVG Version: 2.1.0 Build 137)  -->
  <defs>
    <style>
      .st0 {
        fill: none;
      }

      .st1 {
        fill: #94a69e;
        opacity: 1;
      }

      .st1, .st2 {
        isolation: isolate;
      }

      .st3 {
        clip-path: url(#clippath-1);
      }

      .st4 {
        clip-path: url(#clippath-3);
      }

      .st5 {
        clip-path: url(#clippath-4);
      }

      .st6 {
        clip-path: url(#clippath-2);
      }

      .st7 {
        clip-path: url(#clippath-5);
      }

      .st8 {
        fill: #fff;
      }

      .st9 {
        fill: #3f4756;
      }

      .st10 {
        clip-path: url(#clippath);
      }
    </style>
    <clipPath id="clippath">
      <rect class="st0" x="810.1" y="1712.9" width="49.8" height="56.5"/>
    </clipPath>
    <clipPath id="clippath-1">
      <rect class="st0" x="922.6" y="826.1" width="76.5" height="59.3"/>
    </clipPath>
    <clipPath id="clippath-2">
      <rect class="st0" x="1400.6" y="745.8" width="39.1" height="59.6"/>
    </clipPath>
    <clipPath id="clippath-3">
      <rect class="st0" x="206.6" y="745.8" width="69.3" height="75.5"/>
    </clipPath>
    <clipPath id="clippath-4">
      <rect class="st0" x="391" y="691.8" width="909.3" height="1071.4" transform="translate(-389.2 2062.5) rotate(-89.5)"/>
    </clipPath>
    <clipPath id="clippath-5">
      <rect class="st0" x="391" y="691.8" width="909.3" height="1071.4" transform="translate(-389.2 2062.5) rotate(-89.5)"/>
    </clipPath>
  </defs>
  <g id="Pfad_226">
    <rect class="st8" x="846.7" y="963.3" width="39.6" height="1.4" transform="translate(-181.8 1726.2) rotate(-84.1)"/>
  </g>
  <g id="Pfad_227">
    <rect class="st8" x="838.7" y="1015.6" width="44.8" height="1.4" transform="translate(-238.8 1767.7) rotate(-84.1)"/>
  </g>
  <g id="Pfad_225">
    <polygon class="st8" points="870.1 936.9 868.7 936.7 873.9 886.5 907.8 875.5 908.2 876.8 875.2 887.5 870.1 936.9"/>
  </g>
  <path id="Rechteck_76-2" class="st1" d="M1668,2242.9H370.4c-91.3,0-165.3-74-165.3-165.3h0c0-91.3,74-165.3,165.3-165.3h1297.6"/>
  <g id="Use_the_buttons_on_the_right_to_switch_the_constants_on_and_off_activating_a_different_physical_theory_each_time." class="st2">
    <g class="st2">
      <path class="st8" d="M583,1998.5v16.4c0,7.6-4.7,11.3-11,11.3s-11-3.7-11-11.3v-16.4h4.5v16.1c0,5.3,2.8,7.4,6.5,7.4s6.5-2.1,6.5-7.4v-16.1h4.5Z"/>
      <path class="st8" d="M587.5,2018.9h4.5c.7,2.4,2.4,3.5,6.1,3.5s4.6-.9,4.6-2.5-2-2.1-5.6-2.9c-6-1.5-8.5-2.7-8.5-6.3s3.7-6.8,9-6.8,8.6,2.6,9.3,6.5h-4.4c-.6-1.8-2.3-2.6-5-2.6s-4.5,1-4.5,2.5,1.3,1.7,5.1,2.6c5.8,1.4,9.1,2.4,9.1,6.5s-4.1,6.8-9.2,6.8-9.7-2.7-10.5-7.4Z"/>
      <path class="st8" d="M632.4,2016.3h-17.4c.3,3.9,3.1,6.1,6.7,6.1s4.7-1.1,5.7-3.2h4.6c-1.7,4.8-5.8,7-10.3,7-6.5,0-11.1-4.7-11.1-11.1s4.6-11.2,11-11.2,11.2,5.3,10.8,12.4ZM615.3,2012.7h12.4c-.7-2.9-2.9-5-6.1-5s-5.6,2.1-6.3,5Z"/>
      <path class="st8" d="M664.6,2024.7c-1.2.7-3.7,1.6-6.1,1.6-4.4,0-7.8-2.8-7.8-8.7v-9.1h-4v-4.1h4v-4.9l4.4-1v5.8h8.8v4.1h-8.8v8.8c0,3.1,1.4,4.8,4.2,4.8s2.9-.5,4.6-1l.8,3.6Z"/>
      <path class="st8" d="M688.1,2012.3v13.5h-4.4v-12.6c0-3.3-1.5-5.1-4.7-5.1s-5.8,2.5-5.8,6.6v11.1h-4.4v-29.9h4.4v12.1c1.5-2.5,3.9-4,7.2-4,4.8,0,7.7,3.2,7.7,8.4Z"/>
      <path class="st8" d="M714.2,2016.3h-17.4c.3,3.9,3.1,6.1,6.7,6.1s4.7-1.1,5.7-3.2h4.6c-1.7,4.8-5.8,7-10.3,7-6.5,0-11.1-4.7-11.1-11.1s4.6-11.2,11-11.2,11.2,5.3,10.8,12.4ZM697,2012.7h12.4c-.7-2.9-2.9-5-6.1-5s-5.6,2.1-6.3,5Z"/>
      <path class="st8" d="M751.9,2015.1c0,6.5-4.2,11.2-9.9,11.2s-5.9-1.6-7.5-4v3.6h-4.4v-29.9h4.4v12.2c1.6-2.5,4.1-4.1,7.5-4.1,5.6,0,9.8,4.6,9.8,11.2ZM747.4,2015.1c0-4.1-2.6-7-6.4-7s-6.6,2.9-6.6,7,2.8,7,6.6,7,6.4-2.8,6.4-7Z"/>
      <path class="st8" d="M775.2,2004.4v21.4h-4.4v-3.5c-1.5,2.5-3.8,4-7.1,4-4.7,0-7.6-3.2-7.6-8.4v-13.5h4.4v12.6c0,3.3,1.4,5.1,4.6,5.1s5.7-2.5,5.7-6.6v-11.1h4.4Z"/>
      <path class="st8" d="M796.5,2024.7c-1.2.7-3.7,1.6-6.1,1.6-4.4,0-7.8-2.8-7.8-8.7v-9.1h-4v-4.1h4v-4.9l4.4-1v5.8h8.8v4.1h-8.8v8.8c0,3.1,1.4,4.8,4.2,4.8s2.9-.5,4.6-1l.8,3.6Z"/>
      <path class="st8" d="M816.3,2024.7c-1.2.7-3.7,1.6-6.1,1.6-4.4,0-7.8-2.8-7.8-8.7v-9.1h-4v-4.1h4v-4.9l4.4-1v5.8h8.8v4.1h-8.8v8.8c0,3.1,1.4,4.8,4.2,4.8s2.9-.5,4.6-1l.8,3.6Z"/>
      <path class="st8" d="M840.8,2015.1c0,6.4-4.9,11.2-11.1,11.2s-11.1-4.8-11.1-11.2,5-11.2,11.1-11.2,11.1,4.7,11.1,11.2ZM823,2015.1c0,4.1,2.9,7,6.7,7s6.7-2.8,6.7-7-3-7-6.7-7-6.7,2.8-6.7,7Z"/>
      <path class="st8" d="M864.4,2012.3v13.5h-4.4v-12.6c0-3.3-1.4-5.1-4.7-5.1s-5.8,2.5-5.8,6.6v11.1h-4.4v-21.4h4.4v3.5c1.5-2.5,3.8-4,7.2-4,4.8,0,7.7,3.2,7.7,8.4Z"/>
      <path class="st8" d="M868.3,2018.9h4.5c.7,2.4,2.4,3.5,6.1,3.5s4.6-.9,4.6-2.5-2-2.1-5.6-2.9c-6-1.5-8.5-2.7-8.5-6.3s3.7-6.8,9-6.8,8.6,2.6,9.3,6.5h-4.4c-.6-1.8-2.3-2.6-5-2.6s-4.5,1-4.5,2.5,1.3,1.7,5.1,2.6c5.8,1.4,9.1,2.4,9.1,6.5s-4.1,6.8-9.2,6.8-9.7-2.7-10.5-7.4Z"/>
      <path class="st8" d="M925.2,2015.1c0,6.4-4.9,11.2-11.1,11.2s-11.1-4.8-11.1-11.2,5-11.2,11.1-11.2,11.1,4.7,11.1,11.2ZM907.5,2015.1c0,4.1,2.9,7,6.7,7s6.7-2.8,6.7-7-3-7-6.7-7-6.7,2.8-6.7,7Z"/>
      <path class="st8" d="M948.9,2012.3v13.5h-4.4v-12.6c0-3.3-1.4-5.1-4.7-5.1s-5.8,2.5-5.8,6.6v11.1h-4.4v-21.4h4.4v3.5c1.5-2.5,3.8-4,7.2-4,4.8,0,7.7,3.2,7.7,8.4Z"/>
      <path class="st8" d="M981.7,2024.7c-1.2.7-3.7,1.6-6.1,1.6-4.4,0-7.8-2.8-7.8-8.7v-9.1h-4v-4.1h4v-4.9l4.4-1v5.8h8.8v4.1h-8.8v8.8c0,3.1,1.4,4.8,4.2,4.8s2.9-.5,4.6-1l.8,3.6Z"/>
      <path class="st8" d="M1005.2,2012.3v13.5h-4.4v-12.6c0-3.3-1.5-5.1-4.7-5.1s-5.8,2.5-5.8,6.6v11.1h-4.4v-29.9h4.4v12.1c1.5-2.5,3.9-4,7.2-4,4.8,0,7.7,3.2,7.7,8.4Z"/>
      <path class="st8" d="M1031.3,2016.3h-17.4c.3,3.9,3.1,6.1,6.7,6.1s4.7-1.1,5.7-3.2h4.6c-1.7,4.8-5.8,7-10.3,7-6.5,0-11.1-4.7-11.1-11.1s4.6-11.2,11-11.2,11.2,5.3,10.8,12.4ZM1014.1,2012.7h12.4c-.7-2.9-2.9-5-6.1-5s-5.6,2.1-6.3,5Z"/>
      <path class="st8" d="M1060,2004v4.5c-.4,0-.7,0-1.3,0-4,0-7.1,2.3-7.1,7.5v9.8h-4.4v-21.4h4.4v4.2c1.3-3,3.7-4.7,7.1-4.7s1,0,1.3.1Z"/>
      <path class="st8" d="M1068.6,1997.4c0,1.6-1.2,2.8-2.9,2.8s-2.8-1.2-2.8-2.8,1.2-2.7,2.8-2.7,2.9,1.1,2.9,2.7ZM1063.5,2004.4h4.4v21.4h-4.4v-21.4Z"/>
      <path class="st8" d="M1094,2004.4v21.1c0,6.4-4,10.5-10.3,10.5s-9.7-2.6-10.7-8h4.6c.7,2.8,3.1,4,6,4s6.1-2.2,6.1-6.4v-3.7c-1.6,2.4-4.2,4-7.5,4-5.7,0-9.9-4.6-9.9-11s4.2-11,9.9-11,5.9,1.7,7.5,4.1v-3.7h4.4ZM1089.7,2014.9c0-4-2.8-6.8-6.6-6.8s-6.4,2.9-6.4,6.8,2.7,6.8,6.4,6.8,6.6-2.8,6.6-6.8Z"/>
      <path class="st8" d="M1118.6,2012.3v13.5h-4.4v-12.6c0-3.3-1.5-5.1-4.7-5.1s-5.8,2.5-5.8,6.6v11.1h-4.4v-29.9h4.4v12.1c1.5-2.5,3.9-4,7.2-4,4.8,0,7.7,3.2,7.7,8.4Z"/>
      <path class="st8" d="M1139.8,2024.7c-1.2.7-3.7,1.6-6.1,1.6-4.4,0-7.8-2.8-7.8-8.7v-9.1h-4v-4.1h4v-4.9l4.4-1v5.8h8.8v4.1h-8.8v8.8c0,3.1,1.4,4.8,4.2,4.8s2.9-.5,4.6-1l.8,3.6Z"/>
      <path class="st8" d="M1171.7,2024.7c-1.2.7-3.7,1.6-6.1,1.6-4.4,0-7.8-2.8-7.8-8.7v-9.1h-4v-4.1h4v-4.9l4.4-1v5.8h8.8v4.1h-8.8v8.8c0,3.1,1.4,4.8,4.2,4.8s2.9-.5,4.6-1l.8,3.6Z"/>
      <path class="st8" d="M1196.2,2015.1c0,6.4-4.9,11.2-11.1,11.2s-11.1-4.8-11.1-11.2,5-11.2,11.1-11.2,11.1,4.7,11.1,11.2ZM1178.4,2015.1c0,4.1,2.9,7,6.7,7s6.7-2.8,6.7-7-3-7-6.7-7-6.7,2.8-6.7,7Z"/>
      <path class="st8" d="M1211.2,2018.9h4.5c.7,2.4,2.4,3.5,6.1,3.5s4.6-.9,4.6-2.5-2-2.1-5.6-2.9c-6-1.5-8.5-2.7-8.5-6.3s3.7-6.8,9-6.8,8.6,2.6,9.3,6.5h-4.4c-.6-1.8-2.3-2.6-5-2.6s-4.5,1-4.5,2.5,1.3,1.7,5.1,2.6c5.8,1.4,9.1,2.4,9.1,6.5s-4.1,6.8-9.2,6.8-9.7-2.7-10.5-7.4Z"/>
      <path class="st8" d="M1264.7,2004.4l-6.1,21.4h-5.1l-2.1-7.2-2.1-9.8h-.7l-2.1,9.8-2.1,7.2h-5.1l-6.1-21.4h4.4l1.9,6.7,2.5,10,2.5-10,1.9-6.7h5.3l1.9,6.7,2.5,10,2.5-10,1.9-6.7h4.4Z"/>
      <path class="st8" d="M1273.2,1997.4c0,1.6-1.2,2.8-2.9,2.8s-2.8-1.2-2.8-2.8,1.2-2.7,2.8-2.7,2.9,1.1,2.9,2.7ZM1268.2,2004.4h4.4v21.4h-4.4v-21.4Z"/>
      <path class="st8" d="M1293.9,2024.7c-1.2.7-3.7,1.6-6.1,1.6-4.4,0-7.8-2.8-7.8-8.7v-9.1h-4v-4.1h4v-4.9l4.4-1v5.8h8.8v4.1h-8.8v8.8c0,3.1,1.4,4.8,4.2,4.8s2.9-.5,4.6-1l.8,3.6Z"/>
      <path class="st8" d="M1297.2,2015.1c0-6.4,4.7-11.2,11.1-11.2s9.5,3.1,10.5,8.2h-4.6c-.8-2.7-3.2-4.2-6-4.2-4,0-6.7,3-6.7,7.1s2.8,7.1,6.7,7.1,5.2-1.6,6-4.2h4.6c-1,5.3-5.5,8.3-10.5,8.3s-11.1-4.8-11.1-11.2Z"/>
      <path class="st8" d="M1342.4,2012.3v13.5h-4.4v-12.6c0-3.3-1.5-5.1-4.7-5.1s-5.8,2.5-5.8,6.6v11.1h-4.4v-29.9h4.4v12.1c1.5-2.5,3.9-4,7.2-4,4.8,0,7.7,3.2,7.7,8.4Z"/>
      <path class="st8" d="M1375.2,2024.7c-1.2.7-3.7,1.6-6.1,1.6-4.4,0-7.8-2.8-7.8-8.7v-9.1h-4v-4.1h4v-4.9l4.4-1v5.8h8.8v4.1h-8.8v8.8c0,3.1,1.4,4.8,4.2,4.8s2.9-.5,4.6-1l.8,3.6Z"/>
      <path class="st8" d="M1398.6,2012.3v13.5h-4.4v-12.6c0-3.3-1.5-5.1-4.7-5.1s-5.8,2.5-5.8,6.6v11.1h-4.4v-29.9h4.4v12.1c1.5-2.5,3.9-4,7.2-4,4.8,0,7.7,3.2,7.7,8.4Z"/>
      <path class="st8" d="M1424.7,2016.3h-17.4c.3,3.9,3.1,6.1,6.7,6.1s4.7-1.1,5.7-3.2h4.6c-1.7,4.8-5.8,7-10.3,7-6.5,0-11.1-4.7-11.1-11.1s4.6-11.2,11-11.2,11.2,5.3,10.8,12.4ZM1407.5,2012.7h12.4c-.7-2.9-2.9-5-6.1-5s-5.6,2.1-6.3,5Z"/>
    </g>
    <g class="st2">
      <path class="st8" d="M559.7,2081.7c0-6.4,4.7-11.2,11.1-11.2s9.5,3.1,10.5,8.2h-4.6c-.8-2.7-3.2-4.2-6-4.2-4,0-6.7,3-6.7,7.1s2.8,7.1,6.7,7.1,5.2-1.6,6-4.2h4.6c-1,5.3-5.5,8.3-10.5,8.3s-11.1-4.8-11.1-11.2Z"/>
      <path class="st8" d="M606.8,2081.7c0,6.4-4.9,11.2-11.1,11.2s-11.1-4.8-11.1-11.2,5-11.2,11.1-11.2,11.1,4.7,11.1,11.2ZM589.1,2081.7c0,4.1,2.9,7,6.7,7s6.7-2.8,6.7-7-3-7-6.7-7-6.7,2.8-6.7,7Z"/>
      <path class="st8" d="M630.5,2078.9v13.5h-4.4v-12.6c0-3.3-1.4-5.1-4.7-5.1s-5.8,2.5-5.8,6.6v11.1h-4.4v-21.4h4.4v3.5c1.5-2.5,3.8-4,7.2-4,4.8,0,7.7,3.2,7.7,8.4Z"/>
      <path class="st8" d="M634.3,2085.5h4.5c.7,2.4,2.4,3.5,6.1,3.5s4.6-.9,4.6-2.5-2-2.1-5.6-2.9c-6-1.5-8.5-2.7-8.5-6.3s3.7-6.8,9-6.8,8.6,2.6,9.3,6.5h-4.4c-.6-1.8-2.3-2.6-5-2.6s-4.5,1-4.5,2.5,1.3,1.7,5.1,2.6c5.8,1.4,9.1,2.4,9.1,6.5s-4.1,6.8-9.2,6.8-9.7-2.7-10.5-7.4Z"/>
      <path class="st8" d="M674.4,2091.3c-1.2.7-3.7,1.6-6.1,1.6-4.4,0-7.8-2.8-7.8-8.7v-9.1h-4v-4.1h4v-4.9l4.4-1v5.8h8.8v4.1h-8.8v8.8c0,3.1,1.4,4.8,4.2,4.8s2.9-.5,4.6-1l.8,3.6Z"/>
      <path class="st8" d="M698.4,2071v21.4h-4.4v-3.6c-1.6,2.5-4.1,4-7.5,4-5.7,0-9.9-4.6-9.9-11.2s4.2-11.2,9.8-11.2,6,1.7,7.5,4.1v-3.7h4.4ZM694.1,2081.7c0-4.1-2.8-7-6.6-7s-6.4,2.9-6.4,7,2.7,7,6.4,7,6.6-2.8,6.6-7Z"/>
      <path class="st8" d="M722.8,2078.9v13.5h-4.4v-12.6c0-3.3-1.4-5.1-4.7-5.1s-5.8,2.5-5.8,6.6v11.1h-4.4v-21.4h4.4v3.5c1.5-2.5,3.8-4,7.2-4,4.8,0,7.7,3.2,7.7,8.4Z"/>
      <path class="st8" d="M743.7,2091.3c-1.2.7-3.7,1.6-6.1,1.6-4.4,0-7.8-2.8-7.8-8.7v-9.1h-4v-4.1h4v-4.9l4.4-1v5.8h8.8v4.1h-8.8v8.8c0,3.1,1.4,4.8,4.2,4.8s2.9-.5,4.6-1l.8,3.6Z"/>
      <path class="st8" d="M746.2,2085.5h4.5c.7,2.4,2.4,3.5,6.1,3.5s4.6-.9,4.6-2.5-2-2.1-5.6-2.9c-6-1.5-8.5-2.7-8.5-6.3s3.7-6.8,9-6.8,8.6,2.6,9.3,6.5h-4.4c-.6-1.8-2.3-2.6-5-2.6s-4.5,1-4.5,2.5,1.3,1.7,5.1,2.6c5.8,1.4,9.1,2.4,9.1,6.5s-4.1,6.8-9.2,6.8-9.7-2.7-10.5-7.4Z"/>
      <path class="st8" d="M803.1,2081.7c0,6.4-4.9,11.2-11.1,11.2s-11.1-4.8-11.1-11.2,5-11.2,11.1-11.2,11.1,4.7,11.1,11.2ZM785.3,2081.7c0,4.1,2.9,7,6.7,7s6.7-2.8,6.7-7-3-7-6.7-7-6.7,2.8-6.7,7Z"/>
      <path class="st8" d="M826.7,2078.9v13.5h-4.4v-12.6c0-3.3-1.4-5.1-4.7-5.1s-5.8,2.5-5.8,6.6v11.1h-4.4v-21.4h4.4v3.5c1.5-2.5,3.8-4,7.2-4,4.8,0,7.7,3.2,7.7,8.4Z"/>
      <path class="st8" d="M864.4,2071v21.4h-4.4v-3.6c-1.6,2.5-4.1,4-7.5,4-5.7,0-9.9-4.6-9.9-11.2s4.2-11.2,9.8-11.2,6,1.7,7.5,4.1v-3.7h4.4ZM860,2081.7c0-4.1-2.8-7-6.6-7s-6.4,2.9-6.4,7,2.7,7,6.4,7,6.6-2.8,6.6-7Z"/>
      <path class="st8" d="M888.8,2078.9v13.5h-4.4v-12.6c0-3.3-1.4-5.1-4.7-5.1s-5.8,2.5-5.8,6.6v11.1h-4.4v-21.4h4.4v3.5c1.5-2.5,3.8-4,7.2-4,4.8,0,7.7,3.2,7.7,8.4Z"/>
      <path class="st8" d="M915,2062.5v29.9h-4.4v-3.6c-1.6,2.4-4.2,4-7.5,4-5.7,0-9.9-4.6-9.9-11.2s4.2-11.2,9.8-11.2,6,1.7,7.5,4.1v-12.2h4.4ZM910.6,2081.7c0-4.1-2.8-7-6.6-7s-6.4,2.9-6.4,7,2.7,7,6.4,7,6.6-2.8,6.6-7Z"/>
      <path class="st8" d="M953.3,2081.7c0,6.4-4.9,11.2-11.1,11.2s-11.1-4.8-11.1-11.2,5-11.2,11.1-11.2,11.1,4.7,11.1,11.2ZM935.5,2081.7c0,4.1,2.9,7,6.7,7s6.7-2.8,6.7-7-3-7-6.7-7-6.7,2.8-6.7,7Z"/>
      <path class="st8" d="M964.4,2070.9h0c0,.1,7.9.1,7.9.1v4.1h-7.9v17.3h-4.4v-17.3h-4v-4.1h4v-.3c0-5.8,3.7-8.7,8.3-8.7s3.5.4,4.8.9l-.8,3.6-.6-.2c-1-.3-2-.5-2.9-.5-3.1,0-4.4,1.8-4.4,5Z"/>
      <path class="st8" d="M983.1,2070.9h0c0,.1,7.9.1,7.9.1v4.1h-7.9v17.3h-4.4v-17.3h-4v-4.1h4v-.3c0-5.8,3.7-8.7,8.3-8.7s3.5.4,4.8.9l-.8,3.6-.6-.2c-1-.3-2-.5-2.9-.5-3.1,0-4.4,1.8-4.4,5Z"/>
      <path class="st8" d="M994.5,2099.1h-2.9l2.8-6.4c-1.1-.4-1.8-1.2-1.8-2.5s1.2-2.8,2.8-2.8,2.9.6,2.9,2.9c0,.8,0,1.9-3.7,8.8Z"/>
      <path class="st8" d="M1036.7,2071v21.4h-4.4v-3.6c-1.6,2.5-4.1,4-7.5,4-5.7,0-9.9-4.6-9.9-11.2s4.2-11.2,9.8-11.2,6,1.7,7.5,4.1v-3.7h4.4ZM1032.3,2081.7c0-4.1-2.8-7-6.6-7s-6.4,2.9-6.4,7,2.7,7,6.4,7,6.6-2.8,6.6-7Z"/>
      <path class="st8" d="M1041.1,2081.7c0-6.4,4.7-11.2,11.1-11.2s9.5,3.1,10.5,8.2h-4.6c-.8-2.7-3.2-4.2-6-4.2-4,0-6.7,3-6.7,7.1s2.8,7.1,6.7,7.1,5.2-1.6,6-4.2h4.6c-1,5.3-5.5,8.3-10.5,8.3s-11.1-4.8-11.1-11.2Z"/>
      <path class="st8" d="M1083.1,2091.3c-1.2.7-3.7,1.6-6.1,1.6-4.4,0-7.8-2.8-7.8-8.7v-9.1h-4v-4.1h4v-4.9l4.4-1v5.8h8.8v4.1h-8.8v8.8c0,3.1,1.4,4.8,4.2,4.8s2.9-.5,4.6-1l.8,3.6Z"/>
      <path class="st8" d="M1092.1,2064.1c0,1.6-1.2,2.8-2.9,2.8s-2.8-1.2-2.8-2.8,1.2-2.7,2.8-2.7,2.9,1.1,2.9,2.7ZM1087.1,2071h4.4v21.4h-4.4v-21.4Z"/>
      <path class="st8" d="M1115.7,2071l-7.7,21.4h-5.3l-7.7-21.4h4.7l5.7,16.8,5.7-16.8h4.7Z"/>
      <path class="st8" d="M1138.9,2071v21.4h-4.4v-3.6c-1.6,2.5-4.1,4-7.5,4-5.7,0-9.9-4.6-9.9-11.2s4.2-11.2,9.8-11.2,6,1.7,7.5,4.1v-3.7h4.4ZM1134.6,2081.7c0-4.1-2.8-7-6.6-7s-6.4,2.9-6.4,7,2.7,7,6.4,7,6.6-2.8,6.6-7Z"/>
      <path class="st8" d="M1160.3,2091.3c-1.2.7-3.7,1.6-6.1,1.6-4.4,0-7.8-2.8-7.8-8.7v-9.1h-4v-4.1h4v-4.9l4.4-1v5.8h8.8v4.1h-8.8v8.8c0,3.1,1.4,4.8,4.2,4.8s2.9-.5,4.6-1l.8,3.6Z"/>
      <path class="st8" d="M1169.4,2064.1c0,1.6-1.2,2.8-2.9,2.8s-2.8-1.2-2.8-2.8,1.2-2.7,2.8-2.7,2.9,1.1,2.9,2.7ZM1164.3,2071h4.4v21.4h-4.4v-21.4Z"/>
      <path class="st8" d="M1193.1,2078.9v13.5h-4.4v-12.6c0-3.3-1.4-5.1-4.7-5.1s-5.8,2.5-5.8,6.6v11.1h-4.4v-21.4h4.4v3.5c1.5-2.5,3.8-4,7.2-4,4.8,0,7.7,3.2,7.7,8.4Z"/>
      <path class="st8" d="M1219.1,2071v21.1c0,6.4-4,10.5-10.3,10.5s-9.7-2.6-10.7-8h4.6c.7,2.8,3.1,4,6,4s6.1-2.2,6.1-6.4v-3.7c-1.6,2.4-4.2,4-7.5,4-5.7,0-9.9-4.6-9.9-11s4.2-11,9.9-11,5.9,1.7,7.5,4.1v-3.7h4.4ZM1214.7,2081.6c0-4-2.8-6.8-6.6-6.8s-6.4,2.9-6.4,6.8,2.7,6.8,6.4,6.8,6.6-2.8,6.6-6.8Z"/>
      <path class="st8" d="M1256.9,2071v21.4h-4.4v-3.6c-1.6,2.5-4.1,4-7.5,4-5.7,0-9.9-4.6-9.9-11.2s4.2-11.2,9.8-11.2,6,1.7,7.5,4.1v-3.7h4.4ZM1252.5,2081.7c0-4.1-2.8-7-6.6-7s-6.4,2.9-6.4,7,2.7,7,6.4,7,6.6-2.8,6.6-7Z"/>
    </g>
    <g class="st2">
      <path class="st8" d="M581.7,2129.2v29.9h-4.4v-3.6c-1.6,2.4-4.2,4-7.5,4-5.7,0-9.9-4.6-9.9-11.2s4.2-11.2,9.8-11.2,6,1.7,7.5,4.1v-12.2h4.4ZM577.3,2148.4c0-4.1-2.8-7-6.6-7s-6.4,2.9-6.4,7,2.7,7,6.4,7,6.6-2.8,6.6-7Z"/>
      <path class="st8" d="M591.8,2130.8c0,1.6-1.2,2.8-2.9,2.8s-2.8-1.2-2.8-2.8,1.2-2.7,2.8-2.7,2.9,1.1,2.9,2.7ZM586.8,2137.7h4.4v21.4h-4.4v-21.4Z"/>
      <path class="st8" d="M603,2137.6h0c0,.1,7.9.1,7.9.1v4.1h-7.9v17.3h-4.4v-17.3h-4v-4.1h4v-.3c0-5.8,3.7-8.7,8.3-8.7s3.5.4,4.8.9l-.8,3.6-.6-.2c-1-.3-2-.5-2.9-.5-3.1,0-4.4,1.8-4.4,5Z"/>
      <path class="st8" d="M621.7,2137.6h0c0,.1,7.9.1,7.9.1v4.1h-7.9v17.3h-4.4v-17.3h-4v-4.1h4v-.3c0-5.8,3.7-8.7,8.3-8.7s3.5.4,4.8.9l-.8,3.6-.6-.2c-1-.3-2-.5-2.9-.5-3.1,0-4.4,1.8-4.4,5Z"/>
      <path class="st8" d="M654,2149.6h-17.4c.3,3.9,3.1,6.1,6.7,6.1s4.7-1.1,5.7-3.2h4.6c-1.7,4.8-5.8,7-10.3,7-6.5,0-11.1-4.7-11.1-11.1s4.6-11.2,11-11.2,11.2,5.3,10.8,12.4ZM636.8,2146h12.4c-.7-2.9-2.9-5-6.1-5s-5.6,2.1-6.3,5Z"/>
      <path class="st8" d="M671.1,2137.4v4.5c-.4,0-.7,0-1.3,0-4,0-7.1,2.3-7.1,7.5v9.8h-4.4v-21.4h4.4v4.2c1.3-3,3.7-4.7,7.1-4.7s1,0,1.3.1Z"/>
      <path class="st8" d="M695.3,2149.6h-17.4c.3,3.9,3.1,6.1,6.7,6.1s4.7-1.1,5.7-3.2h4.6c-1.7,4.8-5.8,7-10.3,7-6.5,0-11.1-4.7-11.1-11.1s4.6-11.2,11-11.2,11.2,5.3,10.8,12.4ZM678.2,2146h12.4c-.7-2.9-2.9-5-6.1-5s-5.6,2.1-6.3,5Z"/>
      <path class="st8" d="M718.9,2145.6v13.5h-4.4v-12.6c0-3.3-1.4-5.1-4.7-5.1s-5.8,2.5-5.8,6.6v11.1h-4.4v-21.4h4.4v3.5c1.5-2.5,3.8-4,7.2-4,4.8,0,7.7,3.2,7.7,8.4Z"/>
      <path class="st8" d="M739.8,2158c-1.2.7-3.7,1.6-6.1,1.6-4.4,0-7.8-2.8-7.8-8.7v-9.1h-4v-4.1h4v-4.9l4.4-1v5.8h8.8v4.1h-8.8v8.8c0,3.1,1.4,4.8,4.2,4.8s2.9-.5,4.6-1l.8,3.6Z"/>
      <path class="st8" d="M777.4,2148.4c0,6.5-4.2,11.2-9.9,11.2s-5.9-1.6-7.5-4v13.3h-4.4v-31.1h4.4v3.7c1.6-2.5,4.1-4.1,7.5-4.1,5.6,0,9.8,4.6,9.8,11.2ZM772.9,2148.4c0-4.1-2.6-7-6.4-7s-6.6,2.9-6.6,7,2.8,7,6.6,7,6.4-2.8,6.4-7Z"/>
      <path class="st8" d="M801.3,2145.6v13.5h-4.4v-12.6c0-3.3-1.5-5.1-4.7-5.1s-5.8,2.5-5.8,6.6v11.1h-4.4v-29.9h4.4v12.1c1.5-2.5,3.9-4,7.2-4,4.8,0,7.7,3.2,7.7,8.4Z"/>
      <path class="st8" d="M826.2,2137.7l-14.2,31.1h-4.7l5.6-12.4-8.4-18.7h4.7l6.1,13.9,6.2-13.9h4.7Z"/>
      <path class="st8" d="M827.9,2152.2h4.5c.7,2.4,2.4,3.5,6.1,3.5s4.6-.9,4.6-2.5-2-2.1-5.6-2.9c-6-1.5-8.5-2.7-8.5-6.3s3.7-6.8,9-6.8,8.6,2.6,9.3,6.5h-4.4c-.6-1.8-2.3-2.6-5-2.6s-4.5,1-4.5,2.5,1.3,1.7,5.1,2.6c5.8,1.4,9.1,2.4,9.1,6.5s-4.1,6.8-9.2,6.8-9.7-2.7-10.5-7.4Z"/>
      <path class="st8" d="M856.8,2130.8c0,1.6-1.2,2.8-2.9,2.8s-2.8-1.2-2.8-2.8,1.2-2.7,2.8-2.7,2.9,1.1,2.9,2.7ZM851.7,2137.7h4.4v21.4h-4.4v-21.4Z"/>
      <path class="st8" d="M860.5,2148.4c0-6.4,4.7-11.2,11.1-11.2s9.5,3.1,10.5,8.2h-4.6c-.8-2.7-3.2-4.2-6-4.2-4,0-6.7,3-6.7,7.1s2.8,7.1,6.7,7.1,5.2-1.6,6-4.2h4.6c-1,5.3-5.5,8.3-10.5,8.3s-11.1-4.8-11.1-11.2Z"/>
      <path class="st8" d="M907.2,2137.7v21.4h-4.4v-3.6c-1.6,2.5-4.1,4-7.5,4-5.7,0-9.9-4.6-9.9-11.2s4.2-11.2,9.8-11.2,6,1.7,7.5,4.1v-3.7h4.4ZM902.9,2148.4c0-4.1-2.8-7-6.6-7s-6.4,2.9-6.4,7,2.7,7,6.4,7,6.6-2.8,6.6-7Z"/>
      <path class="st8" d="M912.4,2129.2h4.4v29.9h-4.4v-29.9Z"/>
      <path class="st8" d="M949.8,2158c-1.2.7-3.7,1.6-6.1,1.6-4.4,0-7.8-2.8-7.8-8.7v-9.1h-4v-4.1h4v-4.9l4.4-1v5.8h8.8v4.1h-8.8v8.8c0,3.1,1.4,4.8,4.2,4.8s2.9-.5,4.6-1l.8,3.6Z"/>
      <path class="st8" d="M973.2,2145.6v13.5h-4.4v-12.6c0-3.3-1.5-5.1-4.7-5.1s-5.8,2.5-5.8,6.6v11.1h-4.4v-29.9h4.4v12.1c1.5-2.5,3.9-4,7.2-4,4.8,0,7.7,3.2,7.7,8.4Z"/>
      <path class="st8" d="M999.3,2149.6h-17.4c.3,3.9,3.1,6.1,6.7,6.1s4.7-1.1,5.7-3.2h4.6c-1.7,4.8-5.8,7-10.3,7-6.5,0-11.1-4.7-11.1-11.1s4.6-11.2,11-11.2,11.2,5.3,10.8,12.4ZM982.1,2146h12.4c-.7-2.9-2.9-5-6.1-5s-5.6,2.1-6.3,5Z"/>
      <path class="st8" d="M1025,2148.4c0,6.4-4.9,11.2-11.1,11.2s-11.1-4.8-11.1-11.2,5-11.2,11.1-11.2,11.1,4.7,11.1,11.2ZM1007.3,2148.4c0,4.1,2.9,7,6.7,7s6.7-2.8,6.7-7-3-7-6.7-7-6.7,2.8-6.7,7Z"/>
      <path class="st8" d="M1042.2,2137.4v4.5c-.4,0-.7,0-1.3,0-4,0-7.1,2.3-7.1,7.5v9.8h-4.4v-21.4h4.4v4.2c1.3-3,3.7-4.7,7.1-4.7s1,0,1.3.1Z"/>
      <path class="st8" d="M1065.8,2137.7l-14.2,31.1h-4.7l5.6-12.4-8.4-18.7h4.7l6.1,13.9,6.2-13.9h4.7Z"/>
      <path class="st8" d="M1102.1,2149.6h-17.4c.3,3.9,3.1,6.1,6.7,6.1s4.7-1.1,5.7-3.2h4.6c-1.7,4.8-5.8,7-10.3,7-6.5,0-11.1-4.7-11.1-11.1s4.6-11.2,11-11.2,11.2,5.3,10.8,12.4ZM1084.9,2146h12.4c-.7-2.9-2.9-5-6.1-5s-5.6,2.1-6.3,5Z"/>
      <path class="st8" d="M1127.4,2137.7v21.4h-4.4v-3.6c-1.6,2.5-4.1,4-7.5,4-5.7,0-9.9-4.6-9.9-11.2s4.2-11.2,9.8-11.2,6,1.7,7.5,4.1v-3.7h4.4ZM1123.1,2148.4c0-4.1-2.8-7-6.6-7s-6.4,2.9-6.4,7,2.7,7,6.4,7,6.6-2.8,6.6-7Z"/>
      <path class="st8" d="M1131.8,2148.4c0-6.4,4.7-11.2,11.1-11.2s9.5,3.1,10.5,8.2h-4.6c-.8-2.7-3.2-4.2-6-4.2-4,0-6.7,3-6.7,7.1s2.8,7.1,6.7,7.1,5.2-1.6,6-4.2h4.6c-1,5.3-5.5,8.3-10.5,8.3s-11.1-4.8-11.1-11.2Z"/>
      <path class="st8" d="M1177,2145.6v13.5h-4.4v-12.6c0-3.3-1.5-5.1-4.7-5.1s-5.8,2.5-5.8,6.6v11.1h-4.4v-29.9h4.4v12.1c1.5-2.5,3.9-4,7.2-4,4.8,0,7.7,3.2,7.7,8.4Z"/>
      <path class="st8" d="M1209.8,2158c-1.2.7-3.7,1.6-6.1,1.6-4.4,0-7.8-2.8-7.8-8.7v-9.1h-4v-4.1h4v-4.9l4.4-1v5.8h8.8v4.1h-8.8v8.8c0,3.1,1.4,4.8,4.2,4.8s2.9-.5,4.6-1l.8,3.6Z"/>
      <path class="st8" d="M1218.9,2130.8c0,1.6-1.2,2.8-2.9,2.8s-2.8-1.2-2.8-2.8,1.2-2.7,2.8-2.7,2.9,1.1,2.9,2.7ZM1213.8,2137.7h4.4v21.4h-4.4v-21.4Z"/>
      <path class="st8" d="M1255.4,2145.4v13.7h-4.4v-12.8c0-3.2-1.3-4.9-4.2-4.9s-5.3,2.7-5.3,6.6v11.1s-4.4,0-4.4,0v-12.8c0-3.2-1.3-4.9-4.2-4.9s-5.2,2.7-5.2,6.6v11.1h-4.4v-21.4h4.4v3.4c1.5-2.5,3.6-3.9,6.7-3.9s5.6,1.6,6.6,4.5c1.4-2.8,3.9-4.5,7.2-4.5s7.2,3,7.2,8.1Z"/>
      <path class="st8" d="M1281.5,2149.6h-17.4c.3,3.9,3.1,6.1,6.7,6.1s4.7-1.1,5.7-3.2h4.6c-1.7,4.8-5.8,7-10.3,7-6.5,0-11.1-4.7-11.1-11.1s4.6-11.2,11-11.2,11.2,5.3,10.8,12.4ZM1264.4,2146h12.4c-.7-2.9-2.9-5-6.1-5s-5.6,2.1-6.3,5Z"/>
      <path class="st8" d="M1291.7,2156.8c0,1.6-1.2,2.8-2.9,2.8s-2.8-1.2-2.8-2.8,1.2-2.7,2.8-2.7,2.9,1.1,2.9,2.7Z"/>
    </g>
  </g>
  <g id="Icon_carbon-touch-1-filled">
    <path id="Pfad_173" class="st8" d="M403.4,1989.6c-21.6,0-39.1,17.5-39.1,39.1h13c-.1-14.4,11.4-26.2,25.8-26.3,14.4-.1,26.2,11.4,26.3,25.8,0,.2,0,.4,0,.5h13c0-21.6-17.5-39.1-39.1-39.1Z"/>
    <path id="Pfad_174" class="st8" d="M455.6,2172.1h-28.9c-6.5,0-12.8-2.5-17.7-6.9l-59.9-55.2c-5.3-4.9-5.7-13.1-.8-18.4.5-.5,1-1,1.6-1.5,5.3-3.9,12.6-3.4,17.3,1.1l23.3,21.3v-83.8c0-7.2,5.8-13,13-13s13,5.8,13,13v45.6c0-7.2,5.8-13,13-13s13,5.8,13,13v6.5c0-7.2,5.8-13,13-13s13,5.8,13,13h0v6.5c0-7.2,5.8-13,13-13s13,5.8,13,13v45.6c0,21.6-17.5,39.1-39.1,39.1Z"/>
  </g>
  <g id="Gruppe_88">
    <g id="Gc_h_k_" class="st2">
      <g class="st2">
        <path class="st8" d="M1022.3,1582.9c-2.2,1.7-5.4,2.6-9.1,2.6-7.7,0-12.4-5-12.4-14.1s4.3-14.1,12.6-14.1,6.7,1,8.8,2.7v5.4h-2.5v-4.1c-1.6-1-3.9-1.6-6.3-1.6-6.5,0-9.7,4.6-9.7,11.6s3.9,11.7,9.5,11.7,4.9-.6,6.5-1.5v-7.5h-5.8v-2.4h8.3v11.2Z"/>
      </g>
      <g class="st2">
        <path class="st8" d="M1010.3,1644.3c2.1,0,4.3-.7,5.4-1.8l1.4,1.8c-1.8,1.5-4,2.4-7.1,2.4-5.6,0-9.6-3.5-9.6-10.3s4.2-10.1,9.2-10.1,4.9.7,6.3,1.9v5.5h-2.4v-4.2c-1-.6-2.3-.9-3.7-.9-3.7,0-6.5,2.5-6.5,7.7s3,7.9,7,7.9Z"/>
      </g>
      <g class="st2">
        <path class="st8" d="M1019.2,1624.6h4.8v1.8h-4.8v-1.8Z"/>
      </g>
      <g class="st2">
        <path class="st8" d="M1029.8,1618.5h1.6v19.1h-2.5v-16.3l-3,1.6v-2.2l3.9-2.1Z"/>
      </g>
      <g class="st2">
        <path class="st8" d="M1021,1707.2h-5.2v-11.2c0-4.1-1.7-6.3-4.9-6.3s-5.7,1.7-5.7,6.5v8.8h2.6v2.2h-7.9v-2.2h2.6v-23.6h-2.6v-2.2h5.2v11.7c1.1-2.1,3.2-3.7,6.3-3.7,4.5,0,6.9,3.2,6.9,8.7v9.1h2.6v2.2Z"/>
      </g>
      <g class="st2">
        <path class="st8" d="M1007.9,1768.4h-7.8v-2.2h2.6v-23.6h-2.6v-2.2h5.2v16.6l7.5-5.9h-2.5v-2.2h8.6l.2,2.2h-3l-8,6.3,9.1,8.8h2.5v2.2h-8.2v-2.2h2.3l-8.5-8.3v8.3h2.6v2.2Z"/>
      </g>
    </g>
    <g id="B_" class="st2">
      <g class="st2">
        <path class="st8" d="M1023.7,1760.9h1.7v-13.3h-1.7v-1.3h5.8c2.9,0,4.8,1.2,4.8,3.9s-.9,2.9-2.3,3.4c2.1.5,3.4,1.7,3.4,4s-2.1,4.6-5.3,4.6h-6.4v-1.3ZM1027,1747.6v5.4h2.5c2.2,0,3.2-1.1,3.2-2.7s-1-2.7-3.2-2.7h-2.5ZM1027,1754.3v6.6h3c2.6,0,3.8-1.4,3.8-3.4s-1.1-3.2-3.8-3.2h-3Z"/>
      </g>
    </g>
    <g id="_" class="st2">
      <g class="st2">
        <path class="st8" d="M1061.8,1571.9h-15.3v-2.2h15.3v2.2ZM1061.8,1577.5h-15.3v-2.2h15.3v2.2Z"/>
      </g>
      <g class="st2">
        <path class="st8" d="M1061.8,1633.1h-15.3v-2.2h15.3v2.2ZM1061.8,1638.6h-15.3v-2.2h15.3v2.2Z"/>
      </g>
      <g class="st2">
        <path class="st8" d="M1061.8,1694.2h-15.3v-2.2h15.3v2.2ZM1061.8,1699.7h-15.3v-2.2h15.3v2.2Z"/>
      </g>
      <g class="st2">
        <path class="st8" d="M1061.8,1755.3h-15.3v-2.2h15.3v2.2ZM1061.8,1760.9h-15.3v-2.2h15.3v2.2Z"/>
      </g>
    </g>
    <g id="Gravitational_constant_Inverse_speed_of_light_Planck_s_constant_Boltzmann_s_constant_" class="st2">
      <g class="st2">
        <path class="st8" d="M1109.8,1582.9c-2.2,1.7-5.4,2.6-9.1,2.6-7.7,0-12.4-5-12.4-14.1s4.3-14.1,12.6-14.1,6.7,1,8.8,2.7v5.4h-2.5v-4.1c-1.6-1-3.9-1.6-6.3-1.6-6.5,0-9.7,4.6-9.7,11.6s3.9,11.7,9.5,11.7,4.9-.6,6.5-1.5v-7.5h-5.8v-2.4h8.3v11.2Z"/>
        <path class="st8" d="M1122.7,1585h-8.6v-2.2h2.6v-15.1h-2.6v-2.2h5l.2,3.3c.8-1.9,2.2-3.8,5.3-3.8s1.6.1,2.3.4l-.4,2.3c-.8-.2-1.5-.3-2.1-.3-3.2,0-5.1,2.9-5.1,7.7v7.6h3.4v2.2Z"/>
        <path class="st8" d="M1146.5,1585h-4.8l-.2-2.7c-1.3,1.9-3.4,3.2-6.4,3.2-4.3,0-6.2-2.7-6.2-5.9s2.2-5.8,7.8-5.8h4.7v-1.9c0-2.8-1.7-4.6-4.9-4.6s-3.1.2-4.1.5v3.2h-2.3v-4.7c1.4-.7,3.8-1.2,6.5-1.2,4.9,0,7.5,2.3,7.5,6.8v11h2.5v2.2ZM1141.4,1577.6v-1.9h-4.6c-3.5,0-5.2,1.4-5.2,3.8s1.2,3.7,3.9,3.7,5.9-2.4,5.9-5.5Z"/>
        <path class="st8" d="M1156.1,1585l-6.7-17.3h-2.2v-2.2h7.2v2.2h-2.2l5.2,14.6,5.2-14.6h-2.1v-2.2h7.2v2.2h-2.3l-6.6,17.3h-2.6Z"/>
        <path class="st8" d="M1169.8,1565.6h5.2v17.3h2.6v2.2h-7.8v-2.2h2.6v-15.1h-2.6v-2.2ZM1173.7,1557c1.2,0,1.8.8,1.8,1.8s-.6,1.7-1.8,1.7-1.8-.7-1.8-1.7.6-1.8,1.8-1.8Z"/>
        <path class="st8" d="M1179.7,1565.6h3.2v-4.7h2.6v4.7h4.8v2.2h-4.8v11.7c0,2.8,1.2,3.7,2.8,3.7s1.5-.1,2.4-.4l.3,2.1c-1.1.3-1.8.5-2.9.5-3.5,0-5.3-1.8-5.3-6.2v-11.5h-3.2v-2.2Z"/>
        <path class="st8" d="M1211,1585h-4.8l-.2-2.7c-1.3,1.9-3.4,3.2-6.4,3.2-4.3,0-6.2-2.7-6.2-5.9s2.2-5.8,7.8-5.8h4.7v-1.9c0-2.8-1.7-4.6-4.9-4.6s-3.1.2-4.1.5v3.2h-2.3v-4.7c1.4-.7,3.8-1.2,6.5-1.2,4.9,0,7.5,2.3,7.5,6.8v11h2.5v2.2ZM1205.9,1577.6v-1.9h-4.6c-3.5,0-5.2,1.4-5.2,3.8s1.2,3.7,3.9,3.7,5.9-2.4,5.9-5.5Z"/>
        <path class="st8" d="M1212.8,1565.6h3.2v-4.7h2.6v4.7h4.8v2.2h-4.8v11.7c0,2.8,1.2,3.7,2.8,3.7s1.5-.1,2.4-.4l.3,2.1c-1.1.3-1.8.5-2.9.5-3.5,0-5.3-1.8-5.3-6.2v-11.5h-3.2v-2.2Z"/>
        <path class="st8" d="M1226.4,1565.6h5.2v17.3h2.6v2.2h-7.8v-2.2h2.6v-15.1h-2.6v-2.2ZM1230.3,1557c1.2,0,1.8.8,1.8,1.8s-.6,1.7-1.8,1.7-1.8-.7-1.8-1.7.6-1.8,1.8-1.8Z"/>
        <path class="st8" d="M1246.6,1565.1c5.6,0,9.2,4,9.2,10.1s-3.6,10.3-9.2,10.3-9.3-4.2-9.3-10.3,3.6-10.1,9.3-10.1ZM1246.6,1567.5c-4.2,0-6.5,3.2-6.5,7.7s2.3,8,6.5,8,6.5-3.5,6.5-8-2.3-7.7-6.5-7.7Z"/>
        <path class="st8" d="M1280.2,1585h-5.2v-11.2c0-4.1-1.8-6.3-4.9-6.3s-5.7,1.7-5.7,6.5v8.8h2.6v2.2h-7.8v-2.2h2.6v-15.1h-2.6v-2.2h5l.2,3.3c1.1-2.1,3.2-3.7,6.3-3.7,4.6,0,7,3.2,7,8.7v9.1h2.6v2.2Z"/>
        <path class="st8" d="M1300.5,1585h-4.8l-.2-2.7c-1.3,1.9-3.4,3.2-6.4,3.2-4.3,0-6.2-2.7-6.2-5.9s2.2-5.8,7.8-5.8h4.7v-1.9c0-2.8-1.7-4.6-4.9-4.6s-3.1.2-4.1.5v3.2h-2.3v-4.7c1.4-.7,3.8-1.2,6.5-1.2,4.9,0,7.5,2.3,7.5,6.8v11h2.5v2.2ZM1295.4,1577.6v-1.9h-4.6c-3.5,0-5.2,1.4-5.2,3.8s1.2,3.7,3.9,3.7,5.9-2.4,5.9-5.5Z"/>
        <path class="st8" d="M1307.9,1582.8h2.7v2.2h-7.9v-2.2h2.5v-23.6h-2.6v-2.2h5.2v25.8Z"/>
        <path class="st8" d="M1332.3,1583.1c2.1,0,4.3-.7,5.4-1.8l1.4,1.8c-1.8,1.5-4,2.4-7.1,2.4-5.6,0-9.6-3.5-9.6-10.3s4.2-10.1,9.2-10.1,4.9.7,6.3,1.9v5.5h-2.4v-4.2c-1-.6-2.3-.9-3.7-.9-3.7,0-6.5,2.5-6.5,7.7s3,7.9,7,7.9Z"/>
        <path class="st8" d="M1351.1,1565.1c5.6,0,9.2,4,9.2,10.1s-3.6,10.3-9.2,10.3-9.3-4.2-9.3-10.3,3.6-10.1,9.3-10.1ZM1351.1,1567.5c-4.2,0-6.5,3.2-6.5,7.7s2.3,8,6.5,8,6.5-3.5,6.5-8-2.3-7.7-6.5-7.7Z"/>
        <path class="st8" d="M1384.8,1585h-5.2v-11.2c0-4.1-1.8-6.3-4.9-6.3s-5.7,1.7-5.7,6.5v8.8h2.6v2.2h-7.8v-2.2h2.6v-15.1h-2.6v-2.2h5l.2,3.3c1.1-2.1,3.2-3.7,6.3-3.7,4.6,0,7,3.2,7,8.7v9.1h2.6v2.2Z"/>
        <path class="st8" d="M1390.2,1579.3v3.5c1.7.5,3.3.6,5,.6,3.1,0,4.8-1.1,4.8-3.4s-1-2.8-4-3.5l-2.8-.7c-3.8-1-5.4-2.5-5.4-5.3,0-4.2,3.9-5.4,7.4-5.4s5.3.8,6.6,1.4v5h-2.3v-3.6c-1.3-.4-2.6-.7-4.3-.7-2.6,0-4.9.7-4.9,3s.6,2.4,3.7,3.2l2.8.7c3.6.9,5.6,2.3,5.6,5.5s-3.1,5.9-7.2,5.9-5.1-.3-7.3-1.2v-5h2.3Z"/>
        <path class="st8" d="M1405.1,1565.6h3.2v-4.7h2.6v4.7h4.8v2.2h-4.8v11.7c0,2.8,1.2,3.7,2.8,3.7s1.5-.1,2.4-.4l.3,2.1c-1.1.3-1.8.5-2.9.5-3.5,0-5.3-1.8-5.3-6.2v-11.5h-3.2v-2.2Z"/>
        <path class="st8" d="M1436.4,1585h-4.8l-.2-2.7c-1.3,1.9-3.4,3.2-6.4,3.2-4.3,0-6.2-2.7-6.2-5.9s2.2-5.8,7.8-5.8h4.7v-1.9c0-2.8-1.7-4.6-4.9-4.6s-3.1.2-4.1.5v3.2h-2.3v-4.7c1.4-.7,3.8-1.2,6.5-1.2,4.9,0,7.5,2.3,7.5,6.8v11h2.5v2.2ZM1431.3,1577.6v-1.9h-4.6c-3.5,0-5.2,1.4-5.2,3.8s1.2,3.7,3.9,3.7,5.9-2.4,5.9-5.5Z"/>
        <path class="st8" d="M1460.1,1585h-5.2v-11.2c0-4.1-1.8-6.3-4.9-6.3s-5.7,1.7-5.7,6.5v8.8h2.6v2.2h-7.8v-2.2h2.6v-15.1h-2.6v-2.2h5l.2,3.3c1.1-2.1,3.2-3.7,6.3-3.7,4.6,0,7,3.2,7,8.7v9.1h2.6v2.2Z"/>
        <path class="st8" d="M1461.8,1565.6h3.2v-4.7h2.6v4.7h4.8v2.2h-4.8v11.7c0,2.8,1.2,3.7,2.8,3.7s1.5-.1,2.4-.4l.3,2.1c-1.1.3-1.8.5-2.9.5-3.5,0-5.3-1.8-5.3-6.2v-11.5h-3.2v-2.2Z"/>
      </g>
      <g class="st2">
        <path class="st8" d="M1096.9,1621.1h-2.9v22.9h2.9v2.2h-8.6v-2.2h2.9v-22.9h-2.9v-2.2h8.6v2.2Z"/>
        <path class="st8" d="M1121.5,1646.1h-5.2v-11.2c0-4.1-1.8-6.3-4.9-6.3s-5.7,1.7-5.7,6.5v8.8h2.6v2.2h-7.8v-2.2h2.6v-15.1h-2.6v-2.2h5l.2,3.3c1.1-2.1,3.2-3.7,6.3-3.7,4.6,0,7,3.2,7,8.7v9.1h2.6v2.2Z"/>
        <path class="st8" d="M1130.8,1646.1l-6.7-17.3h-2.2v-2.2h7.2v2.2h-2.2l5.2,14.6,5.2-14.6h-2.1v-2.2h7.2v2.2h-2.3l-6.6,17.3h-2.6Z"/>
        <path class="st8" d="M1152.6,1626.2c5.2,0,8.5,3.9,8.5,9.3v1h-14.4c0,4.5,2.2,7.8,6.8,7.8s4.7-1,6-2.2l1.4,1.7c-1.6,1.7-4.2,2.8-7.5,2.8-5.6,0-9.3-3.5-9.3-10.3s3.3-10.1,8.6-10.1ZM1146.9,1634.4h11.6c-.3-3.5-2.4-6-5.8-6s-5.3,2.4-5.8,6Z"/>
        <path class="st8" d="M1173.1,1646.1h-8.6v-2.2h2.6v-15.1h-2.6v-2.2h5l.2,3.3c.8-1.9,2.2-3.8,5.3-3.8s1.6.1,2.3.4l-.4,2.3c-.8-.2-1.5-.3-2.1-.3-3.2,0-5.1,2.9-5.1,7.7v7.6h3.4v2.2Z"/>
        <path class="st8" d="M1181.8,1640.4v3.5c1.7.5,3.3.6,5,.6,3.1,0,4.8-1.1,4.8-3.4s-1-2.8-4-3.5l-2.8-.7c-3.8-1-5.4-2.5-5.4-5.3,0-4.2,3.9-5.4,7.4-5.4s5.3.8,6.6,1.4v5h-2.3v-3.6c-1.3-.4-2.6-.7-4.3-.7-2.6,0-4.9.7-4.9,3s.6,2.4,3.7,3.2l2.8.7c3.6.9,5.6,2.3,5.6,5.5s-3.1,5.9-7.2,5.9-5.1-.3-7.3-1.2v-5h2.3Z"/>
        <path class="st8" d="M1206.3,1626.2c5.2,0,8.5,3.9,8.5,9.3v1h-14.4c0,4.5,2.2,7.8,6.8,7.8s4.7-1,6-2.2l1.4,1.7c-1.6,1.7-4.2,2.8-7.5,2.8-5.6,0-9.3-3.5-9.3-10.3s3.3-10.1,8.6-10.1ZM1200.5,1634.4h11.6c-.3-3.5-2.4-6-5.8-6s-5.3,2.4-5.8,6Z"/>
        <path class="st8" d="M1229.6,1640.4v3.5c1.7.5,3.3.6,5,.6,3.1,0,4.8-1.1,4.8-3.4s-1-2.8-4-3.5l-2.8-.7c-3.8-1-5.4-2.5-5.4-5.3,0-4.2,3.9-5.4,7.4-5.4s5.3.8,6.6,1.4v5h-2.3v-3.6c-1.3-.4-2.6-.7-4.3-.7-2.6,0-4.9.7-4.9,3s.6,2.4,3.7,3.2l2.8.7c3.6.9,5.6,2.3,5.6,5.5s-3.1,5.9-7.2,5.9-5.1-.3-7.3-1.2v-5h2.3Z"/>
        <path class="st8" d="M1253.7,1654.3h-8.6v-2.2h2.6v-23.3h-2.6v-2.2h5l.2,3.5c1.2-2.3,3.5-4,6.7-4,5.1,0,8.7,3.9,8.7,10.2s-3.6,10.2-8.6,10.2-5.3-1.4-6.7-3.7v9.3h3.4v2.2ZM1256.6,1628.6c-3.9,0-6.4,3.2-6.4,7.8s2.5,7.9,6.4,7.9,6.2-3.2,6.2-7.9-2.3-7.8-6.2-7.8Z"/>
        <path class="st8" d="M1277.7,1626.2c5.2,0,8.5,3.9,8.5,9.3v1h-14.4c0,4.5,2.2,7.8,6.8,7.8s4.7-1,6-2.2l1.4,1.7c-1.6,1.7-4.2,2.8-7.5,2.8-5.6,0-9.3-3.5-9.3-10.3s3.3-10.1,8.6-10.1ZM1272,1634.4h11.6c-.4-3.5-2.4-6-5.8-6s-5.3,2.4-5.8,6Z"/>
        <path class="st8" d="M1298.3,1626.2c5.2,0,8.5,3.9,8.5,9.3v1h-14.4c0,4.5,2.2,7.8,6.8,7.8s4.7-1,6-2.2l1.4,1.7c-1.6,1.7-4.2,2.8-7.5,2.8-5.6,0-9.3-3.5-9.3-10.3s3.3-10.1,8.6-10.1ZM1292.6,1634.4h11.6c-.3-3.5-2.4-6-5.8-6s-5.3,2.4-5.8,6Z"/>
        <path class="st8" d="M1328.3,1618.1v25.8h2.6v2.2h-5.1l-.2-2.6v-.7c-1.4,2.4-3.8,3.8-6.8,3.8-5,0-8.6-3.9-8.6-10.2s3.6-10.2,8.7-10.2,5.5,1.7,6.7,4v-9.9h-2.6v-2.2h5.2ZM1319.3,1644.3c3.9,0,6.4-3.2,6.4-7.9s-2.5-7.8-6.4-7.8-6.3,3.2-6.3,7.8,2.3,7.9,6.2,7.9Z"/>
        <path class="st8" d="M1352,1626.2c5.6,0,9.2,4,9.2,10.1s-3.6,10.3-9.2,10.3-9.3-4.2-9.3-10.3,3.6-10.1,9.3-10.1ZM1352,1628.6c-4.2,0-6.5,3.2-6.5,7.7s2.3,8,6.5,8,6.5-3.5,6.5-8-2.3-7.7-6.5-7.7Z"/>
        <path class="st8" d="M1370.3,1626.7h5.4v2.2h-5.4v15.1h3.5v2.2h-9.2v-2.2h3v-15.1h-3.1v-2.2h3.1v-1.6c0-5,2.5-7.4,6.5-7.4s2.2.2,3,.5l-.3,2.1c-.7-.1-1.5-.3-2.5-.3-2.6,0-4,1.8-4,5.2v1.5Z"/>
        <path class="st8" d="M1391,1643.9h2.7v2.2h-7.9v-2.2h2.5v-23.6h-2.6v-2.2h5.2v25.8Z"/>
        <path class="st8" d="M1396.7,1626.7h5.2v17.3h2.6v2.2h-7.8v-2.2h2.6v-15.1h-2.6v-2.2ZM1400.5,1618.1c1.2,0,1.8.8,1.8,1.8s-.6,1.7-1.8,1.7-1.8-.7-1.8-1.7.6-1.8,1.8-1.8Z"/>
        <path class="st8" d="M1428.2,1628.9h-2.6v16.3c0,6.7-4.1,9.8-10.1,9.8s-4.9-.4-6.4-1.2l.7-2.1c1.3.6,3.5,1,5.5,1,4.4,0,7.7-2.3,7.7-7.5v-2.4c-1.4,2.4-3.8,3.9-6.8,3.9-5,0-8.6-3.9-8.6-10.2s3.6-10.2,8.7-10.2,5.5,1.6,6.7,4l.2-3.5h5.1v2.2ZM1416.5,1644.3c3.9,0,6.4-3.2,6.4-7.9s-2.5-7.8-6.4-7.8-6.3,3.2-6.3,7.8,2.3,7.9,6.2,7.9Z"/>
        <path class="st8" d="M1451.7,1646.1h-5.2v-11.2c0-4.1-1.7-6.3-4.9-6.3s-5.7,1.7-5.7,6.5v8.8h2.6v2.2h-7.9v-2.2h2.6v-23.6h-2.6v-2.2h5.2v11.7c1.1-2.1,3.2-3.7,6.3-3.7,4.5,0,6.9,3.2,6.9,8.7v9.1h2.6v2.2Z"/>
        <path class="st8" d="M1453.5,1626.7h3.2v-4.7h2.6v4.7h4.8v2.2h-4.8v11.7c0,2.8,1.2,3.7,2.8,3.7s1.5-.1,2.4-.4l.3,2.1c-1.1.3-1.8.5-2.9.5-3.5,0-5.3-1.8-5.3-6.2v-11.5h-3.2v-2.2Z"/>
      </g>
      <g class="st2">
        <path class="st8" d="M1096.9,1707.2h-8.6v-2.2h2.9v-22.9h-2.9v-2.2h9.5c7.2,0,10.4,3.7,10.4,8.4s-3.2,8.6-10.4,8.6h-3.8v8h2.9v2.2ZM1094,1682.2v12.6h3.8c5.5,0,7.5-2.8,7.5-6.4s-2.2-6.2-7.5-6.2h-3.8Z"/>
        <path class="st8" d="M1115.8,1705.1h2.7v2.2h-7.9v-2.2h2.5v-23.6h-2.6v-2.2h5.2v25.8Z"/>
        <path class="st8" d="M1139,1707.2h-4.8l-.2-2.7c-1.3,1.9-3.4,3.2-6.4,3.2-4.3,0-6.2-2.7-6.2-5.9s2.2-5.8,7.8-5.8h4.7v-1.9c0-2.8-1.7-4.6-4.9-4.6s-3.1.2-4.1.5v3.2h-2.3v-4.7c1.4-.7,3.8-1.2,6.5-1.2,4.9,0,7.5,2.3,7.5,6.8v11h2.5v2.2ZM1133.9,1699.9v-1.9h-4.6c-3.5,0-5.2,1.4-5.2,3.8s1.2,3.7,3.9,3.7,5.9-2.4,5.9-5.5Z"/>
        <path class="st8" d="M1162.7,1707.2h-5.2v-11.2c0-4.1-1.8-6.3-4.9-6.3s-5.7,1.7-5.7,6.5v8.8h2.6v2.2h-7.8v-2.2h2.6v-15.1h-2.6v-2.2h5l.2,3.3c1.1-2.1,3.2-3.7,6.3-3.7,4.6,0,7,3.2,7,8.7v9.1h2.6v2.2Z"/>
        <path class="st8" d="M1175.3,1705.4c2.1,0,4.3-.7,5.4-1.8l1.4,1.8c-1.8,1.5-4,2.4-7.1,2.4-5.6,0-9.6-3.5-9.6-10.3s4.2-10.1,9.2-10.1,4.9.7,6.3,1.9v5.5h-2.4v-4.2c-1-.6-2.3-.9-3.7-.9-3.7,0-6.5,2.5-6.5,7.7s3,7.9,7,7.9Z"/>
        <path class="st8" d="M1192.4,1707.2h-7.8v-2.2h2.6v-23.6h-2.6v-2.2h5.2v16.6l7.5-5.9h-2.5v-2.2h8.6l.2,2.2h-3l-8,6.3,9.1,8.8h2.5v2.2h-8.2v-2.2h2.3l-8.5-8.3v8.3h2.6v2.2Z"/>
        <path class="st8" d="M1205.3,1685.3l1.8-7.2h2.8l-2.7,7.2h-1.9Z"/>
        <path class="st8" d="M1213.2,1701.5v3.5c1.7.5,3.3.6,5,.6,3.1,0,4.8-1.1,4.8-3.4s-1-2.8-4-3.5l-2.8-.7c-3.8-1-5.4-2.5-5.4-5.3,0-4.2,3.9-5.4,7.4-5.4s5.3.8,6.6,1.4v5h-2.3v-3.6c-1.3-.4-2.6-.7-4.3-.7-2.6,0-4.9.7-4.9,3s.6,2.4,3.7,3.2l2.8.7c3.6.9,5.6,2.3,5.6,5.5s-3.1,5.9-7.2,5.9-5.1-.3-7.3-1.2v-5h2.3Z"/>
        <path class="st8" d="M1247.7,1705.4c2.1,0,4.3-.7,5.4-1.8l1.4,1.8c-1.8,1.5-4,2.4-7.1,2.4-5.6,0-9.6-3.5-9.6-10.3s4.2-10.1,9.2-10.1,4.9.7,6.3,1.9v5.5h-2.4v-4.2c-1-.6-2.3-.9-3.7-.9-3.7,0-6.5,2.5-6.5,7.7s3,7.9,7,7.9Z"/>
        <path class="st8" d="M1266.6,1687.3c5.6,0,9.2,4,9.2,10.1s-3.6,10.3-9.2,10.3-9.3-4.2-9.3-10.3,3.6-10.1,9.3-10.1ZM1266.6,1689.7c-4.2,0-6.5,3.2-6.5,7.7s2.3,8,6.5,8,6.5-3.5,6.5-8-2.3-7.7-6.5-7.7Z"/>
        <path class="st8" d="M1300.2,1707.2h-5.2v-11.2c0-4.1-1.8-6.3-4.9-6.3s-5.7,1.7-5.7,6.5v8.8h2.6v2.2h-7.8v-2.2h2.6v-15.1h-2.6v-2.2h5l.2,3.3c1.1-2.1,3.2-3.7,6.3-3.7,4.6,0,7,3.2,7,8.7v9.1h2.6v2.2Z"/>
        <path class="st8" d="M1305.6,1701.5v3.5c1.7.5,3.3.6,5,.6,3.1,0,4.8-1.1,4.8-3.4s-1-2.8-4-3.5l-2.8-.7c-3.8-1-5.4-2.5-5.4-5.3,0-4.2,3.9-5.4,7.4-5.4s5.3.8,6.6,1.4v5h-2.3v-3.6c-1.3-.4-2.6-.7-4.3-.7-2.6,0-4.9.7-4.9,3s.6,2.4,3.7,3.2l2.8.7c3.6.9,5.6,2.3,5.6,5.5s-3.1,5.9-7.2,5.9-5.1-.3-7.3-1.2v-5h2.3Z"/>
        <path class="st8" d="M1320.6,1687.8h3.2v-4.7h2.6v4.7h4.8v2.2h-4.8v11.7c0,2.8,1.2,3.7,2.8,3.7s1.5-.1,2.4-.4l.3,2.1c-1.1.3-1.8.5-2.9.5-3.5,0-5.3-1.8-5.3-6.2v-11.5h-3.2v-2.2Z"/>
        <path class="st8" d="M1351.8,1707.2h-4.8l-.2-2.7c-1.3,1.9-3.4,3.2-6.4,3.2-4.3,0-6.2-2.7-6.2-5.9s2.2-5.8,7.8-5.8h4.7v-1.9c0-2.8-1.7-4.6-4.9-4.6s-3.1.2-4.1.5v3.2h-2.3v-4.7c1.4-.7,3.8-1.2,6.5-1.2,4.9,0,7.5,2.3,7.5,6.8v11h2.5v2.2ZM1346.7,1699.9v-1.9h-4.6c-3.5,0-5.2,1.4-5.2,3.8s1.2,3.7,3.9,3.7,5.9-2.4,5.9-5.5Z"/>
        <path class="st8" d="M1375.5,1707.2h-5.2v-11.2c0-4.1-1.8-6.3-4.9-6.3s-5.7,1.7-5.7,6.5v8.8h2.6v2.2h-7.8v-2.2h2.6v-15.1h-2.6v-2.2h5l.2,3.3c1.1-2.1,3.2-3.7,6.3-3.7,4.6,0,7,3.2,7,8.7v9.1h2.6v2.2Z"/>
        <path class="st8" d="M1377.3,1687.8h3.2v-4.7h2.6v4.7h4.8v2.2h-4.8v11.7c0,2.8,1.2,3.7,2.8,3.7s1.5-.1,2.4-.4l.3,2.1c-1.1.3-1.8.5-2.9.5-3.5,0-5.3-1.8-5.3-6.2v-11.5h-3.2v-2.2Z"/>
      </g>
      <g class="st2">
        <path class="st8" d="M1088.3,1766.2h2.9v-22.9h-2.9v-2.2h9.9c4.9,0,8.3,2.1,8.3,6.6s-1.6,4.9-3.9,5.8c3.6.8,5.9,2.9,5.9,6.9s-3.6,7.9-9.1,7.9h-11v-2.2ZM1094,1743.3v9.3h4.3c3.7,0,5.4-1.9,5.4-4.7s-1.7-4.7-5.4-4.7h-4.3ZM1094,1754.8v11.4h5.1c4.4,0,6.5-2.4,6.5-5.8s-1.9-5.6-6.5-5.6h-5.1Z"/>
        <path class="st8" d="M1121.3,1748.5c5.6,0,9.2,4,9.2,10.1s-3.6,10.3-9.2,10.3-9.3-4.2-9.3-10.3,3.6-10.1,9.3-10.1ZM1121.3,1750.8c-4.2,0-6.5,3.2-6.5,7.7s2.3,8,6.5,8,6.5-3.5,6.5-8-2.3-7.7-6.5-7.7Z"/>
        <path class="st8" d="M1138.7,1766.2h2.7v2.2h-7.9v-2.2h2.5v-23.6h-2.6v-2.2h5.2v25.8Z"/>
        <path class="st8" d="M1143.5,1748.9h3.2v-4.7h2.6v4.7h4.8v2.2h-4.8v11.7c0,2.8,1.2,3.7,2.8,3.7s1.5-.1,2.4-.4l.3,2.1c-1.1.3-1.8.5-2.9.5-3.5,0-5.3-1.8-5.3-6.2v-11.5h-3.2v-2.2Z"/>
        <path class="st8" d="M1157.2,1766.6l12.1-15.5h-9.3v3.2h-2.5v-5.4h15.1v1.8l-12.1,15.5h10v-2.7h2.5s0,4.9,0,4.9h-15.9v-1.8Z"/>
        <path class="st8" d="M1188.8,1766.2h2.6v-10c0-3.5-2.1-5.4-4.7-5.4s-5.2,2.3-5.2,5.4v10h2.6v2.2h-7.8v-2.2h2.6v-15.1h-2.6v-2.2h4.9l.2,2.7c1.1-1.8,3.2-3.2,5.7-3.2s4.9,1.2,6.1,3.7c1.6-2.5,3.5-3.7,6.5-3.7,4.3,0,6.8,2.7,6.8,7.7v10h2.6v2.2h-7.8v-2.2h2.6v-10c0-3.7-2-5.4-4.5-5.4s-5.1,1.8-5.4,4.8v10.6h2.6v2.2h-7.8v-2.2Z"/>
        <path class="st8" d="M1229.4,1768.4h-4.8l-.2-2.7c-1.3,1.9-3.4,3.2-6.4,3.2-4.3,0-6.2-2.7-6.2-5.9s2.2-5.8,7.8-5.8h4.7v-1.9c0-2.8-1.7-4.6-4.9-4.6s-3.1.2-4.1.5v3.2h-2.3v-4.7c1.4-.7,3.8-1.2,6.5-1.2,4.9,0,7.5,2.3,7.5,6.8v11h2.5v2.2ZM1224.3,1761v-1.9h-4.6c-3.5,0-5.2,1.4-5.2,3.8s1.2,3.7,3.9,3.7,5.9-2.4,5.9-5.5Z"/>
        <path class="st8" d="M1253.1,1768.4h-5.2v-11.2c0-4.1-1.8-6.3-4.9-6.3s-5.7,1.7-5.7,6.5v8.8h2.6v2.2h-7.8v-2.2h2.6v-15.1h-2.6v-2.2h5l.2,3.3c1.1-2.1,3.2-3.7,6.3-3.7,4.6,0,7,3.2,7,8.7v9.1h2.6v2.2Z"/>
        <path class="st8" d="M1276.8,1768.4h-5.2v-11.2c0-4.1-1.8-6.3-4.9-6.3s-5.7,1.7-5.7,6.5v8.8h2.6v2.2h-7.8v-2.2h2.6v-15.1h-2.6v-2.2h5l.2,3.3c1.1-2.1,3.2-3.7,6.3-3.7,4.6,0,7,3.2,7,8.7v9.1h2.6v2.2Z"/>
        <path class="st8" d="M1277.1,1746.4l1.8-7.2h2.8l-2.7,7.2h-1.9Z"/>
        <path class="st8" d="M1285,1762.7v3.5c1.7.5,3.3.6,5,.6,3.1,0,4.8-1.1,4.8-3.4s-1-2.8-4-3.5l-2.8-.7c-3.8-1-5.4-2.5-5.4-5.3,0-4.2,3.9-5.4,7.4-5.4s5.3.8,6.6,1.4v5h-2.3v-3.6c-1.3-.4-2.6-.7-4.3-.7-2.6,0-4.9.7-4.9,3s.6,2.4,3.7,3.2l2.8.7c3.6.9,5.6,2.3,5.6,5.5s-3.1,5.9-7.2,5.9-5.1-.3-7.3-1.2v-5h2.3Z"/>
        <path class="st8" d="M1319.5,1766.5c2.1,0,4.3-.7,5.4-1.8l1.4,1.8c-1.8,1.5-4,2.4-7.1,2.4-5.6,0-9.6-3.5-9.6-10.3s4.2-10.1,9.2-10.1,4.9.7,6.3,1.9v5.5h-2.4v-4.2c-1-.6-2.3-.9-3.7-.9-3.7,0-6.5,2.5-6.5,7.7s3,7.9,7,7.9Z"/>
        <path class="st8" d="M1338.4,1748.5c5.6,0,9.2,4,9.2,10.1s-3.6,10.3-9.2,10.3-9.3-4.2-9.3-10.3,3.6-10.1,9.3-10.1ZM1338.4,1750.8c-4.2,0-6.5,3.2-6.5,7.7s2.3,8,6.5,8,6.5-3.5,6.5-8-2.3-7.7-6.5-7.7Z"/>
        <path class="st8" d="M1372,1768.4h-5.2v-11.2c0-4.1-1.8-6.3-4.9-6.3s-5.7,1.7-5.7,6.5v8.8h2.6v2.2h-7.8v-2.2h2.6v-15.1h-2.6v-2.2h5l.2,3.3c1.1-2.1,3.2-3.7,6.3-3.7,4.6,0,7,3.2,7,8.7v9.1h2.6v2.2Z"/>
        <path class="st8" d="M1377.4,1762.7v3.5c1.7.5,3.3.6,5,.6,3.1,0,4.8-1.1,4.8-3.4s-1-2.8-4-3.5l-2.8-.7c-3.8-1-5.4-2.5-5.4-5.3,0-4.2,3.9-5.4,7.4-5.4s5.3.8,6.6,1.4v5h-2.3v-3.6c-1.3-.4-2.6-.7-4.3-.7-2.6,0-4.9.7-4.9,3s.6,2.4,3.7,3.2l2.8.7c3.6.9,5.6,2.3,5.6,5.5s-3.1,5.9-7.2,5.9-5.1-.3-7.3-1.2v-5h2.3Z"/>
        <path class="st8" d="M1392.4,1748.9h3.2v-4.7h2.6v4.7h4.8v2.2h-4.8v11.7c0,2.8,1.2,3.7,2.8,3.7s1.5-.1,2.4-.4l.3,2.1c-1.1.3-1.8.5-2.9.5-3.5,0-5.3-1.8-5.3-6.2v-11.5h-3.2v-2.2Z"/>
        <path class="st8" d="M1423.6,1768.4h-4.8l-.2-2.7c-1.3,1.9-3.4,3.2-6.4,3.2-4.3,0-6.2-2.7-6.2-5.9s2.2-5.8,7.8-5.8h4.7v-1.9c0-2.8-1.7-4.6-4.9-4.6s-3.1.2-4.1.5v3.2h-2.3v-4.7c1.4-.7,3.8-1.2,6.5-1.2,4.9,0,7.5,2.3,7.5,6.8v11h2.5v2.2ZM1418.5,1761v-1.9h-4.6c-3.5,0-5.2,1.4-5.2,3.8s1.2,3.7,3.9,3.7,5.9-2.4,5.9-5.5Z"/>
        <path class="st8" d="M1447.3,1768.4h-5.2v-11.2c0-4.1-1.8-6.3-4.9-6.3s-5.7,1.7-5.7,6.5v8.8h2.6v2.2h-7.8v-2.2h2.6v-15.1h-2.6v-2.2h5l.2,3.3c1.1-2.1,3.2-3.7,6.3-3.7,4.6,0,7,3.2,7,8.7v9.1h2.6v2.2Z"/>
        <path class="st8" d="M1449.1,1748.9h3.2v-4.7h2.6v4.7h4.8v2.2h-4.8v11.7c0,2.8,1.2,3.7,2.8,3.7s1.5-.1,2.4-.4l.3,2.1c-1.1.3-1.8.5-2.9.5-3.5,0-5.3-1.8-5.3-6.2v-11.5h-3.2v-2.2Z"/>
      </g>
    </g>
  </g>
  <path id="Pfad_193" class="st0" d="M865.8,1081.3l78.1,112.8,2.1,3,4.1,5.9,2.7,4,130.4,188.5s74.8.4,74.4,0"/>
  <g id="Gruppe_68">
    <g class="st10">
      <g id="Gruppe_67">
        <path id="Pfad_187" class="st8" d="M840.4,1747.9v-8.3h18.6v21.5c-2.3,2.1-5,3.9-8,5.1-4.1,1.6-8.4,2.3-12.8,2.2-5.1.1-10.1-1.1-14.6-3.6-4-2.3-7.2-5.7-9.3-9.7-2.2-4.2-3.3-8.9-3.3-13.6,0-3.6.6-7.3,1.9-10.7,1.2-3.2,3.1-6.2,5.5-8.8,2.4-2.5,5.3-4.5,8.4-5.9,3.4-1.5,7.1-2.2,10.8-2.1,4.5-.2,8.9.9,12.8,3,3.2,1.9,6,4.4,8.2,7.4l-6.9,6.1c-1.5-2.3-3.5-4.2-5.8-5.8-2.5-1.5-5.4-2.3-8.3-2.2-3.1,0-6.2.8-8.8,2.6-2.5,1.7-4.4,4.1-5.7,6.8-1.3,2.9-2,6-2,9.2,0,3.4.7,6.7,2.4,9.6,3,5.4,8.7,8.7,14.9,8.6,4,.3,7.9-1,11.1-3.4v-8.1h-9.3Z"/>
      </g>
    </g>
  </g>
  <g id="Gruppe_70">
    <g class="st3">
      <g id="Gruppe_69">
        <path id="Pfad_188" class="st8" d="M952.8,872.7l5.8,6.3c-1.8,2-4.1,3.5-6.5,4.6-2.7,1.2-5.7,1.8-8.7,1.7-3.9.1-7.8-.8-11.3-2.6-3-1.7-5.5-4.2-7.1-7.3-1.7-3.4-2.5-7.1-2.4-10.8,0-3.6.9-7.2,2.7-10.4,1.7-3.1,4.3-5.7,7.3-7.5,3.3-1.9,7.1-2.9,10.9-2.8,3,0,5.9.5,8.6,1.7,2.5,1.1,4.8,2.6,6.6,4.6l-6.2,6.3c-1-1.3-2.4-2.3-3.9-3-1.6-.7-3.4-1.1-5.2-1.1-2.2,0-4.4.5-6.2,1.7-1.6,1.1-2.9,2.7-3.6,4.5-.8,1.9-1.2,3.9-1.2,5.9,0,2,.4,3.9,1.2,5.7.8,1.8,2,3.4,3.6,4.6,1.8,1.3,4,1.9,6.2,1.8,1.8,0,3.7-.4,5.3-1.1,1.6-.7,2.9-1.7,4-3"/>
        <rect id="Rechteck_83" class="st8" x="963.7" y="840.3" width="14.7" height="5.4"/>
        <path id="Pfad_189" class="st8" d="M983.2,856.5v-5h5.2v-19.2l-5.8,3.1-2.4-4.4,8.9-4.9h5v25.5h5v5h-15.9Z"/>
      </g>
    </g>
  </g>
  <g id="Gruppe_72">
    <g class="st6">
      <g id="Gruppe_71">
        <path id="Pfad_190" class="st8" d="M1400.6,805.4v-59.6h10.4v22c1.4-1.4,3-2.6,4.7-3.5,2.4-1.2,5.1-1.8,7.9-1.7,4.5-.3,8.9,1.5,11.9,4.8,2.9,3.5,4.4,8,4.2,12.5v25.5h-10.6v-25.4c.1-2.3-.7-4.5-2.2-6.2-1.5-1.5-3.6-2.3-5.7-2.2-2.8,0-5.4,1.1-7.2,3.2-1.9,2.2-2.9,5-2.9,7.9v22.7h-10.6Z"/>
      </g>
    </g>
  </g>
  <g id="Gruppe_75">
    <path id="Pfad_191" class="st8" d="M206.6,745.8v59.8h10.6v-14.9l4.6-4.5,12.2,19.4h12.6l-17.6-26.5,15.8-15.5h-12.5l-15.1,14.9v-32.6h-10.6Z"/>
    <g id="Gruppe_74">
      <g class="st4">
        <g id="Gruppe_73">
          <path id="Pfad_192" class="st8" d="M250.9,821.3v-34.8h12c2.1,0,4.3.3,6.2,1.2,1.6.7,2.9,1.8,3.8,3.3.9,1.4,1.3,3,1.3,4.6,0,1.1-.2,2.2-.7,3.2-.4.8-.9,1.6-1.6,2.2-.6.5-1.2,1-1.9,1.3-.4.3-.9.4-1.4.5.8.1,1.5.3,2.2.6.9.3,1.7.8,2.4,1.5.8.7,1.5,1.6,1.9,2.6.5,1.2.8,2.6.8,3.9.1,2.1-.5,4.2-1.7,5.9-1.2,1.5-2.8,2.6-4.6,3.1-2.2.7-4.4,1-6.7.9h-12ZM257.2,800.3h5.3c1.3,0,2.5-.3,3.6-.9,1.1-.7,1.8-2,1.6-3.3,0-.9-.2-1.8-.8-2.5-.6-.6-1.2-1-2-1.2-.8-.2-1.6-.4-2.5-.4h-5.3v8.3ZM257.2,815.7h5.6c.7,0,1.4,0,2.1-.1.7,0,1.5-.3,2.1-.6.7-.3,1.3-.8,1.7-1.5.5-.8.7-1.7.7-2.7,0-1.2-.3-2.3-1.1-3.2-.7-.7-1.6-1.2-2.6-1.5-.9-.3-1.9-.4-2.9-.4h-5.6v9.9Z"/>
        </g>
      </g>
    </g>
  </g>
  <g id="Gruppe_86">
    <g id="Linie_181">
      <path class="st9" d="M891.1,1031.3c-.5,0-1-.3-1.2-.7-.4-.7,0-1.5.6-1.9l295.7-156.4c.7-.4,1.5-.1,1.9.6.4.7,0,1.5-.6,1.9l-295.7,156.4c-.2.1-.4.2-.6.2Z"/>
    </g>
    <g id="Linie_182">
      <path class="st9" d="M861.5,1047c-.5,0-1-.3-1.2-.7-.4-.7,0-1.5.6-1.9l24.1-12.7c.7-.4,1.5-.1,1.9.6.4.7,0,1.5-.6,1.9l-24.1,12.7c-.2.1-.4.2-.6.2Z"/>
    </g>
    <g id="Linie_183">
      <path class="st9" d="M887.9,1025.9c-.5,0-1-.3-1.2-.7-.4-.7,0-1.5.6-1.9l431.8-228.3c.7-.4,1.5-.1,1.9.6.4.7,0,1.5-.6,1.9l-431.8,228.3c-.2.1-.4.2-.6.2Z"/>
    </g>
    <g id="Linie_184">
      <path class="st9" d="M858.6,1041.4c-.5,0-1-.3-1.2-.7-.4-.7,0-1.5.6-1.9l23.8-12.6c.7-.4,1.5-.1,1.9.6.4.7,0,1.5-.6,1.9l-23.8,12.6c-.2.1-.4.2-.6.2Z"/>
    </g>
    <g id="Linie_185">
      <path class="st9" d="M850.2,1046.7c-.2,0-.4,0-.6-.1l-8.8-4.3c-.7-.3-1-1.2-.6-1.9.3-.7,1.2-1,1.9-.6l8.8,4.3c.7.3,1,1.2.6,1.9-.2.5-.7.8-1.2.8Z"/>
    </g>
    <g id="Linie_186">
      <path class="st9" d="M835.3,1039.4c-.2,0-.4,0-.6-.1l-32-15.7c-.7-.3-1-1.2-.6-1.9.3-.7,1.2-1,1.9-.6l32,15.7c.7.3,1,1.2.6,1.9-.2.5-.7.8-1.2.8Z"/>
    </g>
    <g id="Linie_187">
      <path class="st9" d="M797.6,1021c-.2,0-.4,0-.6-.1l-392.9-192.2c-.7-.3-1-1.2-.6-1.9.3-.7,1.2-1,1.9-.6l392.9,192.2c.7.3,1,1.2.6,1.9-.2.5-.7.8-1.2.8Z"/>
    </g>
    <g id="Linie_188">
      <path class="st9" d="M852.2,1040.8c-.2,0-.4,0-.6-.1l-10.6-5.2c-.7-.3-1-1.2-.6-1.9.3-.7,1.2-1,1.9-.6l10.6,5.2c.7.3,1,1.2.6,1.9-.2.5-.7.8-1.2.8Z"/>
    </g>
    <g id="Linie_189">
      <path class="st9" d="M835.5,1032.6c-.2,0-.4,0-.6-.1l-29.1-14.3c-.7-.3-1-1.2-.6-1.9.3-.7,1.2-1,1.9-.6l29.1,14.3c.7.3,1,1.2.6,1.9-.2.5-.7.8-1.2.8Z"/>
    </g>
    <g id="Linie_190">
      <path class="st9" d="M800.7,1015.6c-.2,0-.4,0-.6-.1l-444-217.2c-.7-.3-1-1.2-.6-1.9.3-.7,1.2-1,1.9-.6l444,217.2c.7.3,1,1.2.6,1.9-.2.5-.7.8-1.2.8Z"/>
    </g>
    <g id="Linie_191">
      <path class="st9" d="M789.4,1047.7c-.2,0-.5,0-.7-.2-.7-.4-.9-1.2-.5-1.9l48.4-83.8c.4-.7,1.2-.9,1.9-.5.7.4.9,1.2.5,1.9l-48.4,83.8c-.3.4-.7.7-1.2.7Z"/>
    </g>
    <g id="Linie_192">
      <path class="st9" d="M745.8,1123.2c-.2,0-.5,0-.7-.2-.7-.4-.9-1.2-.5-1.9l40.5-70.1c.4-.7,1.2-.9,1.9-.5.7.4.9,1.2.5,1.9l-40.5,70.1c-.3.4-.7.7-1.2.7Z"/>
    </g>
    <g id="Pfad_213">
      <path class="st9" d="M784,1044.6c-.2,0-.5,0-.7-.2-.7-.4-.9-1.2-.5-1.9l51.9-89.8-491-158.4c-.7-.2-1.1-1-.9-1.7s1-1.1,1.7-.9l492.6,158.9c.4.1.7.4.9.8.1.4.1.8,0,1.2l-52.8,91.3c-.3.4-.7.7-1.2.7Z"/>
    </g>
    <g id="Linie_193">
      <path class="st9" d="M834.1,1073.1s0,0,0,0c-.8,0-1.4-.7-1.3-1.4l4.1-119.7c0-.8.6-1.3,1.4-1.3s0,0,0,0c.8,0,1.4.7,1.3,1.4l-4.1,119.7c0,.8-.6,1.3-1.4,1.3Z"/>
    </g>
    <g id="Linie_194">
      <path class="st9" d="M840.3,1072.9s0,0,0,0c-.8,0-1.4-.7-1.3-1.4l4.1-119.3c0-.8.6-1.3,1.4-1.3s0,0,0,0c.8,0,1.4.7,1.3,1.4l-4.1,119.3c0,.8-.6,1.3-1.4,1.3Z"/>
    </g>
    <g id="Linie_195">
      <path class="st9" d="M948,1132.8c-.4,0-.8-.2-1.1-.5-.5-.6-.4-1.5.2-2l394-335.6c.6-.5,1.5-.4,2,.2.5.6.4,1.5-.2,2l-394,335.6c-.3.2-.6.3-.9.3Z"/>
    </g>
    <g id="Linie_196">
      <path class="st9" d="M841.4,948.2c-.6,0-1.1-.4-1.3-1-.2-.7.2-1.5.9-1.8l492.9-161.9c.7-.2,1.5.2,1.8.9.2.7-.2,1.5-.9,1.8l-492.9,161.9c-.1,0-.3,0-.4,0Z"/>
    </g>
    <g id="Linie_197">
      <path class="st9" d="M828.9,1663.6c-.7,0-1.2-.5-1.4-1.1l-94-531c-.1-.8.4-1.5,1.1-1.6.7-.1,1.5.4,1.6,1.1l94,531c.1.8-.4,1.5-1.1,1.6,0,0-.2,0-.2,0Z"/>
    </g>
    <g id="Pfad_214">
      <path class="st9" d="M838.2,1648.6c0,0-.2,0-.3,0-.8-.2-1.2-.9-1.1-1.6l102.8-512.7h-99.7c-.8,0-1.4-.7-1.4-1.5s.6-1.4,1.4-1.4h101.4c.4,0,.8.3,1.1.6.3.3.4.7.3,1.2l-103.1,514.3c-.1.7-.7,1.1-1.4,1.1Z"/>
    </g>
    <g id="Pfad_215">
      <path class="st9" d="M832,1645.7c-.7,0-1.2-.5-1.4-1.1l-90.6-511.6c0-.4,0-.8.3-1.1.3-.3.7-.5,1.1-.5h92.3c.8,0,1.4.7,1.4,1.5s-.6,1.4-1.4,1.4h-90.7c0,0,90.3,509.9,90.3,509.9.1.8-.4,1.5-1.1,1.6,0,0-.2,0-.2,0Z"/>
    </g>
    <g id="Linie_198">
      <path class="st9" d="M931.7,1128h-91.7c-.8,0-1.4-.7-1.4-1.5s.6-1.4,1.4-1.4h91.7c.8,0,1.4.7,1.4,1.5s-.6,1.4-1.4,1.4Z"/>
    </g>
    <g id="Linie_199">
      <path class="st9" d="M833.8,1128h-83.6c-.8,0-1.4-.7-1.4-1.5s.6-1.4,1.4-1.4h83.6c.8,0,1.4.7,1.4,1.5s-.6,1.4-1.4,1.4Z"/>
    </g>
    <g id="Linie_200">
      <path class="st9" d="M858.8,1062.3s0,0,0,0c-.8,0-1.4-.7-1.3-1.4l.3-9.1c0-.8.6-1.3,1.4-1.3s0,0,0,0c.8,0,1.4.7,1.3,1.4l-.3,9.1c0,.8-.6,1.3-1.4,1.3Z"/>
    </g>
    <g id="Linie_201">
      <path class="st9" d="M858,1085.2s0,0,0,0c-.8,0-1.4-.7-1.3-1.4l.5-15.5c0-.8.6-1.4,1.4-1.3.8,0,1.4.7,1.3,1.4l-.5,15.5c0,.8-.6,1.3-1.4,1.3Z"/>
    </g>
    <g id="Linie_202">
      <path class="st9" d="M856.6,1128s0,0,0,0c-.8,0-1.4-.7-1.3-1.4l1.2-36c0-.8.5-1.4,1.4-1.3.8,0,1.4.7,1.3,1.4l-1.2,36c0,.8-.6,1.3-1.4,1.3Z"/>
    </g>
    <g id="Linie_203">
      <path class="st9" d="M839.4,1642.9h0c-.8,0-1.4-.7-1.3-1.4l17-508.6c0-.8.6-1.4,1.4-1.3.8,0,1.4.7,1.3,1.4l-17,508.6c0,.8-.6,1.3-1.4,1.3Z"/>
    </g>
    <g id="Linie_204">
      <path class="st9" d="M852.5,1066s0,0,0,0c-.8,0-1.4-.7-1.3-1.4l.5-13.6c0-.8.6-1.4,1.4-1.3.8,0,1.4.7,1.3,1.4l-.5,13.6c0,.8-.6,1.3-1.4,1.3Z"/>
    </g>
    <g id="Linie_205">
      <path class="st9" d="M851.9,1082.2s0,0,0,0c-.8,0-1.4-.7-1.3-1.4l.3-8.9c0-.8.6-1.3,1.4-1.3s0,0,0,0c.8,0,1.4.7,1.3,1.4l-.3,8.9c0,.8-.6,1.3-1.4,1.3Z"/>
    </g>
    <g id="Linie_206">
      <path class="st9" d="M850.4,1128s0,0,0,0c-.8,0-1.4-.7-1.3-1.4l1.3-39c0-.8.6-1.4,1.4-1.3.8,0,1.4.7,1.3,1.4l-1.3,39c0,.8-.6,1.3-1.4,1.3Z"/>
    </g>
    <g id="Linie_207">
      <path class="st9" d="M838.8,1473.4s0,0,0,0c-.8,0-1.4-.7-1.3-1.4l11.3-339.2c0-.8.6-1.4,1.4-1.3.8,0,1.4.7,1.3,1.4l-11.3,339.2c0,.8-.6,1.3-1.4,1.3Z"/>
    </g>
    <g id="Pfad_216">
      <path class="st9" d="M896.5,1040.8c-.5,0-.9-.2-1.2-.7l-50.5-87.5c-.2-.4-.2-.8,0-1.2s.5-.7.9-.8l479.4-157.5c.7-.2,1.5.2,1.8.9.2.7-.2,1.5-.9,1.8l-477.8,157,49.7,86c.4.7.2,1.5-.5,1.9-.2.1-.5.2-.7.2Z"/>
    </g>
    <g id="Pfad_217">
      <path class="st9" d="M946,1126.4c0,0-.2,0-.2,0-.4,0-.8-.3-1-.7l-46.3-80.2c-.4-.7-.2-1.5.5-1.9.7-.4,1.5-.2,1.9.5l45.5,78.7,379.1-322.9c.6-.5,1.5-.4,2,.2.5.6.4,1.5-.2,2l-380.3,324c-.3.2-.6.3-.9.3Z"/>
    </g>
    <g id="Linie_208">
      <path class="st9" d="M891.1,1043.9c-.5,0-.9-.2-1.2-.7l-47-81.4c-.4-.7-.2-1.5.5-1.9.7-.4,1.5-.2,1.9.5l47,81.4c.4.7.2,1.5-.5,1.9-.2.1-.5.2-.7.2Z"/>
    </g>
    <g id="Linie_209">
      <path class="st9" d="M937.3,1123.9c-.5,0-.9-.2-1.2-.7l-43.1-74.6c-.4-.7-.2-1.5.5-1.9.7-.4,1.5-.2,1.9.5l43.1,74.6c.4.7.2,1.5-.5,1.9-.2.1-.5.2-.7.2Z"/>
    </g>
    <g id="Linie_210">
      <path class="st9" d="M928.5,1119.6c-.3,0-.7-.1-1-.4l-58.9-56.2c-.6-.5-.6-1.4,0-2,.5-.6,1.4-.6,2,0l58.9,56.2c.6.5.6,1.4,0,2-.3.3-.6.4-1,.4Z"/>
    </g>
    <g id="Linie_211">
      <path class="st9" d="M864.9,1058.8c-.3,0-.7-.1-1-.4l-9-8.6c-.6-.5-.6-1.4,0-2,.5-.6,1.4-.6,2,0l9,8.6c.6.5.6,1.4,0,2-.3.3-.6.4-1,.4Z"/>
    </g>
    <g id="Linie_212">
      <path class="st9" d="M931.6,1113.9c-.3,0-.7-.1-1-.4l-56.3-53.8c-.6-.5-.6-1.4,0-2,.5-.6,1.4-.6,2,0l56.3,53.8c.6.5.6,1.4,0,2-.3.3-.6.4-1,.4Z"/>
    </g>
    <g id="Pfad_218">
      <path class="st9" d="M870.6,1055.6c-.3,0-.7-.1-1-.4l-11.5-11c-.2-.2-.3-.5-.4-.7v-.7c-.1,0-12.1-76.5-12.1-76.5-.1-.8.4-1.5,1.2-1.6.7-.1,1.5.4,1.6,1.2l12,76.7.6.6,10.5,10.1c.6.5.6,1.4,0,2-.3.3-.6.4-1,.4Z"/>
    </g>
    <g id="Linie_213">
      <path class="st9" d="M734.8,1132.7c-.3,0-.6-.1-.9-.3l-407.1-337.1c-.6-.5-.7-1.4-.2-2,.5-.6,1.4-.7,2-.2l407.1,337.1c.6.5.7,1.4.2,2-.3.3-.7.5-1.1.5Z"/>
    </g>
    <g id="Pfad_219">
      <path class="st9" d="M736.8,1126.2c-.3,0-.6-.1-.9-.3l-391.1-323.8c-.6-.5-.7-1.4-.2-2,.5-.6,1.4-.7,2-.2l389.8,322.8,43.2-74.8c.4-.7,1.2-.9,1.9-.5.7.4.9,1.2.5,1.9l-44.1,76.3c-.2.4-.6.6-1,.7,0,0-.2,0-.2,0Z"/>
    </g>
    <g id="Linie_214">
      <path class="st9" d="M841.8,1662.6c0,0-.2,0-.3,0-.8-.2-1.2-.9-1.1-1.6l106.2-529.7c.2-.8.9-1.2,1.6-1.1.8.2,1.2.9,1.1,1.6l-106.2,529.7c-.1.7-.7,1.1-1.4,1.1Z"/>
    </g>
    <g id="Linie_215">
      <path class="st9" d="M747.6,1120.1c-.4,0-.9-.2-1.1-.6-.4-.6-.3-1.5.3-1.9l69.4-49.6c.6-.4,1.5-.3,1.9.3.4.6.3,1.5-.3,1.9l-69.4,49.6c-.2.2-.5.3-.8.3Z"/>
    </g>
    <g id="Linie_216">
      <path class="st9" d="M822.5,1066.5c-.4,0-.9-.2-1.1-.6-.4-.6-.3-1.5.3-1.9l12.1-8.7c.6-.4,1.5-.3,1.9.3.4.6.3,1.5-.3,1.9l-12.1,8.7c-.2.2-.5.3-.8.3Z"/>
    </g>
    <g id="Pfad_220">
      <path class="st9" d="M841,1053.3c-.4,0-.9-.2-1.1-.6-.4-.6-.3-1.5.3-1.9l11.1-8-9.3-59.6c-.1-.8.4-1.5,1.2-1.6.7-.1,1.5.4,1.6,1.2l9.5,60.5c0,.5-.1,1-.6,1.3l-11.8,8.5c-.2.2-.5.3-.8.3Z"/>
    </g>
    <g id="Linie_217">
      <path class="st9" d="M777.3,1106.5c-.4,0-.9-.2-1.1-.6-.4-.6-.3-1.5.3-1.9l45.6-32.6c.6-.4,1.5-.3,1.9.3.4.6.3,1.5-.3,1.9l-45.6,32.6c-.2.2-.5.3-.8.3Z"/>
    </g>
    <g id="Linie_218">
      <path class="st9" d="M828.5,1069.9c-.4,0-.9-.2-1.1-.6-.4-.6-.3-1.5.3-1.9l5.9-4.2c.6-.4,1.5-.3,1.9.3.4.6.3,1.5-.3,1.9l-5.9,4.2c-.2.2-.5.3-.8.3Z"/>
    </g>
    <g id="Linie_219">
      <path class="st9" d="M840.7,1061.1c-.4,0-.9-.2-1.1-.6-.4-.6-.3-1.5.3-1.9l15.2-10.9c.6-.4,1.5-.3,1.9.3.4.6.3,1.5-.3,1.9l-15.2,10.9c-.2.2-.5.3-.8.3Z"/>
    </g>
    <g id="Linie_220">
      <path class="st9" d="M942,1133.1c-.2,0-.4,0-.6-.1l-101.9-49.8c-.7-.3-1-1.2-.6-1.9.3-.7,1.2-1,1.9-.6l101.9,49.8c.7.3,1,1.2.6,1.9-.2.5-.7.8-1.2.8Z"/>
    </g>
    <g id="Linie_221">
      <path class="st9" d="M944.7,1127.5c-.2,0-.4,0-.6-.1l-101-49.3c-.7-.3-1-1.2-.6-1.9.3-.7,1.2-1,1.9-.6l101,49.3c.7.3,1,1.2.6,1.9-.2.5-.7.8-1.2.8Z"/>
    </g>
    <g id="Linie_222">
      <path class="st9" d="M740.7,1132.9c-.5,0-1-.3-1.2-.7-.4-.7-.1-1.5.6-1.9l93.2-49.4c.7-.4,1.5-.1,1.9.6.4.7.1,1.5-.6,1.9l-93.2,49.4c-.2.1-.4.2-.7.2Z"/>
    </g>
    <g id="Linie_223">
      <path class="st9" d="M737.8,1127.4c-.5,0-1-.3-1.2-.7-.4-.7-.1-1.5.6-1.9l92.8-49.1c.7-.4,1.5-.1,1.9.6.4.7.1,1.5-.6,1.9l-92.8,49.1c-.2.1-.4.2-.7.2Z"/>
    </g>
    <g id="Linie_224">
      <path class="st9" d="M841.4,948.2c-.1,0-.3,0-.4,0l-505.2-163c-.7-.2-1.1-1-.9-1.7s1-1.1,1.7-.9l505.2,163c.7.2,1.1,1,.9,1.7-.2.6-.7,1-1.3,1Z"/>
    </g>
    <g id="Gruppe_83">
      <g class="st5">
        <g id="Gruppe_82">
          <g id="Pfad_221">
            <path class="st9" d="M837.7,1682.1h-5.4c-.5,0-1-.3-1.2-.7L314,785.8c-.2-.4-.2-.8,0-1.2l3.2-7.5c.2-.5.7-.8,1.3-.8h0l1031.6,1.1c.4,0,.9.2,1.1.6l5,6.8c.3.4.4,1,0,1.5l-517.5,895.2c-.2.4-.7.7-1.2.7ZM833.1,1679.3h3.8l516.6-893.7-4.1-5.5-1030-1.1-2.6,6,516.3,894.3Z"/>
          </g>
        </g>
      </g>
    </g>
    <g id="Pfad_222">
      <path class="st9" d="M837.2,1074.7c-.1,0-.2,0-.4,0-.2,0-.5,0-.7-.2l-508.7-289.4c-.5-.3-.8-1-.7-1.6.2-.6.7-1,1.3-1h0l1013.9,1.1c.6,0,1.2.4,1.3,1,.2.6-.1,1.2-.7,1.6l-504.8,288.4c-.2.1-.5.2-.7.2ZM333.4,785.2l503.7,286.6,499.7-285.5-1003.4-1.1Z"/>
    </g>
    <g id="Pfad_223">
      <path class="st9" d="M838.2,1668.8c-.1,0-.2,0-.4,0-.6-.2-1-.7-1-1.3l2-588.5c0-.5.3-1.1.7-1.4l505.1-288.6c.5-.3,1.2-.2,1.7.2.4.4.5,1.1.2,1.7l-507.1,877.2c-.3.4-.7.7-1.2.7ZM841.5,1079.6l-2,582.6,501.9-868.2-499.9,285.6Z"/>
    </g>
    <g id="Gruppe_85">
      <g class="st7">
        <g id="Gruppe_84">
          <g id="Pfad_224">
            <path class="st9" d="M831.9,1669c-.5,0-.9-.3-1.2-.7l-507.2-878.5c-.3-.5-.2-1.2.2-1.7s1.1-.5,1.7-.2l509.2,289.7c.4.2.7.7.7,1.2l-2,588.8c0,.6-.4,1.2-1,1.3-.1,0-.2,0-.4,0ZM328.5,792.8l502,869.6,2-582.8-504-286.8Z"/>
          </g>
        </g>
      </g>
    </g>
  </g>
  <g id="Gruppe_89">
    <g id="Bring_Physics_to_Light_" class="st2">
      <g class="st2">
        <path class="st9" d="M254.4,414.8c0,14.9-10.7,23.6-27.5,23.6h-36.1v-81.7h35.8c15.1,0,25,7.2,25,21.2s-3.5,13.1-10.2,16.5c8.8,2.9,13,10.9,13,20.4ZM224.4,372.5h-16.9v16.5h17.4c6.9,0,9.9-2.8,9.9-8.3s-3.4-8.2-10.4-8.2ZM237.4,413.4c0-6-2.5-9.1-11.1-9.1h-18.9v18.2h19c8.5,0,11-3.6,11-9.1Z"/>
        <path class="st9" d="M305.9,373v17.2c-1.3-.1-2.2-.2-4.1-.2-10.6,0-19.7,4.7-19.7,19.8v28.6h-16.7v-64.2h16.7v11.2c4-8.4,11-12.6,20.1-12.6s2.7.1,3.7.2Z"/>
        <path class="st9" d="M333.8,354.3c0,5.7-4.3,9.9-10.4,9.9s-10.4-4.2-10.4-9.9,4.6-9.8,10.4-9.8,10.4,4.1,10.4,9.8ZM315,374.2h16.7v64.2h-16.7v-64.2Z"/>
        <path class="st9" d="M405,398.1v40.3h-16.7v-36.6c0-8.4-3.2-13.1-12-13.1s-14.5,5.5-14.5,16v33.7h-16.7v-64.2h16.7v8.8c4.7-6.5,11.1-10.2,20-10.2,14.5,0,23.2,9.6,23.2,25.3Z"/>
        <path class="st9" d="M482.4,374.2v63.4c0,19-12.4,31.4-31.7,31.4s-30.1-7.8-32.6-24.6h17.3c1.9,7.2,7.9,9.8,14.8,9.8,10.2,0,15.5-5.3,15.5-16.1v-9.2c-4.6,6.1-11.2,10-20.2,10-16.8,0-29.3-13.8-29.3-33s12.7-33,29.3-33,15.8,4.1,20.2,10.3v-8.9h16.7ZM465.7,405.8c0-10-7.1-17.2-16.5-17.2s-16.2,7.1-16.2,17.2,7,17.2,16.2,17.2,16.5-7,16.5-17.2Z"/>
        <path class="st9" d="M596.3,384.1c0,17.2-11.6,27.9-29.1,27.9h-17.6v26.4h-16.7v-81.7h34.3c17.5,0,29.1,10.3,29.1,27.4ZM579.3,384.3c0-7.2-4.2-11.8-12.8-11.8h-16.9v23.6h16.9c8.6,0,12.8-4.7,12.8-11.8Z"/>
        <path class="st9" d="M668,398.1v40.3h-16.7v-36.6c0-8.4-3.3-13.1-12-13.1s-14.4,5.5-14.4,16v33.7h-16.7v-89.9h16.7v34.4c4.7-6.5,11.1-10.2,20-10.2,14.4,0,23.1,9.6,23.1,25.3Z"/>
        <path class="st9" d="M744.1,374.2l-41.8,93.4h-17.7l16.8-37.7-24.7-55.7h17.7l15.9,37.6,16-37.6h17.9Z"/>
        <path class="st9" d="M748.1,417.2h16.9c1.3,5.1,5.1,8.6,15.5,8.6s10.9-1.8,10.9-5.3-5-4.7-14.7-7c-18.2-4.3-25.7-8.4-25.7-19.5s11.2-21.4,28.1-21.4,26.6,8.6,28.8,20.5h-16.9c-1.3-4.1-4.8-6.5-12.5-6.5s-10.7,1.9-10.7,5.4,2.9,3.6,12.3,5.7c18.3,4.2,28.6,7.7,28.6,20.5s-12.7,21.4-28.6,21.4-29.6-8.4-32-22.5Z"/>
        <path class="st9" d="M838.3,354.3c0,5.7-4.3,9.9-10.4,9.9s-10.4-4.2-10.4-9.9,4.6-9.8,10.4-9.8,10.4,4.1,10.4,9.8ZM819.5,374.2h16.7v64.2h-16.7v-64.2Z"/>
        <path class="st9" d="M848.1,406.3c0-19,14.1-33.5,33.5-33.5s29.5,9.5,32,25.8h-17.2c-2-7-8.1-10.4-14.8-10.4-10.2,0-16.7,7.5-16.6,18.1-.1,10.7,6.7,18.1,16.5,18.1s13-3.5,14.9-10.5h17.2c-2.6,16.9-16.7,25.9-32.1,25.9s-33.4-14.5-33.4-33.5Z"/>
        <path class="st9" d="M921.8,417.2h16.9c1.3,5.1,5.1,8.6,15.5,8.6s10.9-1.8,10.9-5.3-5-4.7-14.7-7c-18.2-4.3-25.7-8.4-25.7-19.5s11.2-21.4,28.1-21.4,26.6,8.6,28.8,20.5h-16.9c-1.3-4.1-4.8-6.5-12.5-6.5s-10.7,1.9-10.7,5.4,2.9,3.6,12.3,5.7c18.3,4.2,28.6,7.7,28.6,20.5s-12.7,21.4-28.6,21.4-29.6-8.4-32-22.5Z"/>
        <path class="st9" d="M1078.8,434.6c-3.5,2.3-11.4,5.1-19.1,5.1-12.8,0-24-7.7-24-26.1v-23.7h-11.4v-15.8h11.4v-13.9l16.7-3.6v17.5h23.8v15.8h-23.8v22.8c0,7.6,3.6,11.6,10.3,11.6s8.2-1.3,13.4-3.2l2.8,13.5Z"/>
        <path class="st9" d="M1151.7,406.3c0,19.4-14.7,33.5-33.5,33.5s-33.4-14.2-33.4-33.5,14.9-33.5,33.4-33.5,33.5,14.1,33.5,33.5ZM1101.7,406.3c0,10.6,7.2,17.6,16.6,17.6s16.6-7,16.6-17.6-7.2-17.6-16.6-17.6-16.6,7.1-16.6,17.6Z"/>
        <path class="st9" d="M1252.3,422.5v15.9h-51.7v-81.7h16.7v65.8h35Z"/>
        <path class="st9" d="M1281,354.3c0,5.7-4.3,9.9-10.4,9.9s-10.4-4.2-10.4-9.9,4.6-9.8,10.4-9.8,10.4,4.1,10.4,9.8ZM1262.2,374.2h16.7v64.2h-16.7v-64.2Z"/>
        <path class="st9" d="M1357,374.2v63.4c0,19-12.4,31.4-31.7,31.4s-30.1-7.8-32.6-24.6h17.3c1.9,7.2,7.9,9.8,14.8,9.8,10.2,0,15.5-5.3,15.5-16.1v-9.2c-4.6,6.1-11.2,10-20.2,10-16.8,0-29.3-13.8-29.3-33s12.7-33,29.3-33,15.8,4.1,20.2,10.3v-8.9h16.7ZM1340.3,405.8c0-10-7.1-17.2-16.5-17.2s-16.2,7.1-16.2,17.2,7,17.2,16.2,17.2,16.5-7,16.5-17.2Z"/>
        <path class="st9" d="M1430.6,398.1v40.3h-16.7v-36.6c0-8.4-3.3-13.1-12-13.1s-14.4,5.5-14.4,16v33.7h-16.7v-89.9h16.7v34.4c4.7-6.5,11.1-10.2,20-10.2,14.4,0,23.1,9.6,23.1,25.3Z"/>
        <path class="st9" d="M1493.9,434.6c-3.5,2.3-11.4,5.1-19.1,5.1-12.8,0-24-7.7-24-26.1v-23.7h-11.4v-15.8h11.4v-13.9l16.7-3.6v17.5h23.8v15.8h-23.8v22.8c0,7.6,3.6,11.6,10.3,11.6s8.2-1.3,13.4-3.2l2.8,13.5Z"/>
        <path class="st9" d="M1527.7,429.8c0,5.7-4.6,9.9-10.4,9.9s-10.4-4.2-10.4-9.9,4.4-9.9,10.4-9.9,10.4,4.2,10.4,9.9ZM1525.6,383.7l-1.1,27.3h-14.6l-1-27.3v-27.1h16.7v27.1Z"/>
      </g>
    </g>
    <g id="Discover_16_key_theories_of_physics_through_the_Hexadecachoron_shaped_by_Max_Planck_s_four_fundamental_constants." class="st2">
      <g class="st2">
        <path class="st9" d="M184,524.5h3.1v-24.1h-3.1v-2.5h9.3c10.7,0,15.9,5.8,15.9,14.5s-5.1,14.7-15.8,14.7h-9.3v-2.5ZM190.3,500.4v24.1h3c8.7,0,12.5-4.3,12.5-12.1s-3.6-12-12.5-12h-3Z"/>
        <path class="st9" d="M213.1,506.2h5.8v18.3h2.8v2.5h-8.6v-2.5h2.8v-15.8h-2.8v-2.5ZM217.3,497c1.3,0,2.1.9,2.1,2s-.8,2-2.1,2-2-.9-2-2,.7-2,2-2Z"/>
        <path class="st9" d="M227.9,520.9v3.7c1.8.5,3.5.6,5.3.6,3.2,0,5-1.1,5-3.5s-1.1-2.8-4.2-3.6l-3-.8c-4.1-1.1-5.9-2.7-5.9-5.7,0-4.5,4.2-5.8,8-5.8s5.8.8,7.2,1.6v5.3h-2.6v-3.8c-1.4-.5-2.9-.8-4.6-.8-2.8,0-5.2.7-5.2,3.1s.7,2.4,3.9,3.3l3.1.7c3.9,1,6,2.4,6,6s-3.4,6.3-7.9,6.3-5.5-.3-7.9-1.2v-5.4h2.6Z"/>
        <path class="st9" d="M255.5,524.8c2.2,0,4.5-.8,5.8-2l1.6,2c-1.9,1.7-4.3,2.6-7.6,2.6-6,0-10.3-3.8-10.3-11s4.5-10.8,9.9-10.8,5.3.8,6.8,2v6h-2.8v-4.4c-1-.6-2.3-.9-3.8-.9-3.8,0-6.8,2.7-6.8,8.1s3.1,8.3,7.4,8.3Z"/>
        <path class="st9" d="M275.8,505.7c6,0,9.9,4.3,9.9,10.8s-3.9,11-9.9,11-10-4.5-10-11,3.9-10.8,10-10.8ZM275.8,508.5c-4.4,0-6.8,3.4-6.8,8s2.3,8.3,6.8,8.3,6.7-3.6,6.7-8.3-2.3-8-6.7-8Z"/>
        <path class="st9" d="M297,527l-7.1-18.3h-2.4v-2.5h7.9v2.5h-2.3l5.4,15.1,5.3-15.1h-2.3v-2.5h7.9v2.5h-2.4l-7,18.3h-3Z"/>
        <path class="st9" d="M320.5,505.7c5.6,0,9.2,4.2,9.2,10v1.1h-15.3c0,4.7,2.4,8.1,7.1,8.1s5-1.1,6.3-2.3l1.5,1.9c-1.8,1.8-4.5,3-8.1,3-6,0-10-3.8-10-11s3.5-10.8,9.3-10.8ZM314.5,514.4h12c-.4-3.7-2.5-6.1-6-6.1s-5.5,2.4-6,6.1Z"/>
        <path class="st9" d="M342.7,527h-9.4v-2.5h2.8v-15.7h-2.8v-2.5h5.5l.3,3.5c.8-2,2.4-4.1,5.6-4.1s1.7.1,2.5.5l-.4,2.7c-.9-.2-1.7-.3-2.3-.3-3.3,0-5.3,3-5.3,8.3v7.7h3.6v2.5Z"/>
        <path class="st9" d="M370.9,527h-12.9v-2.5h5v-23.5l-4.7,2-.7-2.5,5.9-2.7h2.7v26.6h4.7v2.5Z"/>
        <path class="st9" d="M374.2,513.2c0-14.1,8-15.8,12.8-15.8s3.9.4,4.6.9v5.4h-2.7v-3.6c-.6-.1-1.2-.2-2-.2-3.6,0-9.3,1.3-9.8,12.6,1.3-2.7,3.7-4.4,7-4.4,4.9,0,8.4,3.8,8.4,9.6s-3,9.9-8.9,9.9-9.6-4.5-9.6-14.3ZM377.6,517c.5,5.7,2.4,8,6.2,8s5.8-3.3,5.8-7.3-2.5-7.3-5.8-7.3-5.5,2.6-6.1,6.5Z"/>
        <path class="st9" d="M414.3,527h-8.6v-2.5h2.8v-24.9h-2.8v-2.5h5.8v17.8l7.9-6.1h-2.6v-2.5h9.4v2.5c.1,0-3,0-3,0l-8.4,6.5,9.5,9.3h2.7v2.5h-9v-2.5h2.5l-8.9-8.7v8.7h2.8v2.5Z"/>
        <path class="st9" d="M437.6,505.7c5.6,0,9.2,4.2,9.2,10v1.1h-15.3c0,4.7,2.4,8.1,7.1,8.1s5-1.1,6.3-2.3l1.5,1.9c-1.8,1.8-4.5,3-8.1,3-6,0-10-3.8-10-11s3.5-10.8,9.3-10.8ZM431.5,514.4h12c-.4-3.7-2.5-6.1-6-6.1s-5.5,2.4-6,6.1Z"/>
        <path class="st9" d="M470.3,508.8h-2.5l-7.7,20.2c-2.3,6-4.9,7.5-8.7,7.5s-2-.1-2.6-.4l.4-2.4c.5.1,1.4.3,2.1.3,2.3,0,4.2-.9,5.8-4.8l.8-2.1h-.4l-6.8-18.3h-2.5v-2.5h7.9v2.5h-2.1l5.3,15.2,5.2-15.2h-2.4v-2.5h8.1v2.5Z"/>
        <path class="st9" d="M480.2,506.2h3.4v-5.1h3v5.1h5.2v2.5h-5.2v12.2c0,3,1.2,3.9,3,3.9s1.6-.1,2.6-.4l.4,2.4c-1.2.4-2,.6-3.2.6-3.9,0-5.8-2-5.8-6.8v-11.9h-3.4v-2.5Z"/>
        <path class="st9" d="M517.4,527h-5.8v-11.9c0-4.3-1.8-6.6-5-6.6s-6,1.8-6,6.8v9.2h2.8v2.5h-8.6v-2.5h2.8v-24.9h-2.8v-2.5h5.8v12.4c1.2-2.1,3.5-3.8,6.6-3.8,4.9,0,7.5,3.5,7.5,9.3v9.5h2.8v2.5Z"/>
        <path class="st9" d="M529.7,505.7c5.6,0,9.2,4.2,9.2,10v1.1h-15.3c0,4.7,2.4,8.1,7.1,8.1s5-1.1,6.3-2.3l1.5,1.9c-1.8,1.8-4.5,3-8.1,3-6,0-10-3.8-10-11s3.5-10.8,9.3-10.8ZM523.6,514.4h12c-.4-3.7-2.5-6.1-6-6.1s-5.5,2.4-6,6.1Z"/>
        <path class="st9" d="M552.5,505.7c6,0,9.9,4.3,9.9,10.8s-3.9,11-9.9,11-10-4.5-10-11,3.9-10.8,10-10.8ZM552.5,508.5c-4.4,0-6.8,3.4-6.8,8s2.3,8.3,6.8,8.3,6.7-3.6,6.7-8.3-2.3-8-6.7-8Z"/>
        <path class="st9" d="M575.5,527h-9.4v-2.5h2.8v-15.7h-2.8v-2.5h5.5l.3,3.5c.8-2,2.4-4.1,5.6-4.1s1.7.1,2.5.5l-.4,2.7c-.9-.2-1.7-.3-2.3-.3-3.3,0-5.3,3-5.3,8.3v7.7h3.6v2.5Z"/>
        <path class="st9" d="M582.2,506.2h5.8v18.3h2.8v2.5h-8.6v-2.5h2.8v-15.8h-2.8v-2.5ZM586.5,497c1.3,0,2.1.9,2.1,2s-.8,2-2.1,2-2-.9-2-2,.7-2,2-2Z"/>
        <path class="st9" d="M603.4,505.7c5.6,0,9.2,4.2,9.2,10v1.1h-15.3c0,4.7,2.4,8.1,7.1,8.1s5-1.1,6.3-2.3l1.5,1.9c-1.8,1.8-4.5,3-8.1,3-6,0-10-3.8-10-11s3.5-10.8,9.3-10.8ZM597.4,514.4h12c-.4-3.7-2.5-6.1-6-6.1s-5.5,2.4-6,6.1Z"/>
        <path class="st9" d="M619.2,520.9v3.7c1.8.5,3.5.6,5.3.6,3.2,0,5-1.1,5-3.5s-1.1-2.8-4.2-3.6l-3-.8c-4.1-1.1-5.9-2.7-5.9-5.7,0-4.5,4.2-5.8,8-5.8s5.8.8,7.2,1.6v5.3h-2.6v-3.8c-1.4-.5-2.9-.8-4.6-.8-2.8,0-5.2.7-5.2,3.1s.7,2.4,3.9,3.3l3.1.7c3.9,1,6,2.4,6,6s-3.4,6.3-7.9,6.3-5.5-.3-7.9-1.2v-5.4h2.6Z"/>
        <path class="st9" d="M655.7,505.7c6,0,9.9,4.3,9.9,10.8s-3.9,11-9.9,11-10-4.5-10-11,3.9-10.8,10-10.8ZM655.7,508.5c-4.4,0-6.8,3.4-6.8,8s2.3,8.3,6.8,8.3,6.7-3.6,6.7-8.3-2.3-8-6.7-8Z"/>
        <path class="st9" d="M675.5,506.2h5.7v2.5h-5.7v15.8h3.8v2.5h-10.1v-2.5h3.2v-15.8h-3.3v-2.5h3.3v-1.6c0-5.4,2.8-8,7.1-8s2.4.2,3.2.5l-.3,2.5c-.7-.1-1.6-.3-2.6-.3-2.8,0-4.2,2-4.2,5.5v1.5Z"/>
        <path class="st9" d="M701.6,535.8h-9.4v-2.5h2.8v-24.5h-2.8v-2.5h5.5l.2,3.5c1.3-2.4,3.7-4,7.1-4,5.5,0,9.3,4.1,9.3,10.9s-3.8,10.9-9.2,10.9-5.5-1.5-7.1-3.9v9.6h3.6v2.5ZM704.5,508.5c-4.1,0-6.7,3.3-6.7,8.1s2.6,8.3,6.7,8.3,6.5-3.3,6.5-8.2-2.5-8.2-6.5-8.2Z"/>
        <path class="st9" d="M740.2,527h-5.8v-11.9c0-4.3-1.8-6.6-5-6.6s-6,1.8-6,6.8v9.2h2.8v2.5h-8.6v-2.5h2.8v-24.9h-2.8v-2.5h5.8v12.4c1.2-2.1,3.5-3.8,6.6-3.8,4.9,0,7.5,3.5,7.5,9.3v9.5h2.8v2.5Z"/>
        <path class="st9" d="M762.7,508.8h-2.5l-7.7,20.2c-2.3,6-4.9,7.5-8.7,7.5s-2-.1-2.6-.4l.4-2.4c.5.1,1.4.3,2.1.3,2.3,0,4.2-.9,5.8-4.8l.8-2.1h-.4l-6.8-18.3h-2.5v-2.5h7.9v2.5h-2.1l5.3,15.2,5.2-15.2h-2.4v-2.5h8.1v2.5Z"/>
        <path class="st9" d="M767.6,520.9v3.7c1.8.5,3.5.6,5.3.6,3.2,0,5-1.1,5-3.5s-1.1-2.8-4.2-3.6l-3-.8c-4.1-1.1-5.9-2.7-5.9-5.7,0-4.5,4.2-5.8,8-5.8s5.8.8,7.2,1.6v5.3h-2.6v-3.8c-1.4-.5-2.9-.8-4.6-.8-2.8,0-5.2.7-5.2,3.1s.7,2.4,3.9,3.3l3.1.7c3.9,1,6,2.4,6,6s-3.4,6.3-7.9,6.3-5.5-.3-7.9-1.2v-5.4h2.6Z"/>
        <path class="st9" d="M784.5,506.2h5.8v18.3h2.8v2.5h-8.6v-2.5h2.8v-15.8h-2.8v-2.5ZM788.8,497c1.3,0,2.1.9,2.1,2s-.8,2-2.1,2-2-.9-2-2,.7-2,2-2Z"/>
        <path class="st9" d="M806.9,524.8c2.2,0,4.5-.8,5.8-2l1.6,2c-1.9,1.7-4.3,2.6-7.6,2.6-6,0-10.3-3.8-10.3-11s4.5-10.8,9.9-10.8,5.3.8,6.8,2v6h-2.8v-4.4c-1-.6-2.3-.9-3.8-.9-3.8,0-6.8,2.7-6.8,8.1s3.1,8.3,7.4,8.3Z"/>
        <path class="st9" d="M820.4,520.9v3.7c1.8.5,3.5.6,5.3.6,3.2,0,5-1.1,5-3.5s-1.1-2.8-4.2-3.6l-3-.8c-4.1-1.1-5.9-2.7-5.9-5.7,0-4.5,4.2-5.8,8-5.8s5.8.8,7.2,1.6v5.3h-2.6v-3.8c-1.4-.5-2.9-.8-4.6-.8-2.8,0-5.2.7-5.2,3.1s.7,2.4,3.9,3.3l3.1.7c3.9,1,6,2.4,6,6s-3.4,6.3-7.9,6.3-5.5-.3-7.9-1.2v-5.4h2.6Z"/>
        <path class="st9" d="M845.9,506.2h3.4v-5.1h3v5.1h5.2v2.5h-5.2v12.2c0,3,1.2,3.9,3,3.9s1.6-.1,2.6-.4l.4,2.4c-1.2.4-2,.6-3.2.6-3.9,0-5.8-2-5.8-6.8v-11.9h-3.4v-2.5Z"/>
        <path class="st9" d="M883,527h-5.8v-11.9c0-4.3-1.8-6.6-5-6.6s-6,1.8-6,6.8v9.2h2.8v2.5h-8.6v-2.5h2.8v-24.9h-2.8v-2.5h5.8v12.4c1.2-2.1,3.5-3.8,6.6-3.8,4.9,0,7.5,3.5,7.5,9.3v9.5h2.8v2.5Z"/>
        <path class="st9" d="M895.3,527h-9.4v-2.5h2.8v-15.7h-2.8v-2.5h5.5l.3,3.5c.8-2,2.4-4.1,5.6-4.1s1.7.1,2.5.5l-.4,2.7c-.9-.2-1.7-.3-2.3-.3-3.3,0-5.3,3-5.3,8.3v7.7h3.6v2.5Z"/>
        <path class="st9" d="M911.4,505.7c6,0,9.9,4.3,9.9,10.8s-3.9,11-9.9,11-10-4.5-10-11,3.9-10.8,10-10.8ZM911.4,508.5c-4.4,0-6.8,3.4-6.8,8s2.3,8.3,6.8,8.3,6.7-3.6,6.7-8.3-2.3-8-6.7-8Z"/>
        <path class="st9" d="M938.4,506.2h5.8v18.3h2.8v2.5h-5.5l-.2-3c-1.2,2.1-3.8,3.5-6.7,3.5-4.4,0-7.5-2.8-7.5-9v-9.8h-2.8v-2.5h5.8v12.3c0,4.5,2.2,6.3,5.2,6.3s5.8-3,5.8-6.1v-9.9h-2.8v-2.5Z"/>
        <path class="st9" d="M972.5,508.8h-2.8v17.2c0,7.2-4.4,10.5-11,10.5s-5.2-.4-6.9-1.3l.8-2.5c1.4.7,3.7,1.1,5.9,1.1,4.7,0,8.2-2.4,8.2-7.9v-2.4c-1.6,2.5-4,4-7.2,4-5.4,0-9.2-4.2-9.2-10.9s3.8-10.9,9.3-10.9,5.8,1.7,7.1,4l.2-3.5h5.7v2.5ZM960,524.8c4.1,0,6.7-3.3,6.7-8.3s-2.6-8.1-6.7-8.1-6.5,3.3-6.5,8.2,2.5,8.2,6.5,8.2Z"/>
        <path class="st9" d="M997.9,527h-5.8v-11.9c0-4.3-1.8-6.6-5-6.6s-6,1.8-6,6.8v9.2h2.8v2.5h-8.6v-2.5h2.8v-24.9h-2.8v-2.5h5.8v12.4c1.2-2.1,3.5-3.8,6.6-3.8,4.9,0,7.5,3.5,7.5,9.3v9.5h2.8v2.5Z"/>
        <path class="st9" d="M1009.2,506.2h3.4v-5.1h3v5.1h5.2v2.5h-5.2v12.2c0,3,1.2,3.9,3,3.9s1.6-.1,2.6-.4l.4,2.4c-1.2.4-2,.6-3.2.6-3.9,0-5.8-2-5.8-6.8v-11.9h-3.4v-2.5Z"/>
        <path class="st9" d="M1046.4,527h-5.8v-11.9c0-4.3-1.8-6.6-5-6.6s-6,1.8-6,6.8v9.2h2.8v2.5h-8.6v-2.5h2.8v-24.9h-2.8v-2.5h5.8v12.4c1.2-2.1,3.5-3.8,6.6-3.8,4.9,0,7.5,3.5,7.5,9.3v9.5h2.8v2.5Z"/>
        <path class="st9" d="M1058.7,505.7c5.6,0,9.2,4.2,9.2,10v1.1h-15.3c0,4.7,2.4,8.1,7.1,8.1s5-1.1,6.3-2.3l1.5,1.9c-1.8,1.8-4.5,3-8.1,3-6,0-10-3.8-10-11s3.5-10.8,9.3-10.8ZM1052.7,514.4h12c-.4-3.7-2.5-6.1-6-6.1s-5.5,2.4-6,6.1Z"/>
        <path class="st9" d="M1090.6,527h-9.4v-2.5h3.1v-24.1h-3.1v-2.5h9.4v2.5h-3.1v10.6h14v-10.6h-3.1v-2.5h9.4v2.5h-3.1v24.1h3.1v2.5h-9.4v-2.5h3.1v-10.8h-14v10.8h3.1v2.5Z"/>
        <path class="st9" d="M1120.3,505.7c5.6,0,9.2,4.2,9.2,10v1.1h-15.3c0,4.7,2.4,8.1,7.1,8.1s5-1.1,6.3-2.3l1.5,1.9c-1.8,1.8-4.5,3-8.1,3-6,0-10-3.8-10-11s3.5-10.8,9.3-10.8ZM1114.3,514.4h12c-.4-3.7-2.5-6.1-6-6.1s-5.5,2.4-6,6.1Z"/>
        <path class="st9" d="M1132.5,506.2h7.8v2.5h-2l4.3,6.3,4.3-6.3h-2v-2.5h7.7v2.5h-2.4l-5.6,7.8,6,8h2.3v2.5h-7.9v-2.5h2.2l-4.8-6.4-4.8,6.4h2.3v2.5h-7.9v-2.5h2.4l6-8-5.5-7.8h-2.4v-2.5Z"/>
        <path class="st9" d="M1174.8,527h-5.3l-.3-2.9c-1.3,2-3.6,3.4-6.8,3.4-4.7,0-6.7-2.9-6.7-6.4s2.4-6.3,8.5-6.3h4.8v-1.8c0-3-1.8-4.8-5.2-4.8s-3.2.2-4.3.5v3.4h-2.7v-5.2c1.5-.8,4.1-1.2,7-1.2,5.4,0,8.2,2.5,8.2,7.4v11.4h2.6v2.5ZM1169.1,519.4v-2.2h-4.8c-3.7,0-5.4,1.4-5.4,3.9s1.3,3.8,4.1,3.8,6-2.3,6.1-5.5Z"/>
        <path class="st9" d="M1200,527h-5.7l-.2-2.8v-.6c-1.5,2.4-4,3.9-7.1,3.9-5.4,0-9.2-4.2-9.2-10.9s3.8-10.9,9.3-10.9,5.8,1.7,7.1,4.1v-.4s0-9.8,0-9.8h-2.8v-2.5h5.8v27.5h2.8v2.5ZM1187.5,524.8c4.1,0,6.7-3.3,6.7-8.3s-2.6-8.1-6.7-8.1-6.5,3.3-6.5,8.2,2.5,8.2,6.5,8.2Z"/>
        <path class="st9" d="M1212.6,505.7c5.6,0,9.2,4.2,9.2,10v1.1h-15.3c0,4.7,2.4,8.1,7.1,8.1s5-1.1,6.3-2.3l1.5,1.9c-1.8,1.8-4.5,3-8.1,3-6,0-10-3.8-10-11s3.5-10.8,9.3-10.8ZM1206.6,514.4h12c-.4-3.7-2.5-6.1-6-6.1s-5.5,2.4-6,6.1Z"/>
        <path class="st9" d="M1236,524.8c2.2,0,4.5-.8,5.8-2l1.6,2c-1.9,1.7-4.3,2.6-7.6,2.6-6,0-10.3-3.8-10.3-11s4.5-10.8,9.9-10.8,5.3.8,6.8,2v6h-2.8v-4.4c-1-.6-2.3-.9-3.8-.9-3.8,0-6.8,2.7-6.8,8.1s3.1,8.3,7.4,8.3Z"/>
        <path class="st9" d="M1265.4,527h-5.3l-.3-2.9c-1.3,2-3.6,3.4-6.8,3.4-4.7,0-6.7-2.9-6.7-6.4s2.4-6.3,8.5-6.3h4.8v-1.8c0-3-1.8-4.8-5.2-4.8s-3.2.2-4.3.5v3.4h-2.7v-5.2c1.5-.8,4.1-1.2,7-1.2,5.4,0,8.2,2.5,8.2,7.4v11.4h2.6v2.5ZM1259.7,519.4v-2.2h-4.8c-3.7,0-5.4,1.4-5.4,3.9s1.3,3.8,4.1,3.8,6-2.3,6.1-5.5Z"/>
        <path class="st9" d="M1279,524.8c2.2,0,4.5-.8,5.8-2l1.6,2c-1.9,1.7-4.3,2.6-7.6,2.6-6,0-10.3-3.8-10.3-11s4.5-10.8,9.9-10.8,5.3.8,6.8,2v6h-2.8v-4.4c-1-.6-2.3-.9-3.8-.9-3.8,0-6.8,2.7-6.8,8.1s3.1,8.3,7.4,8.3Z"/>
        <path class="st9" d="M1311.6,527h-5.8v-11.9c0-4.3-1.8-6.6-5-6.6s-6,1.8-6,6.8v9.2h2.8v2.5h-8.6v-2.5h2.8v-24.9h-2.8v-2.5h5.8v12.4c1.2-2.1,3.5-3.8,6.6-3.8,4.9,0,7.5,3.5,7.5,9.3v9.5h2.8v2.5Z"/>
        <path class="st9" d="M1324.6,505.7c6,0,9.9,4.3,9.9,10.8s-3.9,11-9.9,11-10-4.5-10-11,3.9-10.8,10-10.8ZM1324.6,508.5c-4.4,0-6.8,3.4-6.8,8s2.3,8.3,6.8,8.3,6.7-3.6,6.7-8.3-2.3-8-6.7-8Z"/>
        <path class="st9" d="M1347.6,527h-9.4v-2.5h2.8v-15.7h-2.8v-2.5h5.5l.3,3.5c.8-2,2.4-4.1,5.6-4.1s1.7.1,2.5.5l-.4,2.7c-.9-.2-1.7-.3-2.3-.3-3.3,0-5.3,3-5.3,8.3v7.7h3.6v2.5Z"/>
        <path class="st9" d="M1363.7,505.7c6,0,9.9,4.3,9.9,10.8s-3.9,11-9.9,11-10-4.5-10-11,3.9-10.8,10-10.8ZM1363.7,508.5c-4.4,0-6.8,3.4-6.8,8s2.3,8.3,6.8,8.3,6.7-3.6,6.7-8.3-2.3-8-6.7-8Z"/>
        <path class="st9" d="M1400,527h-5.8v-11.9c0-4.3-1.8-6.6-5-6.6s-6,1.8-6,6.8v9.2h2.8v2.5h-8.6v-2.5h2.8v-15.8h-2.8v-2.5h5.5l.2,3.5c1.2-2.3,3.5-4,6.8-4,4.9,0,7.5,3.5,7.5,9.3v9.5h2.8v2.5Z"/>
        <path class="st9" d="M1402.5,532.2l1.8-8.4h3.6l-2.8,8.4h-2.5Z"/>
      </g>
      <g class="st2">
        <path class="st9" d="M186.7,576.4v3.7c1.8.5,3.5.6,5.3.6,3.2,0,5-1.1,5-3.5s-1.1-2.8-4.2-3.6l-3-.8c-4.1-1.1-5.9-2.7-5.9-5.7,0-4.5,4.2-5.8,8-5.8s5.8.8,7.2,1.6v5.3h-2.6v-3.8c-1.4-.5-2.9-.8-4.6-.8-2.8,0-5.2.7-5.2,3.1s.7,2.4,3.9,3.3l3.1.7c3.9,1,6,2.4,6,6s-3.4,6.3-7.9,6.3-5.5-.3-7.9-1.2v-5.4h2.6Z"/>
        <path class="st9" d="M225.9,582.6h-5.8v-11.9c0-4.3-1.8-6.6-5-6.6s-6,1.8-6,6.8v9.2h2.8v2.5h-8.6v-2.5h2.8v-24.9h-2.8v-2.5h5.8v12.4c1.2-2.1,3.5-3.8,6.6-3.8,4.9,0,7.5,3.5,7.5,9.3v9.5h2.8v2.5Z"/>
        <path class="st9" d="M247.8,582.6h-5.3l-.3-2.9c-1.3,2-3.6,3.4-6.8,3.4-4.7,0-6.7-2.9-6.7-6.4s2.4-6.3,8.5-6.3h4.8v-1.8c0-3-1.8-4.8-5.2-4.8s-3.2.2-4.3.5v3.4h-2.7v-5.2c1.5-.8,4.1-1.2,7-1.2,5.4,0,8.2,2.5,8.2,7.4v11.4h2.6v2.5ZM242.1,575v-2.2h-4.8c-3.7,0-5.4,1.4-5.4,3.9s1.3,3.8,4.1,3.8,6-2.3,6.1-5.5Z"/>
        <path class="st9" d="M259.7,591.4h-9.4v-2.5h2.8v-24.5h-2.8v-2.5h5.5l.2,3.5c1.3-2.4,3.7-4,7.1-4,5.5,0,9.3,4.1,9.3,10.9s-3.8,10.9-9.2,10.9-5.5-1.5-7.1-3.9v9.6h3.6v2.5ZM262.6,564c-4.1,0-6.7,3.3-6.7,8.1s2.6,8.3,6.7,8.3,6.5-3.3,6.5-8.2-2.5-8.2-6.5-8.2Z"/>
        <path class="st9" d="M285.5,561.3c5.6,0,9.2,4.2,9.2,10v1.1h-15.3c0,4.7,2.4,8.1,7.1,8.1s5-1.1,6.3-2.3l1.5,1.9c-1.8,1.8-4.5,3-8.1,3-6,0-10-3.8-10-11s3.5-10.8,9.3-10.8ZM279.4,569.9h12c-.4-3.7-2.5-6.1-6-6.1s-5.5,2.4-6,6.1Z"/>
        <path class="st9" d="M320.5,582.6h-5.7l-.2-2.8v-.6c-1.5,2.4-4,3.9-7.1,3.9-5.4,0-9.2-4.2-9.2-10.9s3.8-10.9,9.3-10.9,5.8,1.7,7.1,4.1v-.4s0-9.8,0-9.8h-2.8v-2.5h5.8v27.5h2.8v2.5ZM308,580.4c4.1,0,6.7-3.3,6.7-8.3s-2.6-8.1-6.7-8.1-6.5,3.3-6.5,8.2,2.5,8.2,6.5,8.2Z"/>
        <path class="st9" d="M338.5,552.6v12.8c1.3-2.4,3.7-4.2,7.1-4.2,5.5,0,9.3,4.1,9.3,10.9s-3.8,10.9-9.2,10.9-5.7-1.5-7.2-4v3.5h-5.8v-2.5h2.8v-24.9h-2.8v-2.5h5.8ZM345.2,564c-4.1,0-6.7,3.3-6.7,8.1s2.6,8.3,6.7,8.3,6.5-3.3,6.5-8.2-2.5-8.2-6.5-8.2Z"/>
        <path class="st9" d="M378.8,564.3h-2.5l-7.7,20.2c-2.3,6-4.9,7.5-8.7,7.5s-2-.1-2.6-.4l.4-2.4c.5.1,1.4.3,2.1.3,2.3,0,4.2-.9,5.8-4.8l.8-2.1h-.4l-6.8-18.3h-2.5v-2.5h7.9v2.5h-2.1l5.3,15.2,5.2-15.2h-2.4v-2.5h8.1v2.5Z"/>
        <path class="st9" d="M399.4,582.6h-9.4v-2.5h3.1v-24.1h-3.1v-2.5h5.8l10.3,17.8,10.3-17.8h5.8v2.5h-3.1v24.1h3.1v2.5h-9.4v-2.5h3.1v-20l-8.4,14.6h-2.7l-8.4-14.5v19.9h3.1v2.5Z"/>
        <path class="st9" d="M444.5,582.6h-5.3l-.3-2.9c-1.3,2-3.6,3.4-6.8,3.4-4.7,0-6.7-2.9-6.7-6.4s2.4-6.3,8.5-6.3h4.8v-1.8c0-3-1.8-4.8-5.2-4.8s-3.2.2-4.3.5v3.4h-2.7v-5.2c1.5-.8,4.1-1.2,7-1.2,5.4,0,8.2,2.5,8.2,7.4v11.4h2.6v2.5ZM438.9,575v-2.2h-4.8c-3.7,0-5.4,1.4-5.4,3.9s1.3,3.8,4.1,3.8,6-2.3,6.1-5.5Z"/>
        <path class="st9" d="M447.1,561.8h7.8v2.5h-2l4.3,6.3,4.3-6.3h-2v-2.5h7.7v2.5h-2.4l-5.6,7.8,6,8h2.3v2.5h-7.9v-2.5h2.2l-4.8-6.4-4.8,6.4h2.3v2.5h-7.9v-2.5h2.4l6-8-5.5-7.8h-2.4v-2.5Z"/>
        <path class="st9" d="M489.6,582.6h-9.4v-2.5h3.1v-24.1h-3.1v-2.5h10.3c7.8,0,11.2,3.9,11.2,9s-3.4,9.3-11.2,9.3h-4v8.3h3.1v2.5ZM486.5,556v13.3h4c5.7,0,7.8-2.9,7.8-6.8s-2.3-6.5-7.8-6.5h-4Z"/>
        <path class="st9" d="M510.1,580.1h2.9v2.5h-8.6v-2.5h2.7v-24.9h-2.8v-2.5h5.8v27.5Z"/>
        <path class="st9" d="M535,582.6h-5.3l-.3-2.9c-1.3,2-3.6,3.4-6.8,3.4-4.7,0-6.7-2.9-6.7-6.4s2.4-6.3,8.5-6.3h4.8v-1.8c0-3-1.8-4.8-5.2-4.8s-3.2.2-4.3.5v3.4h-2.7v-5.2c1.5-.8,4.1-1.2,7-1.2,5.4,0,8.2,2.5,8.2,7.4v11.4h2.6v2.5ZM529.4,575v-2.2h-4.8c-3.7,0-5.4,1.4-5.4,3.9s1.3,3.8,4.1,3.8,6-2.3,6.1-5.5Z"/>
        <path class="st9" d="M560.6,582.6h-5.8v-11.9c0-4.3-1.8-6.6-5-6.6s-6,1.8-6,6.8v9.2h2.8v2.5h-8.6v-2.5h2.8v-15.8h-2.8v-2.5h5.5l.2,3.5c1.2-2.3,3.5-4,6.8-4,4.9,0,7.5,3.5,7.5,9.3v9.5h2.8v2.5Z"/>
        <path class="st9" d="M574.2,580.4c2.2,0,4.5-.8,5.8-2l1.6,2c-1.9,1.7-4.3,2.6-7.6,2.6-6,0-10.3-3.8-10.3-11s4.5-10.8,9.9-10.8,5.3.8,6.8,2v6h-2.8v-4.4c-1-.6-2.3-.9-3.8-.9-3.8,0-6.8,2.7-6.8,8.1s3.1,8.3,7.4,8.3Z"/>
        <path class="st9" d="M592.8,582.6h-8.6v-2.5h2.8v-24.9h-2.8v-2.5h5.8v17.8l7.9-6.1h-2.6v-2.5h9.4v2.5c.1,0-3,0-3,0l-8.4,6.5,9.5,9.3h2.7v2.5h-9v-2.5h2.5l-8.9-8.7v8.7h2.8v2.5Z"/>
        <path class="st9" d="M606.7,559.2l2-7.8h3.2l-3,7.8h-2.2Z"/>
        <path class="st9" d="M615.4,576.4v3.7c1.8.5,3.5.6,5.3.6,3.2,0,5-1.1,5-3.5s-1.1-2.8-4.2-3.6l-3-.8c-4.1-1.1-5.9-2.7-5.9-5.7,0-4.5,4.2-5.8,8-5.8s5.8.8,7.2,1.6v5.3h-2.6v-3.8c-1.4-.5-2.9-.8-4.6-.8-2.8,0-5.2.7-5.2,3.1s.7,2.4,3.9,3.3l3.1.7c3.9,1,6,2.4,6,6s-3.4,6.3-7.9,6.3-5.5-.3-7.9-1.2v-5.4h2.6Z"/>
        <path class="st9" d="M648.1,561.8h5.7v2.5h-5.7v15.8h3.8v2.5h-10.1v-2.5h3.2v-15.8h-3.3v-2.5h3.3v-1.6c0-5.4,2.8-8,7.1-8s2.4.2,3.2.5l-.3,2.5c-.7-.1-1.6-.3-2.6-.3-2.8,0-4.2,2-4.2,5.5v1.5Z"/>
        <path class="st9" d="M666,561.3c6,0,9.9,4.3,9.9,10.8s-3.9,11-9.9,11-10-4.5-10-11,3.9-10.8,10-10.8ZM666,564c-4.4,0-6.8,3.4-6.8,8s2.3,8.3,6.8,8.3,6.7-3.6,6.7-8.3-2.3-8-6.7-8Z"/>
        <path class="st9" d="M693,561.8h5.8v18.3h2.8v2.5h-5.5l-.2-3c-1.2,2.1-3.8,3.5-6.7,3.5-4.4,0-7.5-2.8-7.5-9v-9.8h-2.8v-2.5h5.8v12.3c0,4.5,2.2,6.3,5.2,6.3s5.8-3,5.8-6.1v-9.9h-2.8v-2.5Z"/>
        <path class="st9" d="M714.1,582.6h-9.4v-2.5h2.8v-15.7h-2.8v-2.5h5.5l.3,3.5c.8-2,2.4-4.1,5.6-4.1s1.7.1,2.5.5l-.4,2.7c-.9-.2-1.7-.3-2.3-.3-3.3,0-5.3,3-5.3,8.3v7.7h3.6v2.5Z"/>
        <path class="st9" d="M735.5,561.8h5.7v2.5h-5.7v15.8h3.8v2.5h-10.1v-2.5h3.2v-15.8h-3.3v-2.5h3.3v-1.6c0-5.4,2.8-8,7.1-8s2.4.2,3.2.5l-.3,2.5c-.7-.1-1.6-.3-2.6-.3-2.8,0-4.2,2-4.2,5.5v1.5Z"/>
        <path class="st9" d="M757.3,561.8h5.8v18.3h2.8v2.5h-5.5l-.2-3c-1.2,2.1-3.8,3.5-6.7,3.5-4.4,0-7.5-2.8-7.5-9v-9.8h-2.8v-2.5h5.8v12.3c0,4.5,2.2,6.3,5.2,6.3s5.8-3,5.8-6.1v-9.9h-2.8v-2.5Z"/>
        <path class="st9" d="M791.7,582.6h-5.8v-11.9c0-4.3-1.8-6.6-5-6.6s-6,1.8-6,6.8v9.2h2.8v2.5h-8.6v-2.5h2.8v-15.8h-2.8v-2.5h5.5l.2,3.5c1.2-2.3,3.5-4,6.8-4,4.9,0,7.5,3.5,7.5,9.3v9.5h2.8v2.5Z"/>
        <path class="st9" d="M816.9,582.6h-5.7l-.2-2.8v-.6c-1.5,2.4-4,3.9-7.1,3.9-5.4,0-9.2-4.2-9.2-10.9s3.8-10.9,9.3-10.9,5.8,1.7,7.1,4.1v-.4s0-9.8,0-9.8h-2.8v-2.5h5.8v27.5h2.8v2.5ZM804.4,580.4c4.1,0,6.7-3.3,6.7-8.3s-2.6-8.1-6.7-8.1-6.5,3.3-6.5,8.2,2.5,8.2,6.5,8.2Z"/>
        <path class="st9" d="M839,582.6h-5.3l-.3-2.9c-1.3,2-3.6,3.4-6.8,3.4-4.7,0-6.7-2.9-6.7-6.4s2.4-6.3,8.5-6.3h4.8v-1.8c0-3-1.8-4.8-5.2-4.8s-3.2.2-4.3.5v3.4h-2.7v-5.2c1.5-.8,4.1-1.2,7-1.2,5.4,0,8.2,2.5,8.2,7.4v11.4h2.6v2.5ZM833.4,575v-2.2h-4.8c-3.7,0-5.4,1.4-5.4,3.9s1.3,3.8,4.1,3.8,6-2.3,6.1-5.5Z"/>
        <path class="st9" d="M855.4,580.1h2.8v-10.3c0-3.7-2.2-5.7-4.9-5.7s-5.5,2.5-5.5,5.7v10.3h2.8v2.5h-8.6v-2.5h2.8v-15.8h-2.8v-2.5h5.5l.2,2.9c1.2-2,3.4-3.4,6.1-3.4s5.3,1.3,6.5,3.9c1.7-2.6,3.8-3.9,6.9-3.9,4.7,0,7.4,2.9,7.4,8.3v10.5h2.8v2.5h-8.6v-2.5h2.8v-10.3c0-4-2.1-5.7-4.8-5.7s-5.5,2.1-5.6,5.5v10.6h2.8v2.5h-8.6v-2.5Z"/>
        <path class="st9" d="M889.7,561.3c5.6,0,9.2,4.2,9.2,10v1.1h-15.3c0,4.7,2.4,8.1,7.1,8.1s5-1.1,6.3-2.3l1.5,1.9c-1.8,1.8-4.5,3-8.1,3-6,0-10-3.8-10-11s3.5-10.8,9.3-10.8ZM883.7,569.9h12c-.4-3.7-2.5-6.1-6-6.1s-5.5,2.4-6,6.1Z"/>
        <path class="st9" d="M925.1,582.6h-5.8v-11.9c0-4.3-1.8-6.6-5-6.6s-6,1.8-6,6.8v9.2h2.8v2.5h-8.6v-2.5h2.8v-15.8h-2.8v-2.5h5.5l.2,3.5c1.2-2.3,3.5-4,6.8-4,4.9,0,7.5,3.5,7.5,9.3v9.5h2.8v2.5Z"/>
        <path class="st9" d="M926.9,561.8h3.4v-5.1h3v5.1h5.2v2.5h-5.2v12.2c0,3,1.2,3.9,3,3.9s1.6-.1,2.6-.4l.4,2.4c-1.2.4-2,.6-3.2.6-3.9,0-5.8-2-5.8-6.8v-11.9h-3.4v-2.5Z"/>
        <path class="st9" d="M960.8,582.6h-5.3l-.3-2.9c-1.3,2-3.6,3.4-6.8,3.4-4.7,0-6.7-2.9-6.7-6.4s2.4-6.3,8.5-6.3h4.8v-1.8c0-3-1.8-4.8-5.2-4.8s-3.2.2-4.3.5v3.4h-2.7v-5.2c1.5-.8,4.1-1.2,7-1.2,5.4,0,8.2,2.5,8.2,7.4v11.4h2.6v2.5ZM955.1,575v-2.2h-4.8c-3.7,0-5.4,1.4-5.4,3.9s1.3,3.8,4.1,3.8,6-2.3,6.1-5.5Z"/>
        <path class="st9" d="M969.1,580.1h2.9v2.5h-8.6v-2.5h2.7v-24.9h-2.8v-2.5h5.8v27.5Z"/>
        <path class="st9" d="M995.2,580.4c2.2,0,4.5-.8,5.8-2l1.6,2c-1.9,1.7-4.3,2.6-7.6,2.6-6,0-10.3-3.8-10.3-11s4.5-10.8,9.9-10.8,5.3.8,6.8,2v6h-2.8v-4.4c-1-.6-2.3-.9-3.8-.9-3.8,0-6.8,2.7-6.8,8.1s3.1,8.3,7.4,8.3Z"/>
        <path class="st9" d="M1015.5,561.3c6,0,9.9,4.3,9.9,10.8s-3.9,11-9.9,11-10-4.5-10-11,3.9-10.8,10-10.8ZM1015.5,564c-4.4,0-6.8,3.4-6.8,8s2.3,8.3,6.8,8.3,6.7-3.6,6.7-8.3-2.3-8-6.7-8Z"/>
        <path class="st9" d="M1051.7,582.6h-5.8v-11.9c0-4.3-1.8-6.6-5-6.6s-6,1.8-6,6.8v9.2h2.8v2.5h-8.6v-2.5h2.8v-15.8h-2.8v-2.5h5.5l.2,3.5c1.2-2.3,3.5-4,6.8-4,4.9,0,7.5,3.5,7.5,9.3v9.5h2.8v2.5Z"/>
        <path class="st9" d="M1057.7,576.4v3.7c1.8.5,3.5.6,5.3.6,3.2,0,5-1.1,5-3.5s-1.1-2.8-4.2-3.6l-3-.8c-4.1-1.1-5.9-2.7-5.9-5.7,0-4.5,4.2-5.8,8-5.8s5.8.8,7.2,1.6v5.3h-2.6v-3.8c-1.4-.5-2.9-.8-4.6-.8-2.8,0-5.2.7-5.2,3.1s.7,2.4,3.9,3.3l3.1.7c3.9,1,6,2.4,6,6s-3.4,6.3-7.9,6.3-5.5-.3-7.9-1.2v-5.4h2.6Z"/>
        <path class="st9" d="M1073.7,561.8h3.4v-5.1h3v5.1h5.2v2.5h-5.2v12.2c0,3,1.2,3.9,3,3.9s1.6-.1,2.6-.4l.4,2.4c-1.2.4-2,.6-3.2.6-3.9,0-5.8-2-5.8-6.8v-11.9h-3.4v-2.5Z"/>
        <path class="st9" d="M1107.6,582.6h-5.3l-.3-2.9c-1.3,2-3.6,3.4-6.8,3.4-4.7,0-6.7-2.9-6.7-6.4s2.4-6.3,8.5-6.3h4.8v-1.8c0-3-1.8-4.8-5.2-4.8s-3.2.2-4.3.5v3.4h-2.7v-5.2c1.5-.8,4.1-1.2,7-1.2,5.4,0,8.2,2.5,8.2,7.4v11.4h2.6v2.5ZM1101.9,575v-2.2h-4.8c-3.7,0-5.4,1.4-5.4,3.9s1.3,3.8,4.1,3.8,6-2.3,6.1-5.5Z"/>
        <path class="st9" d="M1133.1,582.6h-5.8v-11.9c0-4.3-1.8-6.6-5-6.6s-6,1.8-6,6.8v9.2h2.8v2.5h-8.6v-2.5h2.8v-15.8h-2.8v-2.5h5.5l.2,3.5c1.2-2.3,3.5-4,6.8-4,4.9,0,7.5,3.5,7.5,9.3v9.5h2.8v2.5Z"/>
        <path class="st9" d="M1135,561.8h3.4v-5.1h3v5.1h5.2v2.5h-5.2v12.2c0,3,1.2,3.9,3,3.9s1.6-.1,2.6-.4l.4,2.4c-1.2.4-2,.6-3.2.6-3.9,0-5.8-2-5.8-6.8v-11.9h-3.4v-2.5Z"/>
        <path class="st9" d="M1152.9,576.4v3.7c1.8.5,3.5.6,5.3.6,3.2,0,5-1.1,5-3.5s-1.1-2.8-4.2-3.6l-3-.8c-4.1-1.1-5.9-2.7-5.9-5.7,0-4.5,4.2-5.8,8-5.8s5.8.8,7.2,1.6v5.3h-2.6v-3.8c-1.4-.5-2.9-.8-4.6-.8-2.8,0-5.2.7-5.2,3.1s.7,2.4,3.9,3.3l3.1.7c3.9,1,6,2.4,6,6s-3.4,6.3-7.9,6.3-5.5-.3-7.9-1.2v-5.4h2.6Z"/>
        <path class="st9" d="M1172.8,579.2c1.3,0,2,.9,2,2s-.7,2-2,2-2-.9-2-2,.7-2,2-2Z"/>
      </g>
    </g>
  </g>
</svg>