<?xml version="1.0" encoding="UTF-8"?>
<svg id="Ebene_1" xmlns="http://www.w3.org/2000/svg" xmlns:xlink="http://www.w3.org/1999/xlink" version="1.1" viewBox="0 0 1668 2388">
  <!-- Generator: Adobe Illustrator 29.5.0, SVG Export Plug-In . SVG Version: 2.1.0 Build 137)  -->
  <defs>
    <style>
      .st0, .st1 {
        fill: none;
      }

      .st2 {
        fill: #94a69e;
        opacity: 1;
      }

      .st2, .st3 {
        isolation: isolate;
      }

      .st4 {
        clip-path: url(#clippath-1);
      }

      .st5 {
        clip-path: url(#clippath-3);
      }

      .st6 {
        clip-path: url(#clippath-4);
      }

      .st7 {
        clip-path: url(#clippath-2);
      }

      .st8 {
        clip-path: url(#clippath-5);
      }

      .st9 {
        fill: #fff;
      }

      .st10 {
        fill: #3f4756;
      }

      .st1 {
        stroke: #94a69e;
        stroke-miterlimit: 10;
      }

      .st11 {
        clip-path: url(#clippath);
      }
    </style>
    <clipPath id="clippath">
      <rect class="st0" x="810.4" y="1768.2" width="49.8" height="56.5"/>
    </clipPath>
    <clipPath id="clippath-1">
      <rect class="st0" x="922.9" y="881.5" width="76.5" height="59.3"/>
    </clipPath>
    <clipPath id="clippath-2">
      <rect class="st0" x="1400.8" y="801.2" width="39.1" height="59.6"/>
    </clipPath>
    <clipPath id="clippath-3">
      <rect class="st0" x="207" y="801.2" width="69.3" height="75.5"/>
    </clipPath>
    <clipPath id="clippath-4">
      <rect class="st0" x="391.4" y="747.3" width="909.2" height="1071.2" transform="translate(-444.3 2117.6) rotate(-89.5)"/>
    </clipPath>
    <clipPath id="clippath-5">
      <rect class="st0" x="391.4" y="747.3" width="909.2" height="1071.2" transform="translate(-444.3 2117.6) rotate(-89.5)"/>
    </clipPath>
  </defs>
  <g id="Pfad_226">
    <rect class="st9" x="847" y="1018.7" width="39.6" height="1.4" transform="translate(-236.8 1775.9) rotate(-84.1)"/>
  </g>
  <g id="Pfad_227">
    <rect class="st9" x="839" y="1071" width="44.8" height="1.4" transform="translate(-293.8 1817.4) rotate(-84.1)"/>
  </g>
  <g id="Pfad_225">
    <polygon class="st9" points="870.4 992.3 869 992.1 874.2 941.9 908.1 930.9 908.5 932.2 875.5 943 870.4 992.3"/>
  </g>
  <path id="Rechteck_76-2" class="st2" d="M1668,2242.5H370.7c-91.3,0-165.3-74-165.3-165.3h0c0-91.3,74-165.3,165.3-165.3h1297.3"/>
  <g id="Mit_den_Tasten_rechts_schalten_Sie_die_Konstanten_ein_und_aus_und_aktivieren_so_jeweils_eine_physikalische_Theorie." class="st3">
    <g class="st3">
      <path class="st9" d="M587.1,1998.2v27.2h-4.4v-21.3l-8.4,12.7h-.4l-8.4-12.7v21.3h-4.4v-27.2h5.2l7.8,11.8,7.8-11.8h5.2Z"/>
      <path class="st9" d="M597.9,1997c0,1.6-1.2,2.8-2.9,2.8s-2.8-1.2-2.8-2.8,1.2-2.7,2.8-2.7,2.9,1.1,2.9,2.7ZM592.9,2004h4.4v21.4h-4.4v-21.4Z"/>
      <path class="st9" d="M618.6,2024.3c-1.2.7-3.7,1.6-6.1,1.6-4.4,0-7.8-2.8-7.8-8.7v-9.1h-4v-4.1h4v-4.9l4.4-1v5.8h8.8v4.1h-8.8v8.8c0,3.1,1.4,4.8,4.2,4.8s2.9-.5,4.6-1l.8,3.6Z"/>
      <path class="st9" d="M655.6,1995.4v30h-4.4v-3.6c-1.6,2.4-4.2,4-7.5,4-5.7,0-9.9-4.6-9.9-11.2s4.2-11.2,9.8-11.2,6,1.7,7.5,4.1v-12.2h4.4ZM651.2,2014.7c0-4.1-2.8-7-6.6-7s-6.4,2.9-6.4,7,2.7,7,6.4,7,6.6-2.8,6.6-7Z"/>
      <path class="st9" d="M681.9,2015.9h-17.4c.3,3.9,3.1,6.1,6.7,6.1s4.7-1.1,5.7-3.2h4.6c-1.7,4.8-5.8,7-10.3,7-6.5,0-11.1-4.7-11.1-11.1s4.6-11.2,11.1-11.2,11.2,5.3,10.8,12.4ZM664.7,2012.3h12.5c-.7-2.9-2.9-5-6.1-5s-5.6,2.1-6.3,5Z"/>
      <path class="st9" d="M705.4,2011.9v13.5h-4.4v-12.6c0-3.3-1.4-5.1-4.7-5.1s-5.8,2.5-5.8,6.6v11.1h-4.4v-21.4h4.4v3.5c1.5-2.5,3.8-4,7.2-4,4.8,0,7.7,3.2,7.7,8.4Z"/>
      <path class="st9" d="M741.6,2002.4h-8.3v23h-4.4v-23h-8.3v-4.2h21v4.2Z"/>
      <path class="st9" d="M762.7,2004v21.4h-4.4v-3.6c-1.6,2.5-4.1,4-7.5,4-5.7,0-9.9-4.6-9.9-11.2s4.2-11.2,9.8-11.2,6,1.7,7.5,4.1v-3.7h4.4ZM758.3,2014.7c0-4.1-2.8-7-6.6-7s-6.4,2.9-6.4,7,2.7,7,6.4,7,6.6-2.8,6.6-7Z"/>
      <path class="st9" d="M766.8,2018.5h4.5c.7,2.4,2.4,3.5,6.1,3.5s4.6-.9,4.6-2.5-2-2.1-5.6-2.9c-6-1.5-8.5-2.7-8.5-6.3s3.7-6.8,9-6.8,8.6,2.6,9.3,6.5h-4.4c-.6-1.7-2.3-2.6-5-2.6s-4.5,1-4.5,2.5,1.3,1.7,5.1,2.6c5.8,1.4,9.1,2.4,9.1,6.5s-4.1,6.8-9.2,6.8-9.7-2.7-10.5-7.4Z"/>
      <path class="st9" d="M806.8,2024.3c-1.2.7-3.7,1.6-6.1,1.6-4.4,0-7.8-2.8-7.8-8.7v-9.1h-4v-4.1h4v-4.9l4.4-1v5.8h8.8v4.1h-8.8v8.8c0,3.1,1.4,4.8,4.2,4.8s2.9-.5,4.6-1l.8,3.6Z"/>
      <path class="st9" d="M831,2015.9h-17.4c.3,3.9,3.1,6.1,6.7,6.1s4.7-1.1,5.7-3.2h4.6c-1.7,4.8-5.8,7-10.3,7-6.5,0-11.1-4.7-11.1-11.1s4.6-11.2,11.1-11.2,11.2,5.3,10.8,12.4ZM813.8,2012.3h12.5c-.7-2.9-2.9-5-6.1-5s-5.6,2.1-6.3,5Z"/>
      <path class="st9" d="M854.5,2011.9v13.5h-4.4v-12.6c0-3.3-1.4-5.1-4.7-5.1s-5.8,2.5-5.8,6.6v11.1h-4.4v-21.4h4.4v3.5c1.5-2.5,3.8-4,7.2-4,4.8,0,7.7,3.2,7.7,8.4Z"/>
      <path class="st9" d="M883.9,2003.7v4.5c-.4,0-.7,0-1.3,0-4,0-7.1,2.3-7.1,7.5v9.8h-4.4v-21.4h4.4v4.2c1.3-3,3.7-4.7,7.1-4.7s1,0,1.3.1Z"/>
      <path class="st9" d="M908.2,2015.9h-17.4c.3,3.9,3.1,6.1,6.7,6.1s4.7-1.1,5.7-3.2h4.6c-1.7,4.8-5.8,7-10.3,7-6.5,0-11.1-4.7-11.1-11.1s4.6-11.2,11.1-11.2,11.2,5.3,10.8,12.4ZM891,2012.3h12.5c-.7-2.9-2.9-5-6.1-5s-5.6,2.1-6.3,5Z"/>
      <path class="st9" d="M911.7,2014.7c0-6.4,4.7-11.2,11.1-11.2s9.5,3.1,10.5,8.2h-4.6c-.8-2.7-3.2-4.2-6-4.2-4,0-6.7,3-6.7,7.1s2.8,7.1,6.7,7.1,5.2-1.6,6-4.2h4.6c-1,5.3-5.5,8.3-10.5,8.3s-11.1-4.8-11.1-11.2Z"/>
      <path class="st9" d="M956.9,2011.9v13.5h-4.4v-12.6c0-3.3-1.5-5.1-4.7-5.1s-5.8,2.5-5.8,6.6v11.1h-4.4v-30h4.4v12.1c1.5-2.5,3.9-4,7.2-4,4.8,0,7.7,3.2,7.7,8.4Z"/>
      <path class="st9" d="M978,2024.3c-1.2.7-3.7,1.6-6.1,1.6-4.4,0-7.8-2.8-7.8-8.7v-9.1h-4v-4.1h4v-4.9l4.4-1v5.8h8.8v4.1h-8.8v8.8c0,3.1,1.4,4.8,4.2,4.8s2.9-.5,4.6-1l.8,3.6Z"/>
      <path class="st9" d="M980.5,2018.5h4.5c.7,2.4,2.4,3.5,6.1,3.5s4.6-.9,4.6-2.5-2-2.1-5.6-2.9c-6-1.5-8.5-2.7-8.5-6.3s3.7-6.8,9-6.8,8.6,2.6,9.3,6.5h-4.4c-.6-1.7-2.3-2.6-5-2.6s-4.5,1-4.5,2.5,1.3,1.7,5.1,2.6c5.8,1.4,9.1,2.4,9.1,6.5s-4.1,6.8-9.2,6.8-9.7-2.7-10.5-7.4Z"/>
      <path class="st9" d="M1014.9,2018.5h4.5c.7,2.4,2.4,3.5,6.1,3.5s4.6-.9,4.6-2.5-2-2.1-5.6-2.9c-6-1.5-8.5-2.7-8.5-6.3s3.7-6.8,9-6.8,8.6,2.6,9.3,6.5h-4.4c-.6-1.7-2.3-2.6-5-2.6s-4.5,1-4.5,2.5,1.3,1.7,5.1,2.6c5.8,1.4,9.1,2.4,9.1,6.5s-4.1,6.8-9.2,6.8-9.7-2.7-10.5-7.4Z"/>
      <path class="st9" d="M1037.9,2014.7c0-6.4,4.7-11.2,11.1-11.2s9.5,3.1,10.5,8.2h-4.6c-.8-2.7-3.2-4.2-6-4.2-4,0-6.7,3-6.7,7.1s2.8,7.1,6.7,7.1,5.2-1.6,6-4.2h4.6c-1,5.3-5.5,8.3-10.5,8.3s-11.1-4.8-11.1-11.2Z"/>
      <path class="st9" d="M1083.1,2011.9v13.5h-4.4v-12.6c0-3.3-1.5-5.1-4.7-5.1s-5.8,2.5-5.8,6.6v11.1h-4.4v-30h4.4v12.1c1.5-2.5,3.9-4,7.2-4,4.8,0,7.7,3.2,7.7,8.4Z"/>
      <path class="st9" d="M1109,2004v21.4h-4.4v-3.6c-1.6,2.5-4.1,4-7.5,4-5.7,0-9.9-4.6-9.9-11.2s4.2-11.2,9.8-11.2,6,1.7,7.5,4.1v-3.7h4.4ZM1104.6,2014.7c0-4.1-2.8-7-6.6-7s-6.4,2.9-6.4,7,2.7,7,6.4,7,6.6-2.8,6.6-7Z"/>
      <path class="st9" d="M1114.2,1995.4h4.4v30h-4.4v-30Z"/>
      <path class="st9" d="M1139.9,2024.3c-1.2.7-3.7,1.6-6.1,1.6-4.4,0-7.8-2.8-7.8-8.7v-9.1h-4v-4.1h4v-4.9l4.4-1v5.8h8.8v4.1h-8.8v8.8c0,3.1,1.4,4.8,4.2,4.8s2.9-.5,4.6-1l.8,3.6Z"/>
      <path class="st9" d="M1164,2015.9h-17.4c.3,3.9,3.1,6.1,6.7,6.1s4.7-1.1,5.7-3.2h4.6c-1.7,4.8-5.8,7-10.3,7-6.5,0-11.1-4.7-11.1-11.1s4.6-11.2,11.1-11.2,11.2,5.3,10.8,12.4ZM1146.9,2012.3h12.5c-.7-2.9-2.9-5-6.1-5s-5.6,2.1-6.3,5Z"/>
      <path class="st9" d="M1187.6,2011.9v13.5h-4.4v-12.6c0-3.3-1.4-5.1-4.7-5.1s-5.8,2.5-5.8,6.6v11.1h-4.4v-21.4h4.4v3.5c1.5-2.5,3.8-4,7.2-4,4.8,0,7.7,3.2,7.7,8.4Z"/>
      <path class="st9" d="M1225,2017.6c0,6-5.3,8.3-10.2,8.3-7.6,0-11-4.2-11.7-8.9h4.4c.8,3.2,2.9,4.8,7.2,4.8s5.8-1.4,5.8-4-2.2-3-7.3-4.1c-5.3-1.2-9.4-2.6-9.4-7.7s4.8-8.2,10-8.2,10,3.5,10.8,7.9h-4.4c-.8-2.3-2.6-3.7-6.3-3.7s-5.6,1.6-5.6,4,1.6,2.6,6.1,3.5c6.9,1.5,10.7,3,10.7,8.2Z"/>
      <path class="st9" d="M1234.3,1997c0,1.6-1.2,2.8-2.9,2.8s-2.8-1.2-2.8-2.8,1.2-2.7,2.8-2.7,2.9,1.1,2.9,2.7ZM1229.2,2004h4.4v21.4h-4.4v-21.4Z"/>
      <path class="st9" d="M1259.9,2015.9h-17.4c.3,3.9,3.1,6.1,6.7,6.1s4.7-1.1,5.7-3.2h4.6c-1.7,4.8-5.8,7-10.3,7-6.5,0-11.1-4.7-11.1-11.1s4.6-11.2,11.1-11.2,11.2,5.3,10.8,12.4ZM1242.7,2012.3h12.5c-.7-2.9-2.9-5-6.1-5s-5.6,2.1-6.3,5Z"/>
      <path class="st9" d="M1297.1,1995.4v30h-4.4v-3.6c-1.6,2.4-4.2,4-7.5,4-5.7,0-9.9-4.6-9.9-11.2s4.2-11.2,9.8-11.2,6,1.7,7.5,4.1v-12.2h4.4ZM1292.7,2014.7c0-4.1-2.8-7-6.6-7s-6.4,2.9-6.4,7,2.7,7,6.4,7,6.6-2.8,6.6-7Z"/>
      <path class="st9" d="M1307.3,1997c0,1.6-1.2,2.8-2.9,2.8s-2.8-1.2-2.8-2.8,1.2-2.7,2.8-2.7,2.9,1.1,2.9,2.7ZM1302.2,2004h4.4v21.4h-4.4v-21.4Z"/>
      <path class="st9" d="M1332.8,2015.9h-17.4c.3,3.9,3.1,6.1,6.7,6.1s4.7-1.1,5.7-3.2h4.6c-1.7,4.8-5.8,7-10.3,7-6.5,0-11.1-4.7-11.1-11.1s4.6-11.2,11.1-11.2,11.2,5.3,10.8,12.4ZM1315.7,2012.3h12.5c-.7-2.9-2.9-5-6.1-5s-5.6,2.1-6.3,5Z"/>
    </g>
    <g class="st3">
      <path class="st9" d="M577.2,2092.1l-11.5-13v13h-4.4v-27.2h4.4v12.5l11-12.5h5.5l-11.8,13.3,12.3,14h-5.6Z"/>
      <path class="st9" d="M605.6,2081.4c0,6.4-4.9,11.2-11.1,11.2s-11.1-4.8-11.1-11.2,5-11.2,11.1-11.2,11.1,4.7,11.1,11.2ZM587.9,2081.4c0,4.1,2.9,7,6.7,7s6.7-2.8,6.7-7-3-7-6.7-7-6.7,2.8-6.7,7Z"/>
      <path class="st9" d="M629.3,2078.6v13.5h-4.4v-12.6c0-3.3-1.4-5.1-4.7-5.1s-5.8,2.5-5.8,6.6v11.1h-4.4v-21.4h4.4v3.5c1.5-2.5,3.8-4,7.2-4,4.8,0,7.7,3.2,7.7,8.4Z"/>
      <path class="st9" d="M633.2,2085.2h4.5c.7,2.4,2.4,3.5,6.1,3.5s4.6-.9,4.6-2.5-2-2.1-5.6-2.9c-6-1.5-8.5-2.7-8.5-6.3s3.7-6.8,9-6.8,8.6,2.6,9.3,6.5h-4.4c-.6-1.7-2.3-2.6-5-2.6s-4.5,1-4.5,2.5,1.3,1.7,5.1,2.6c5.8,1.4,9.1,2.4,9.1,6.5s-4.1,6.8-9.2,6.8-9.7-2.7-10.5-7.4Z"/>
      <path class="st9" d="M673.2,2091c-1.2.7-3.7,1.6-6.1,1.6-4.4,0-7.8-2.8-7.8-8.7v-9.1h-4v-4.1h4v-4.9l4.4-1v5.8h8.8v4.1h-8.8v8.8c0,3.1,1.4,4.8,4.2,4.8s2.9-.5,4.6-1l.8,3.6Z"/>
      <path class="st9" d="M697.2,2070.7v21.4h-4.4v-3.6c-1.6,2.5-4.1,4-7.5,4-5.7,0-9.9-4.6-9.9-11.2s4.2-11.2,9.8-11.2,6,1.7,7.5,4.1v-3.7h4.4ZM692.9,2081.4c0-4.1-2.8-7-6.6-7s-6.4,2.9-6.4,7,2.7,7,6.4,7,6.6-2.8,6.6-7Z"/>
      <path class="st9" d="M721.6,2078.6v13.5h-4.4v-12.6c0-3.3-1.4-5.1-4.7-5.1s-5.8,2.5-5.8,6.6v11.1h-4.4v-21.4h4.4v3.5c1.5-2.5,3.8-4,7.2-4,4.8,0,7.7,3.2,7.7,8.4Z"/>
      <path class="st9" d="M742.5,2091c-1.2.7-3.7,1.6-6.1,1.6-4.4,0-7.8-2.8-7.8-8.7v-9.1h-4v-4.1h4v-4.9l4.4-1v5.8h8.8v4.1h-8.8v8.8c0,3.1,1.4,4.8,4.2,4.8s2.9-.5,4.6-1l.8,3.6Z"/>
      <path class="st9" d="M766.6,2082.6h-17.4c.3,3.9,3.1,6.1,6.7,6.1s4.7-1.1,5.7-3.2h4.6c-1.7,4.8-5.8,7-10.3,7-6.5,0-11.1-4.7-11.1-11.1s4.6-11.2,11.1-11.2,11.2,5.3,10.8,12.4ZM749.5,2079h12.5c-.7-2.9-2.9-5-6.1-5s-5.6,2.1-6.3,5Z"/>
      <path class="st9" d="M790.2,2078.6v13.5h-4.4v-12.6c0-3.3-1.4-5.1-4.7-5.1s-5.8,2.5-5.8,6.6v11.1h-4.4v-21.4h4.4v3.5c1.5-2.5,3.8-4,7.2-4,4.8,0,7.7,3.2,7.7,8.4Z"/>
      <path class="st9" d="M827.9,2082.6h-17.4c.3,3.9,3.1,6.1,6.7,6.1s4.7-1.1,5.7-3.2h4.6c-1.7,4.8-5.8,7-10.3,7-6.5,0-11.1-4.7-11.1-11.1s4.6-11.2,11.1-11.2,11.2,5.3,10.8,12.4ZM810.8,2079h12.5c-.7-2.9-2.9-5-6.1-5s-5.6,2.1-6.3,5Z"/>
      <path class="st9" d="M837.3,2063.7c0,1.6-1.2,2.8-2.9,2.8s-2.8-1.2-2.8-2.8,1.2-2.7,2.8-2.7,2.9,1.1,2.9,2.7ZM832.2,2070.7h4.4v21.4h-4.4v-21.4Z"/>
      <path class="st9" d="M860.9,2078.6v13.5h-4.4v-12.6c0-3.3-1.4-5.1-4.7-5.1s-5.8,2.5-5.8,6.6v11.1h-4.4v-21.4h4.4v3.5c1.5-2.5,3.8-4,7.2-4,4.8,0,7.7,3.2,7.7,8.4Z"/>
      <path class="st9" d="M896.5,2070.7v21.4h-4.4v-3.5c-1.5,2.4-3.8,4-7.1,4-4.7,0-7.6-3.2-7.6-8.4v-13.5h4.4v12.6c0,3.3,1.4,5.1,4.6,5.1s5.7-2.5,5.7-6.6v-11.1h4.4Z"/>
      <path class="st9" d="M920.8,2078.6v13.5h-4.4v-12.6c0-3.3-1.4-5.1-4.7-5.1s-5.8,2.5-5.8,6.6v11.1h-4.4v-21.4h4.4v3.5c1.5-2.5,3.8-4,7.2-4,4.8,0,7.7,3.2,7.7,8.4Z"/>
      <path class="st9" d="M947,2062.1v30h-4.4v-3.6c-1.6,2.4-4.2,4-7.5,4-5.7,0-9.9-4.6-9.9-11.2s4.2-11.2,9.8-11.2,6,1.7,7.5,4.1v-12.2h4.4ZM942.6,2081.4c0-4.1-2.8-7-6.6-7s-6.4,2.9-6.4,7,2.7,7,6.4,7,6.6-2.8,6.6-7Z"/>
      <path class="st9" d="M984.8,2070.7v21.4h-4.4v-3.6c-1.6,2.5-4.1,4-7.5,4-5.7,0-9.9-4.6-9.9-11.2s4.2-11.2,9.8-11.2,6,1.7,7.5,4.1v-3.7h4.4ZM980.5,2081.4c0-4.1-2.8-7-6.6-7s-6.4,2.9-6.4,7,2.7,7,6.4,7,6.6-2.8,6.6-7Z"/>
      <path class="st9" d="M1008.8,2070.7v21.4h-4.4v-3.5c-1.5,2.4-3.8,4-7.1,4-4.7,0-7.6-3.2-7.6-8.4v-13.5h4.4v12.6c0,3.3,1.4,5.1,4.6,5.1s5.7-2.5,5.7-6.6v-11.1h4.4Z"/>
      <path class="st9" d="M1012.8,2085.2h4.5c.7,2.4,2.4,3.5,6.1,3.5s4.6-.9,4.6-2.5-2-2.1-5.6-2.9c-6-1.5-8.5-2.7-8.5-6.3s3.7-6.8,9-6.8,8.6,2.6,9.3,6.5h-4.4c-.6-1.7-2.3-2.6-5-2.6s-4.5,1-4.5,2.5,1.3,1.7,5.1,2.6c5.8,1.4,9.1,2.4,9.1,6.5s-4.1,6.8-9.2,6.8-9.7-2.7-10.5-7.4Z"/>
      <path class="st9" d="M1067.2,2070.7v21.4h-4.4v-3.5c-1.5,2.4-3.8,4-7.1,4-4.7,0-7.6-3.2-7.6-8.4v-13.5h4.4v12.6c0,3.3,1.4,5.1,4.6,5.1s5.7-2.5,5.7-6.6v-11.1h4.4Z"/>
      <path class="st9" d="M1091.5,2078.6v13.5h-4.4v-12.6c0-3.3-1.4-5.1-4.7-5.1s-5.8,2.5-5.8,6.6v11.1h-4.4v-21.4h4.4v3.5c1.5-2.5,3.8-4,7.2-4,4.8,0,7.7,3.2,7.7,8.4Z"/>
      <path class="st9" d="M1117.7,2062.1v30h-4.4v-3.6c-1.6,2.4-4.2,4-7.5,4-5.7,0-9.9-4.6-9.9-11.2s4.2-11.2,9.8-11.2,6,1.7,7.5,4.1v-12.2h4.4ZM1113.3,2081.4c0-4.1-2.8-7-6.6-7s-6.4,2.9-6.4,7,2.7,7,6.4,7,6.6-2.8,6.6-7Z"/>
      <path class="st9" d="M1155.5,2070.7v21.4h-4.4v-3.6c-1.6,2.5-4.1,4-7.5,4-5.7,0-9.9-4.6-9.9-11.2s4.2-11.2,9.8-11.2,6,1.7,7.5,4.1v-3.7h4.4ZM1151.2,2081.4c0-4.1-2.8-7-6.6-7s-6.4,2.9-6.4,7,2.7,7,6.4,7,6.6-2.8,6.6-7Z"/>
      <path class="st9" d="M1175.3,2092.1l-10.1-9.9v9.9h-4.4v-30h4.4v17.8l9.3-9.3h5.6l-10.5,10.2,11.3,11.2h-5.7Z"/>
      <path class="st9" d="M1200.8,2091c-1.2.7-3.7,1.6-6.1,1.6-4.4,0-7.8-2.8-7.8-8.7v-9.1h-4v-4.1h4v-4.9l4.4-1v5.8h8.8v4.1h-8.8v8.8c0,3.1,1.4,4.8,4.2,4.8s2.9-.5,4.6-1l.8,3.6Z"/>
      <path class="st9" d="M1209.8,2063.7c0,1.6-1.2,2.8-2.9,2.8s-2.8-1.2-2.8-2.8,1.2-2.7,2.8-2.7,2.9,1.1,2.9,2.7ZM1204.8,2070.7h4.4v21.4h-4.4v-21.4Z"/>
      <path class="st9" d="M1233.4,2070.7l-7.7,21.4h-5.3l-7.7-21.4h4.7l5.7,16.8,5.7-16.8h4.7Z"/>
      <path class="st9" d="M1241.9,2063.7c0,1.6-1.2,2.8-2.9,2.8s-2.8-1.2-2.8-2.8,1.2-2.7,2.8-2.7,2.9,1.1,2.9,2.7ZM1236.9,2070.7h4.4v21.4h-4.4v-21.4Z"/>
      <path class="st9" d="M1267.5,2082.6h-17.4c.3,3.9,3.1,6.1,6.7,6.1s4.7-1.1,5.7-3.2h4.6c-1.7,4.8-5.8,7-10.3,7-6.5,0-11.1-4.7-11.1-11.1s4.6-11.2,11.1-11.2,11.2,5.3,10.8,12.4ZM1250.4,2079h12.5c-.7-2.9-2.9-5-6.1-5s-5.6,2.1-6.3,5Z"/>
      <path class="st9" d="M1284.6,2070.3v4.5c-.4,0-.7,0-1.3,0-4,0-7.1,2.3-7.1,7.5v9.8h-4.4v-21.4h4.4v4.2c1.3-3,3.7-4.7,7.1-4.7s1,0,1.3.1Z"/>
      <path class="st9" d="M1308.9,2082.6h-17.4c.3,3.9,3.1,6.1,6.7,6.1s4.7-1.1,5.7-3.2h4.6c-1.7,4.8-5.8,7-10.3,7-6.5,0-11.1-4.7-11.1-11.1s4.6-11.2,11.1-11.2,11.2,5.3,10.8,12.4ZM1291.7,2079h12.5c-.7-2.9-2.9-5-6.1-5s-5.6,2.1-6.3,5Z"/>
      <path class="st9" d="M1332.4,2078.6v13.5h-4.4v-12.6c0-3.3-1.4-5.1-4.7-5.1s-5.8,2.5-5.8,6.6v11.1h-4.4v-21.4h4.4v3.5c1.5-2.5,3.8-4,7.2-4,4.8,0,7.7,3.2,7.7,8.4Z"/>
      <path class="st9" d="M1347.9,2085.2h4.5c.7,2.4,2.4,3.5,6.1,3.5s4.6-.9,4.6-2.5-2-2.1-5.6-2.9c-6-1.5-8.5-2.7-8.5-6.3s3.7-6.8,9-6.8,8.6,2.6,9.3,6.5h-4.4c-.6-1.7-2.3-2.6-5-2.6s-4.5,1-4.5,2.5,1.3,1.7,5.1,2.6c5.8,1.4,9.1,2.4,9.1,6.5s-4.1,6.8-9.2,6.8-9.7-2.7-10.5-7.4Z"/>
      <path class="st9" d="M1393.2,2081.4c0,6.4-4.9,11.2-11.1,11.2s-11.1-4.8-11.1-11.2,5-11.2,11.1-11.2,11.1,4.7,11.1,11.2ZM1375.4,2081.4c0,4.1,2.9,7,6.7,7s6.7-2.8,6.7-7-3-7-6.7-7-6.7,2.8-6.7,7Z"/>
    </g>
    <g class="st3">
      <path class="st9" d="M565.8,2130.4c0,1.6-1.2,2.8-2.9,2.8s-2.8-1.2-2.8-2.8,1.2-2.7,2.8-2.7,2.9,1.1,2.9,2.7ZM560.7,2137.3h4.4v31.1h-4.4v-31.1Z"/>
      <path class="st9" d="M591.4,2149.3h-17.4c.3,3.9,3.1,6.1,6.7,6.1s4.7-1.1,5.7-3.2h4.6c-1.7,4.8-5.8,7-10.3,7-6.5,0-11.1-4.7-11.1-11.1s4.6-11.2,11.1-11.2,11.2,5.3,10.8,12.4ZM574.2,2145.7h12.5c-.7-2.9-2.9-5-6.1-5s-5.6,2.1-6.3,5Z"/>
      <path class="st9" d="M625,2137.3l-6.1,21.4h-5.1l-2.1-7.2-2.1-9.8h-.7l-2.1,9.8-2.1,7.2h-5.1l-6.1-21.4h4.4l1.9,6.7,2.5,10,2.5-10,1.9-6.7h5.3l1.9,6.7,2.5,10,2.5-10,1.9-6.7h4.4Z"/>
      <path class="st9" d="M648.6,2149.3h-17.4c.3,3.9,3.1,6.1,6.7,6.1s4.7-1.1,5.7-3.2h4.6c-1.7,4.8-5.8,7-10.3,7-6.5,0-11.1-4.7-11.1-11.1s4.6-11.2,11.1-11.2,11.2,5.3,10.8,12.4ZM631.4,2145.7h12.5c-.7-2.9-2.9-5-6.1-5s-5.6,2.1-6.3,5Z"/>
      <path class="st9" d="M657.9,2130.4c0,1.6-1.2,2.8-2.9,2.8s-2.8-1.2-2.8-2.8,1.2-2.7,2.8-2.7,2.9,1.1,2.9,2.7ZM652.9,2137.3h4.4v21.4h-4.4v-21.4Z"/>
      <path class="st9" d="M662.4,2128.8h4.4v30h-4.4v-30Z"/>
      <path class="st9" d="M670.8,2151.9h4.5c.7,2.4,2.4,3.5,6.1,3.5s4.6-.9,4.6-2.5-2-2.1-5.6-2.9c-6-1.5-8.5-2.7-8.5-6.3s3.7-6.8,9-6.8,8.6,2.6,9.3,6.5h-4.4c-.6-1.7-2.3-2.6-5-2.6s-4.5,1-4.5,2.5,1.3,1.7,5.1,2.6c5.8,1.4,9.1,2.4,9.1,6.5s-4.1,6.8-9.2,6.8-9.7-2.7-10.5-7.4Z"/>
      <path class="st9" d="M727.4,2149.3h-17.4c.3,3.9,3.1,6.1,6.7,6.1s4.7-1.1,5.7-3.2h4.6c-1.7,4.8-5.8,7-10.3,7-6.5,0-11.1-4.7-11.1-11.1s4.6-11.2,11.1-11.2,11.2,5.3,10.8,12.4ZM710.2,2145.7h12.5c-.7-2.9-2.9-5-6.1-5s-5.6,2.1-6.3,5Z"/>
      <path class="st9" d="M736.7,2130.4c0,1.6-1.2,2.8-2.9,2.8s-2.8-1.2-2.8-2.8,1.2-2.7,2.8-2.7,2.9,1.1,2.9,2.7ZM731.7,2137.3h4.4v21.4h-4.4v-21.4Z"/>
      <path class="st9" d="M760.4,2145.2v13.5h-4.4v-12.6c0-3.3-1.4-5.1-4.7-5.1s-5.8,2.5-5.8,6.6v11.1h-4.4v-21.4h4.4v3.5c1.5-2.5,3.8-4,7.2-4,4.8,0,7.7,3.2,7.7,8.4Z"/>
      <path class="st9" d="M786.5,2149.3h-17.4c.3,3.9,3.1,6.1,6.7,6.1s4.7-1.1,5.7-3.2h4.6c-1.7,4.8-5.8,7-10.3,7-6.5,0-11.1-4.7-11.1-11.1s4.6-11.2,11.1-11.2,11.2,5.3,10.8,12.4ZM769.3,2145.7h12.5c-.7-2.9-2.9-5-6.1-5s-5.6,2.1-6.3,5Z"/>
      <path class="st9" d="M824.4,2148c0,6.5-4.2,11.2-9.9,11.2s-5.9-1.6-7.5-4v13.3h-4.4v-31.1h4.4v3.7c1.6-2.4,4.1-4.1,7.5-4.1,5.6,0,9.8,4.6,9.8,11.2ZM820,2148c0-4.1-2.6-7-6.4-7s-6.6,2.9-6.6,7,2.8,7,6.6,7,6.4-2.8,6.4-7Z"/>
      <path class="st9" d="M848.3,2145.2v13.5h-4.4v-12.6c0-3.3-1.5-5.1-4.7-5.1s-5.8,2.5-5.8,6.6v11.1h-4.4v-30h4.4v12.1c1.5-2.5,3.9-4,7.2-4,4.8,0,7.7,3.2,7.7,8.4Z"/>
      <path class="st9" d="M873.2,2137.3l-14.2,31.1h-4.7l5.6-12.5-8.4-18.7h4.7l6.1,13.9,6.2-13.9h4.7Z"/>
      <path class="st9" d="M874.9,2151.9h4.5c.7,2.4,2.4,3.5,6.1,3.5s4.6-.9,4.6-2.5-2-2.1-5.6-2.9c-6-1.5-8.5-2.7-8.5-6.3s3.7-6.8,9-6.8,8.6,2.6,9.3,6.5h-4.4c-.6-1.7-2.3-2.6-5-2.6s-4.5,1-4.5,2.5,1.3,1.7,5.1,2.6c5.8,1.4,9.1,2.4,9.1,6.5s-4.1,6.8-9.2,6.8-9.7-2.7-10.5-7.4Z"/>
      <path class="st9" d="M903.8,2130.4c0,1.6-1.2,2.8-2.9,2.8s-2.8-1.2-2.8-2.8,1.2-2.7,2.8-2.7,2.9,1.1,2.9,2.7ZM898.7,2137.3h4.4v21.4h-4.4v-21.4Z"/>
      <path class="st9" d="M922.9,2158.7l-10.1-9.9v9.9h-4.4v-30h4.4v17.8l9.3-9.3h5.6l-10.5,10.2,11.3,11.2h-5.7Z"/>
      <path class="st9" d="M950.8,2137.3v21.4h-4.4v-3.6c-1.6,2.5-4.1,4-7.5,4-5.7,0-9.9-4.6-9.9-11.2s4.2-11.2,9.8-11.2,6,1.7,7.5,4.1v-3.7h4.4ZM946.4,2148c0-4.1-2.8-7-6.6-7s-6.4,2.9-6.4,7,2.7,7,6.4,7,6.6-2.8,6.6-7Z"/>
      <path class="st9" d="M955.9,2128.8h4.4v30h-4.4v-30Z"/>
      <path class="st9" d="M970.5,2130.4c0,1.6-1.2,2.8-2.9,2.8s-2.8-1.2-2.8-2.8,1.2-2.7,2.8-2.7,2.9,1.1,2.9,2.7ZM965.4,2137.3h4.4v21.4h-4.4v-21.4Z"/>
      <path class="st9" d="M973.8,2151.9h4.5c.7,2.4,2.4,3.5,6.1,3.5s4.6-.9,4.6-2.5-2-2.1-5.6-2.9c-6-1.5-8.5-2.7-8.5-6.3s3.7-6.8,9-6.8,8.6,2.6,9.3,6.5h-4.4c-.6-1.7-2.3-2.6-5-2.6s-4.5,1-4.5,2.5,1.3,1.7,5.1,2.6c5.8,1.4,9.1,2.4,9.1,6.5s-4.1,6.8-9.2,6.8-9.7-2.7-10.5-7.4Z"/>
      <path class="st9" d="M996.9,2148c0-6.4,4.7-11.2,11.1-11.2s9.5,3.1,10.5,8.2h-4.6c-.8-2.7-3.2-4.2-6-4.2-4,0-6.7,3-6.7,7.1s2.8,7.1,6.7,7.1,5.2-1.6,6-4.2h4.6c-1,5.3-5.5,8.3-10.5,8.3s-11.1-4.8-11.1-11.2Z"/>
      <path class="st9" d="M1042,2145.2v13.5h-4.4v-12.6c0-3.3-1.5-5.1-4.7-5.1s-5.8,2.5-5.8,6.6v11.1h-4.4v-30h4.4v12.1c1.5-2.5,3.9-4,7.2-4,4.8,0,7.7,3.2,7.7,8.4Z"/>
      <path class="st9" d="M1068.1,2149.3h-17.4c.3,3.9,3.1,6.1,6.7,6.1s4.7-1.1,5.7-3.2h4.6c-1.7,4.8-5.8,7-10.3,7-6.5,0-11.1-4.7-11.1-11.1s4.6-11.2,11.1-11.2,11.2,5.3,10.8,12.4ZM1050.9,2145.7h12.5c-.7-2.9-2.9-5-6.1-5s-5.6,2.1-6.3,5Z"/>
      <path class="st9" d="M1103.7,2135.7h-8.3v23h-4.4v-23h-8.3v-4.2h21v4.2Z"/>
      <path class="st9" d="M1126.9,2145.2v13.5h-4.4v-12.6c0-3.3-1.5-5.1-4.7-5.1s-5.8,2.5-5.8,6.6v11.1h-4.4v-30h4.4v12.1c1.5-2.5,3.9-4,7.2-4,4.8,0,7.7,3.2,7.7,8.4Z"/>
      <path class="st9" d="M1152.9,2149.3h-17.4c.3,3.9,3.1,6.1,6.7,6.1s4.7-1.1,5.7-3.2h4.6c-1.7,4.8-5.8,7-10.3,7-6.5,0-11.1-4.7-11.1-11.1s4.6-11.2,11.1-11.2,11.2,5.3,10.8,12.4ZM1135.8,2145.7h12.5c-.7-2.9-2.9-5-6.1-5s-5.6,2.1-6.3,5Z"/>
      <path class="st9" d="M1178.7,2148c0,6.4-4.9,11.2-11.1,11.2s-11.1-4.8-11.1-11.2,5-11.2,11.1-11.2,11.1,4.7,11.1,11.2ZM1160.9,2148c0,4.1,2.9,7,6.7,7s6.7-2.8,6.7-7-3-7-6.7-7-6.7,2.8-6.7,7Z"/>
      <path class="st9" d="M1195.9,2137v4.5c-.4,0-.7,0-1.3,0-4,0-7.1,2.3-7.1,7.5v9.8h-4.4v-21.4h4.4v4.2c1.3-3,3.7-4.7,7.1-4.7s1,0,1.3.1Z"/>
      <path class="st9" d="M1204.4,2130.4c0,1.6-1.2,2.8-2.9,2.8s-2.8-1.2-2.8-2.8,1.2-2.7,2.8-2.7,2.9,1.1,2.9,2.7ZM1199.4,2137.3h4.4v21.4h-4.4v-21.4Z"/>
      <path class="st9" d="M1230,2149.3h-17.4c.3,3.9,3.1,6.1,6.7,6.1s4.7-1.1,5.7-3.2h4.6c-1.7,4.8-5.8,7-10.3,7-6.5,0-11.1-4.7-11.1-11.1s4.6-11.2,11.1-11.2,11.2,5.3,10.8,12.4ZM1212.9,2145.7h12.5c-.7-2.9-2.9-5-6.1-5s-5.6,2.1-6.3,5Z"/>
      <path class="st9" d="M1240.2,2156.5c0,1.6-1.2,2.8-2.9,2.8s-2.8-1.2-2.8-2.8,1.2-2.7,2.8-2.7,2.9,1.1,2.9,2.7Z"/>
    </g>
  </g>
  <g id="Icon_carbon-touch-1-filled">
    <path id="Pfad_173" class="st9" d="M403.8,1989.3c-21.6,0-39.1,17.5-39.1,39.1h13c-.1-14.4,11.4-26.2,25.8-26.3,14.4-.1,26.2,11.4,26.3,25.8,0,.2,0,.4,0,.5h13c0-21.6-17.5-39.1-39.1-39.1Z"/>
    <path id="Pfad_174" class="st9" d="M455.9,2171.7h-28.9c-6.5,0-12.8-2.5-17.7-6.9l-59.9-55.2c-5.3-4.9-5.7-13.1-.8-18.4.5-.5,1-1,1.6-1.5,5.3-3.9,12.6-3.4,17.3,1.1l23.3,21.3v-83.8c0-7.2,5.8-13,13-13s13,5.8,13,13v45.6c0-7.2,5.8-13,13-13s13,5.8,13,13v6.5c0-7.2,5.8-13,13-13s13,5.8,13,13h0v6.5c0-7.2,5.8-13,13-13s13,5.8,13,13v45.6c0,21.6-17.5,39.1-39.1,39.1Z"/>
  </g>
  <g id="Gruppe_88">
    <g id="Gc_h_k_" class="st3">
      <g class="st3">
        <path class="st9" d="M1022.6,1638.1c-2.2,1.7-5.4,2.6-9.1,2.6-7.7,0-12.4-5-12.4-14.1s4.3-14.1,12.6-14.1,6.7,1,8.8,2.7v5.4h-2.5v-4.1c-1.6-1-3.9-1.6-6.3-1.6-6.5,0-9.7,4.6-9.7,11.6s3.9,11.8,9.5,11.8,4.9-.6,6.5-1.5v-7.5h-5.8v-2.4h8.3v11.2Z"/>
      </g>
      <g class="st3">
        <path class="st9" d="M1010.6,1699.5c2.1,0,4.3-.7,5.4-1.8l1.4,1.8c-1.8,1.5-4,2.4-7.1,2.4-5.6,0-9.6-3.5-9.6-10.3s4.2-10.1,9.2-10.1,4.9.7,6.3,1.9v5.5h-2.4v-4.2c-1-.6-2.3-.9-3.7-.9-3.7,0-6.5,2.5-6.5,7.7s3,7.9,7,7.9Z"/>
      </g>
      <g class="st3">
        <path class="st9" d="M1019.4,1679.9h4.8v1.8h-4.8v-1.8Z"/>
      </g>
      <g class="st3">
        <path class="st9" d="M1030.1,1673.8h1.6v19.1h-2.5v-16.3l-3,1.6v-2.2l3.9-2.1Z"/>
      </g>
      <g class="st3">
        <path class="st9" d="M1021.3,1762.5h-5.2v-11.2c0-4.1-1.7-6.3-4.9-6.3s-5.7,1.7-5.7,6.5v8.8h2.6v2.2h-7.9v-2.2h2.6v-23.7h-2.6v-2.2h5.2v11.8c1.1-2.1,3.2-3.7,6.3-3.7,4.5,0,6.9,3.2,6.9,8.7v9.1h2.6v2.2Z"/>
      </g>
      <g class="st3">
        <path class="st9" d="M1008.1,1823.6h-7.8v-2.2h2.6v-23.7h-2.6v-2.2h5.2v16.6l7.5-5.9h-2.5v-2.2h8.6l.2,2.2h-3l-8,6.3,9.1,8.8h2.5v2.2h-8.2v-2.2h2.3l-8.5-8.3v8.3h2.6v2.2Z"/>
      </g>
    </g>
    <g id="B_" class="st3">
      <g class="st3">
        <path class="st9" d="M1024,1816.2h1.7v-13.3h-1.7v-1.3h5.8c2.9,0,4.8,1.2,4.8,3.9s-.9,2.9-2.3,3.4c2.1.5,3.4,1.7,3.4,4s-2.1,4.6-5.3,4.6h-6.4v-1.3ZM1027.3,1802.8v5.4h2.5c2.2,0,3.2-1.1,3.2-2.7s-1-2.7-3.2-2.7h-2.5ZM1027.3,1809.5v6.6h3c2.6,0,3.8-1.4,3.8-3.4s-1.1-3.2-3.8-3.2h-3Z"/>
      </g>
    </g>
    <g id="_" class="st3">
      <g class="st3">
        <path class="st9" d="M1062.1,1627.2h-15.3v-2.2h15.3v2.2ZM1062.1,1632.8h-15.3v-2.2h15.3v2.2Z"/>
      </g>
      <g class="st3">
        <path class="st9" d="M1062.1,1688.3h-15.3v-2.2h15.3v2.2ZM1062.1,1693.9h-15.3v-2.2h15.3v2.2Z"/>
      </g>
      <g class="st3">
        <path class="st9" d="M1062.1,1749.4h-15.3v-2.2h15.3v2.2ZM1062.1,1755h-15.3v-2.2h15.3v2.2Z"/>
      </g>
      <g class="st3">
        <path class="st9" d="M1062.1,1810.6h-15.3v-2.2h15.3v2.2ZM1062.1,1816.1h-15.3v-2.2h15.3v2.2Z"/>
      </g>
    </g>
    <g id="Gravitationskonstante_Inverse_Lichtgeschwindigkeit_Planck-Konstante_Boltzmann-Konstante_" class="st3">
      <g class="st3">
        <path class="st9" d="M1110.1,1638.1c-2.2,1.7-5.4,2.6-9.1,2.6-7.7,0-12.4-5-12.4-14.1s4.3-14.1,12.6-14.1,6.7,1,8.8,2.7v5.4h-2.5v-4.1c-1.6-1-3.9-1.6-6.3-1.6-6.5,0-9.7,4.6-9.7,11.6s3.9,11.8,9.5,11.8,4.9-.6,6.5-1.5v-7.5h-5.8v-2.4h8.3v11.2Z"/>
        <path class="st9" d="M1123,1640.3h-8.6v-2.2h2.6v-15.1h-2.6v-2.2h5l.2,3.3c.8-1.9,2.2-3.8,5.3-3.8s1.6.1,2.3.4l-.4,2.3c-.8-.2-1.5-.3-2.1-.3-3.2,0-5.1,2.9-5.1,7.7v7.6h3.4v2.2Z"/>
        <path class="st9" d="M1146.7,1640.3h-4.8l-.2-2.7c-1.3,1.9-3.4,3.2-6.4,3.2-4.3,0-6.2-2.7-6.2-5.9s2.2-5.8,7.8-5.8h4.7v-1.9c0-2.8-1.7-4.6-4.9-4.6s-3.1.2-4.1.5v3.2h-2.3v-4.7c1.4-.7,3.8-1.2,6.5-1.2,4.9,0,7.5,2.3,7.5,6.8v11h2.5v2.2ZM1141.6,1632.9v-1.9h-4.6c-3.5,0-5.2,1.4-5.2,3.8s1.2,3.7,3.9,3.7,5.9-2.4,5.9-5.5Z"/>
        <path class="st9" d="M1156.3,1640.3l-6.7-17.3h-2.2v-2.2h7.2v2.2h-2.2l5.2,14.6,5.2-14.6h-2.1v-2.2h7.2v2.2h-2.3l-6.6,17.3h-2.6Z"/>
        <path class="st9" d="M1170,1620.8h5.2v17.3h2.6v2.2h-7.8v-2.2h2.6v-15.1h-2.6v-2.2ZM1173.9,1612.3c1.2,0,1.8.8,1.8,1.8s-.6,1.7-1.8,1.7-1.8-.7-1.8-1.7.6-1.8,1.8-1.8Z"/>
        <path class="st9" d="M1180,1620.8h3.2v-4.7h2.6v4.7h4.8v2.2h-4.8v11.8c0,2.8,1.2,3.7,2.8,3.7s1.5-.1,2.4-.4l.3,2.1c-1.1.3-1.8.5-2.9.5-3.5,0-5.3-1.7-5.3-6.2v-11.5h-3.2v-2.2Z"/>
        <path class="st9" d="M1211.2,1640.3h-4.8l-.2-2.7c-1.3,1.9-3.4,3.2-6.4,3.2-4.3,0-6.2-2.7-6.2-5.9s2.2-5.8,7.8-5.8h4.7v-1.9c0-2.8-1.7-4.6-4.9-4.6s-3.1.2-4.1.5v3.2h-2.3v-4.7c1.4-.7,3.8-1.2,6.5-1.2,4.9,0,7.5,2.3,7.5,6.8v11h2.5v2.2ZM1206.1,1632.9v-1.9h-4.6c-3.5,0-5.2,1.4-5.2,3.8s1.2,3.7,3.9,3.7,5.9-2.4,5.9-5.5Z"/>
        <path class="st9" d="M1213,1620.8h3.2v-4.7h2.6v4.7h4.8v2.2h-4.8v11.8c0,2.8,1.2,3.7,2.8,3.7s1.5-.1,2.4-.4l.3,2.1c-1.1.3-1.8.5-2.9.5-3.5,0-5.3-1.7-5.3-6.2v-11.5h-3.2v-2.2Z"/>
        <path class="st9" d="M1226.6,1620.8h5.2v17.3h2.6v2.2h-7.8v-2.2h2.6v-15.1h-2.6v-2.2ZM1230.5,1612.3c1.2,0,1.8.8,1.8,1.8s-.6,1.7-1.8,1.7-1.8-.7-1.8-1.7.6-1.8,1.8-1.8Z"/>
        <path class="st9" d="M1246.8,1620.4c5.6,0,9.2,4,9.2,10.1s-3.6,10.3-9.2,10.3-9.3-4.2-9.3-10.3,3.6-10.1,9.3-10.1ZM1246.8,1622.7c-4.2,0-6.5,3.2-6.5,7.7s2.3,8,6.5,8,6.5-3.5,6.5-8-2.3-7.7-6.5-7.7Z"/>
        <path class="st9" d="M1280.4,1640.3h-5.2v-11.2c0-4.1-1.8-6.3-4.9-6.3s-5.7,1.7-5.7,6.5v8.8h2.6v2.2h-7.8v-2.2h2.6v-15.1h-2.6v-2.2h5l.2,3.3c1.1-2.1,3.2-3.7,6.3-3.7,4.6,0,7,3.2,7,8.7v9.1h2.6v2.2Z"/>
        <path class="st9" d="M1285.8,1634.6v3.5c1.7.5,3.3.6,5,.6,3.1,0,4.8-1.1,4.8-3.4s-1.1-2.8-4-3.5l-2.8-.7c-3.8-1-5.4-2.5-5.4-5.3,0-4.2,3.9-5.4,7.4-5.4s5.3.8,6.6,1.4v5h-2.3v-3.6c-1.3-.4-2.6-.7-4.3-.7-2.6,0-4.9.7-4.9,3s.6,2.4,3.7,3.2l2.8.7c3.6.9,5.6,2.3,5.6,5.5s-3.1,5.9-7.2,5.9-5.1-.3-7.3-1.2v-5h2.3Z"/>
        <path class="st9" d="M1309,1640.3h-7.8v-2.2h2.6v-23.7h-2.6v-2.2h5.2v16.6l7.5-5.9h-2.5v-2.2h8.6l.2,2.2h-3l-8,6.3,9.1,8.8h2.5v2.2h-8.2v-2.2h2.3l-8.5-8.3v8.3h2.6v2.2Z"/>
        <path class="st9" d="M1331.3,1620.4c5.6,0,9.2,4,9.2,10.1s-3.6,10.3-9.2,10.3-9.3-4.2-9.3-10.3,3.6-10.1,9.3-10.1ZM1331.3,1622.7c-4.2,0-6.5,3.2-6.5,7.7s2.3,8,6.5,8,6.5-3.5,6.5-8-2.3-7.7-6.5-7.7Z"/>
        <path class="st9" d="M1365,1640.3h-5.2v-11.2c0-4.1-1.8-6.3-4.9-6.3s-5.7,1.7-5.7,6.5v8.8h2.6v2.2h-7.8v-2.2h2.6v-15.1h-2.6v-2.2h5l.2,3.3c1.1-2.1,3.2-3.7,6.3-3.7,4.6,0,7,3.2,7,8.7v9.1h2.6v2.2Z"/>
        <path class="st9" d="M1370.3,1634.6v3.5c1.7.5,3.3.6,5,.6,3.1,0,4.8-1.1,4.8-3.4s-1.1-2.8-4-3.5l-2.8-.7c-3.8-1-5.4-2.5-5.4-5.3,0-4.2,3.9-5.4,7.4-5.4s5.3.8,6.6,1.4v5h-2.3v-3.6c-1.3-.4-2.6-.7-4.3-.7-2.6,0-4.9.7-4.9,3s.6,2.4,3.7,3.2l2.8.7c3.6.9,5.6,2.3,5.6,5.5s-3.1,5.9-7.2,5.9-5.1-.3-7.3-1.2v-5h2.3Z"/>
        <path class="st9" d="M1385.3,1620.8h3.2v-4.7h2.6v4.7h4.8v2.2h-4.8v11.8c0,2.8,1.2,3.7,2.8,3.7s1.5-.1,2.4-.4l.3,2.1c-1.1.3-1.8.5-2.9.5-3.5,0-5.3-1.7-5.3-6.2v-11.5h-3.2v-2.2Z"/>
        <path class="st9" d="M1416.5,1640.3h-4.8l-.2-2.7c-1.3,1.9-3.4,3.2-6.4,3.2-4.3,0-6.2-2.7-6.2-5.9s2.2-5.8,7.8-5.8h4.7v-1.9c0-2.8-1.7-4.6-4.9-4.6s-3.1.2-4.1.5v3.2h-2.3v-4.7c1.4-.7,3.8-1.2,6.5-1.2,4.9,0,7.5,2.3,7.5,6.8v11h2.5v2.2ZM1411.4,1632.9v-1.9h-4.6c-3.5,0-5.2,1.4-5.2,3.8s1.2,3.7,3.9,3.7,5.9-2.4,5.9-5.5Z"/>
        <path class="st9" d="M1440.2,1640.3h-5.2v-11.2c0-4.1-1.8-6.3-4.9-6.3s-5.7,1.7-5.7,6.5v8.8h2.6v2.2h-7.8v-2.2h2.6v-15.1h-2.6v-2.2h5l.2,3.3c1.1-2.1,3.2-3.7,6.3-3.7,4.6,0,7,3.2,7,8.7v9.1h2.6v2.2Z"/>
        <path class="st9" d="M1442,1620.8h3.2v-4.7h2.6v4.7h4.8v2.2h-4.8v11.8c0,2.8,1.2,3.7,2.8,3.7s1.5-.1,2.4-.4l.3,2.1c-1.1.3-1.8.5-2.9.5-3.5,0-5.3-1.7-5.3-6.2v-11.5h-3.2v-2.2Z"/>
        <path class="st9" d="M1464,1620.4c5.2,0,8.5,3.9,8.5,9.3v1h-14.4c0,4.5,2.2,7.8,6.8,7.8s4.7-1,6-2.2l1.4,1.7c-1.6,1.7-4.2,2.8-7.5,2.8-5.6,0-9.3-3.5-9.3-10.3s3.3-10.1,8.6-10.1ZM1458.3,1628.5h11.6c-.3-3.5-2.4-6-5.8-6s-5.3,2.4-5.8,6Z"/>
      </g>
      <g class="st3">
        <path class="st9" d="M1097.1,1676.3h-2.9v22.9h2.9v2.2h-8.6v-2.2h2.9v-22.9h-2.9v-2.2h8.6v2.2Z"/>
        <path class="st9" d="M1121.7,1701.4h-5.2v-11.2c0-4.1-1.8-6.3-4.9-6.3s-5.7,1.7-5.7,6.5v8.8h2.6v2.2h-7.8v-2.2h2.6v-15.1h-2.6v-2.2h5l.2,3.3c1.1-2.1,3.2-3.7,6.3-3.7,4.6,0,7,3.2,7,8.7v9.1h2.6v2.2Z"/>
        <path class="st9" d="M1131.1,1701.4l-6.7-17.3h-2.2v-2.2h7.2v2.2h-2.2l5.2,14.6,5.2-14.6h-2.1v-2.2h7.2v2.2h-2.3l-6.6,17.3h-2.6Z"/>
        <path class="st9" d="M1152.9,1681.5c5.2,0,8.5,3.9,8.5,9.3v1h-14.4c0,4.5,2.2,7.8,6.8,7.8s4.7-1,6-2.2l1.4,1.7c-1.6,1.7-4.2,2.8-7.5,2.8-5.6,0-9.3-3.5-9.3-10.3s3.3-10.1,8.6-10.1ZM1147.1,1689.6h11.6c-.3-3.5-2.4-6-5.8-6s-5.3,2.4-5.8,6Z"/>
        <path class="st9" d="M1173.3,1701.4h-8.6v-2.2h2.6v-15.1h-2.6v-2.2h5l.2,3.3c.8-1.9,2.2-3.8,5.3-3.8s1.6.1,2.3.4l-.4,2.3c-.8-.2-1.5-.3-2.1-.3-3.2,0-5.1,2.9-5.1,7.7v7.6h3.4v2.2Z"/>
        <path class="st9" d="M1182,1695.7v3.5c1.7.5,3.3.6,5,.6,3.1,0,4.8-1.1,4.8-3.4s-1.1-2.8-4-3.5l-2.8-.7c-3.8-1-5.4-2.5-5.4-5.3,0-4.2,3.9-5.4,7.4-5.4s5.3.8,6.6,1.4v5h-2.3v-3.6c-1.3-.4-2.6-.7-4.3-.7-2.6,0-4.9.7-4.9,3s.6,2.4,3.7,3.2l2.8.7c3.6.9,5.6,2.3,5.6,5.5s-3.1,5.9-7.2,5.9-5.1-.3-7.3-1.2v-5h2.3Z"/>
        <path class="st9" d="M1206.5,1681.5c5.2,0,8.5,3.9,8.5,9.3v1h-14.4c0,4.5,2.2,7.8,6.8,7.8s4.7-1,6-2.2l1.4,1.7c-1.6,1.7-4.2,2.8-7.5,2.8-5.6,0-9.3-3.5-9.3-10.3s3.3-10.1,8.6-10.1ZM1200.8,1689.6h11.6c-.3-3.5-2.4-6-5.8-6s-5.3,2.4-5.8,6Z"/>
        <path class="st9" d="M1245.1,1695.1l-.4,6.3h-17.2v-2.2h2.9v-22.9h-2.9v-2.2h9.3v2.2h-3.7v22.9h9.1l.3-4.1h2.6Z"/>
        <path class="st9" d="M1247.6,1681.9h5.2v17.3h2.6v2.2h-7.8v-2.2h2.6v-15.1h-2.6v-2.2ZM1251.4,1673.4c1.2,0,1.8.8,1.8,1.8s-.6,1.7-1.8,1.7-1.8-.7-1.8-1.7.6-1.8,1.8-1.8Z"/>
        <path class="st9" d="M1268.2,1699.5c2.1,0,4.3-.7,5.4-1.8l1.4,1.8c-1.8,1.5-4,2.4-7.1,2.4-5.6,0-9.6-3.5-9.6-10.3s4.2-10.1,9.2-10.1,4.9.7,6.3,1.9v5.5h-2.4v-4.2c-1-.6-2.3-.9-3.7-.9-3.7,0-6.5,2.5-6.5,7.7s3,7.9,7,7.9Z"/>
        <path class="st9" d="M1298.5,1701.4h-5.2v-11.2c0-4.1-1.7-6.3-4.9-6.3s-5.7,1.7-5.7,6.5v8.8h2.6v2.2h-7.9v-2.2h2.6v-23.7h-2.6v-2.2h5.2v11.8c1.1-2.1,3.2-3.7,6.3-3.7,4.5,0,6.9,3.2,6.9,8.7v9.1h2.6v2.2Z"/>
        <path class="st9" d="M1300.3,1681.9h3.2v-4.7h2.6v4.7h4.8v2.2h-4.8v11.8c0,2.8,1.2,3.7,2.8,3.7s1.5-.1,2.4-.4l.3,2.1c-1.1.3-1.8.5-2.9.5-3.5,0-5.3-1.7-5.3-6.2v-11.5h-3.2v-2.2Z"/>
        <path class="st9" d="M1334.4,1684.1h-2.6v16.3c0,6.7-4.1,9.8-10.1,9.8s-4.9-.4-6.4-1.2l.7-2.1c1.3.6,3.5,1,5.5,1,4.4,0,7.7-2.3,7.7-7.5v-2.4c-1.4,2.4-3.8,3.9-6.8,3.9-5,0-8.6-3.9-8.6-10.2s3.6-10.2,8.7-10.2,5.5,1.6,6.7,4l.2-3.5h5.1v2.2ZM1322.8,1699.5c3.9,0,6.4-3.2,6.4-7.9s-2.5-7.8-6.4-7.8-6.3,3.2-6.3,7.8,2.3,7.9,6.2,7.9Z"/>
        <path class="st9" d="M1346.1,1681.5c5.2,0,8.5,3.9,8.5,9.3v1h-14.4c0,4.5,2.2,7.8,6.8,7.8s4.7-1,6-2.2l1.4,1.7c-1.6,1.7-4.2,2.8-7.5,2.8-5.6,0-9.3-3.5-9.3-10.3s3.3-10.1,8.6-10.1ZM1340.3,1689.6h11.6c-.3-3.5-2.4-6-5.8-6s-5.3,2.4-5.8,6Z"/>
        <path class="st9" d="M1360.6,1695.7v3.5c1.7.5,3.3.6,5,.6,3.1,0,4.8-1.1,4.8-3.4s-1.1-2.8-4-3.5l-2.8-.7c-3.8-1-5.4-2.5-5.4-5.3,0-4.2,3.9-5.4,7.4-5.4s5.3.8,6.6,1.4v5h-2.3v-3.6c-1.3-.4-2.6-.7-4.3-.7-2.6,0-4.9.7-4.9,3s.6,2.4,3.7,3.2l2.8.7c3.6.9,5.6,2.3,5.6,5.5s-3.1,5.9-7.2,5.9-5.1-.3-7.3-1.2v-5h2.3Z"/>
        <path class="st9" d="M1386.4,1699.5c2.1,0,4.3-.7,5.4-1.8l1.4,1.8c-1.8,1.5-4,2.4-7.1,2.4-5.6,0-9.6-3.5-9.6-10.3s4.2-10.1,9.2-10.1,4.9.7,6.3,1.9v5.5h-2.4v-4.2c-1-.6-2.3-.9-3.7-.9-3.7,0-6.5,2.5-6.5,7.7s3,7.9,7,7.9Z"/>
        <path class="st9" d="M1416.7,1701.4h-5.2v-11.2c0-4.1-1.7-6.3-4.9-6.3s-5.7,1.7-5.7,6.5v8.8h2.6v2.2h-7.9v-2.2h2.6v-23.7h-2.6v-2.2h5.2v11.8c1.1-2.1,3.2-3.7,6.3-3.7,4.5,0,6.9,3.2,6.9,8.7v9.1h2.6v2.2Z"/>
        <path class="st9" d="M1424.6,1701.4l-5.3-17.3h-2.1v-2.2h6.9v2.2h-2.1l4,14.1,5.2-16.3h2.6l5.2,16.3,4-14.1h-2.1v-2.2h6.8v2.2h-2.2l-5.3,17.3h-2.7l-5.3-16.1-5.3,16.1h-2.7Z"/>
        <path class="st9" d="M1450.1,1681.9h5.2v17.3h2.6v2.2h-7.8v-2.2h2.6v-15.1h-2.6v-2.2ZM1454,1673.4c1.2,0,1.8.8,1.8,1.8s-.6,1.7-1.8,1.7-1.8-.7-1.8-1.7.6-1.8,1.8-1.8Z"/>
        <path class="st9" d="M1481.9,1701.4h-5.2v-11.2c0-4.1-1.8-6.3-4.9-6.3s-5.7,1.7-5.7,6.5v8.8h2.6v2.2h-7.8v-2.2h2.6v-15.1h-2.6v-2.2h5l.2,3.3c1.1-2.1,3.2-3.7,6.3-3.7,4.6,0,7,3.2,7,8.7v9.1h2.6v2.2Z"/>
        <path class="st9" d="M1502.7,1673.4v25.8h2.6v2.2h-5.1l-.2-2.6v-.7c-1.4,2.4-3.8,3.8-6.8,3.8-5,0-8.6-3.9-8.6-10.2s3.6-10.2,8.7-10.2,5.5,1.7,6.7,4v-9.9h-2.6v-2.2h5.2ZM1493.7,1699.5c3.9,0,6.4-3.2,6.4-7.9s-2.5-7.8-6.4-7.8-6.3,3.2-6.3,7.8,2.3,7.9,6.2,7.9Z"/>
        <path class="st9" d="M1508.2,1681.9h5.2v17.3h2.6v2.2h-7.8v-2.2h2.6v-15.1h-2.6v-2.2ZM1512.1,1673.4c1.2,0,1.8.8,1.8,1.8s-.6,1.7-1.8,1.7-1.8-.7-1.8-1.7.6-1.8,1.8-1.8Z"/>
        <path class="st9" d="M1539.7,1684.1h-2.6v16.3c0,6.7-4.1,9.8-10.1,9.8s-4.9-.4-6.4-1.2l.7-2.1c1.3.6,3.5,1,5.5,1,4.4,0,7.7-2.3,7.7-7.5v-2.4c-1.4,2.4-3.8,3.9-6.8,3.9-5,0-8.6-3.9-8.6-10.2s3.6-10.2,8.7-10.2,5.5,1.6,6.7,4l.2-3.5h5.1v2.2ZM1528.1,1699.5c3.9,0,6.4-3.2,6.4-7.9s-2.5-7.8-6.4-7.8-6.3,3.2-6.3,7.8,2.3,7.9,6.2,7.9Z"/>
        <path class="st9" d="M1550.1,1701.4h-7.8v-2.2h2.6v-23.7h-2.6v-2.2h5.2v16.6l7.5-5.9h-2.5v-2.2h8.6l.2,2.2h-3l-8,6.3,9.1,8.8h2.5v2.2h-8.2v-2.2h2.3l-8.5-8.3v8.3h2.6v2.2Z"/>
        <path class="st9" d="M1571.7,1681.5c5.2,0,8.5,3.9,8.5,9.3v1h-14.4c0,4.5,2.2,7.8,6.8,7.8s4.7-1,6-2.2l1.4,1.7c-1.6,1.7-4.2,2.8-7.5,2.8-5.6,0-9.3-3.5-9.3-10.3s3.3-10.1,8.6-10.1ZM1566,1689.6h11.6c-.3-3.5-2.4-6-5.8-6s-5.3,2.4-5.8,6Z"/>
        <path class="st9" d="M1583.6,1681.9h5.2v17.3h2.6v2.2h-7.8v-2.2h2.6v-15.1h-2.6v-2.2ZM1587.5,1673.4c1.2,0,1.8.8,1.8,1.8s-.6,1.7-1.8,1.7-1.8-.7-1.8-1.7.6-1.8,1.8-1.8Z"/>
        <path class="st9" d="M1593.5,1681.9h3.2v-4.7h2.6v4.7h4.8v2.2h-4.8v11.8c0,2.8,1.2,3.7,2.8,3.7s1.5-.1,2.4-.4l.3,2.1c-1.1.3-1.8.5-2.9.5-3.5,0-5.3-1.7-5.3-6.2v-11.5h-3.2v-2.2Z"/>
      </g>
      <g class="st3">
        <path class="st9" d="M1097.1,1762.5h-8.6v-2.2h2.9v-22.9h-2.9v-2.2h9.5c7.2,0,10.4,3.7,10.4,8.4s-3.2,8.6-10.4,8.6h-3.8v8h2.9v2.2ZM1094.2,1737.5v12.6h3.8c5.5,0,7.5-2.8,7.5-6.4s-2.2-6.2-7.5-6.2h-3.8Z"/>
        <path class="st9" d="M1116,1760.3h2.7v2.2h-7.9v-2.2h2.5v-23.7h-2.6v-2.2h5.2v25.8Z"/>
        <path class="st9" d="M1139.2,1762.5h-4.8l-.2-2.7c-1.3,1.9-3.4,3.2-6.4,3.2-4.3,0-6.2-2.7-6.2-5.9s2.2-5.8,7.8-5.8h4.7v-1.9c0-2.8-1.7-4.6-4.9-4.6s-3.1.2-4.1.5v3.2h-2.3v-4.7c1.4-.7,3.8-1.2,6.5-1.2,4.9,0,7.5,2.3,7.5,6.8v11h2.5v2.2ZM1134.2,1755.2v-1.9h-4.6c-3.5,0-5.2,1.4-5.2,3.8s1.2,3.7,3.9,3.7,5.9-2.4,5.9-5.5Z"/>
        <path class="st9" d="M1162.9,1762.5h-5.2v-11.2c0-4.1-1.8-6.3-4.9-6.3s-5.7,1.7-5.7,6.5v8.8h2.6v2.2h-7.8v-2.2h2.6v-15.1h-2.6v-2.2h5l.2,3.3c1.1-2.1,3.2-3.7,6.3-3.7,4.6,0,7,3.2,7,8.7v9.1h2.6v2.2Z"/>
        <path class="st9" d="M1175.5,1760.7c2.1,0,4.3-.7,5.4-1.8l1.4,1.8c-1.8,1.5-4,2.4-7.1,2.4-5.6,0-9.6-3.5-9.6-10.3s4.2-10.1,9.2-10.1,4.9.7,6.3,1.9v5.5h-2.4v-4.2c-1-.6-2.3-.9-3.7-.9-3.7,0-6.5,2.5-6.5,7.7s3,7.9,7,7.9Z"/>
        <path class="st9" d="M1192.6,1762.5h-7.8v-2.2h2.6v-23.7h-2.6v-2.2h5.2v16.6l7.5-5.9h-2.5v-2.2h8.6l.2,2.2h-3l-8,6.3,9.1,8.8h2.5v2.2h-8.2v-2.2h2.3l-8.5-8.3v8.3h2.6v2.2Z"/>
        <path class="st9" d="M1206.4,1748.6h11.6v2.2h-11.6v-2.2Z"/>
        <path class="st9" d="M1230.3,1762.5h-8.6v-2.2h2.9v-22.9h-2.9v-2.2h8.6v2.2h-2.9v13.2l11.2-13.2h-2.4v-2.2h7.9v2.2h-2.4l-8.1,9.5,9,13.4h2.7v2.2h-8.4v-2.2h2.5l-7.6-11.4-4.4,5.2v6.2h2.9v2.2Z"/>
        <path class="st9" d="M1255.7,1742.6c5.6,0,9.2,4,9.2,10.1s-3.6,10.3-9.2,10.3-9.3-4.2-9.3-10.3,3.6-10.1,9.3-10.1ZM1255.7,1745c-4.2,0-6.5,3.2-6.5,7.7s2.3,8,6.5,8,6.5-3.5,6.5-8-2.3-7.7-6.5-7.7Z"/>
        <path class="st9" d="M1289.4,1762.5h-5.2v-11.2c0-4.1-1.8-6.3-4.9-6.3s-5.7,1.7-5.7,6.5v8.8h2.6v2.2h-7.8v-2.2h2.6v-15.1h-2.6v-2.2h5l.2,3.3c1.1-2.1,3.2-3.7,6.3-3.7,4.6,0,7,3.2,7,8.7v9.1h2.6v2.2Z"/>
        <path class="st9" d="M1294.7,1756.8v3.5c1.7.5,3.3.6,5,.6,3.1,0,4.8-1.1,4.8-3.4s-1.1-2.8-4-3.5l-2.8-.7c-3.8-1-5.4-2.5-5.4-5.3,0-4.2,3.9-5.4,7.4-5.4s5.3.8,6.6,1.4v5h-2.3v-3.6c-1.3-.4-2.6-.7-4.3-.7-2.6,0-4.9.7-4.9,3s.6,2.4,3.7,3.2l2.8.7c3.6.9,5.6,2.3,5.6,5.5s-3.1,5.9-7.2,5.9-5.1-.3-7.3-1.2v-5h2.3Z"/>
        <path class="st9" d="M1309.7,1743.1h3.2v-4.7h2.6v4.7h4.8v2.2h-4.8v11.8c0,2.8,1.2,3.7,2.8,3.7s1.5-.1,2.4-.4l.3,2.1c-1.1.3-1.8.5-2.9.5-3.5,0-5.3-1.7-5.3-6.2v-11.5h-3.2v-2.2Z"/>
        <path class="st9" d="M1340.9,1762.5h-4.8l-.2-2.7c-1.3,1.9-3.4,3.2-6.4,3.2-4.3,0-6.2-2.7-6.2-5.9s2.2-5.8,7.8-5.8h4.7v-1.9c0-2.8-1.7-4.6-4.9-4.6s-3.1.2-4.1.5v3.2h-2.3v-4.7c1.4-.7,3.8-1.2,6.5-1.2,4.9,0,7.5,2.3,7.5,6.8v11h2.5v2.2ZM1335.8,1755.2v-1.9h-4.6c-3.5,0-5.2,1.4-5.2,3.8s1.2,3.7,3.9,3.7,5.9-2.4,5.9-5.5Z"/>
        <path class="st9" d="M1364.6,1762.5h-5.2v-11.2c0-4.1-1.8-6.3-4.9-6.3s-5.7,1.7-5.7,6.5v8.8h2.6v2.2h-7.8v-2.2h2.6v-15.1h-2.6v-2.2h5l.2,3.3c1.1-2.1,3.2-3.7,6.3-3.7,4.6,0,7,3.2,7,8.7v9.1h2.6v2.2Z"/>
        <path class="st9" d="M1366.4,1743.1h3.2v-4.7h2.6v4.7h4.8v2.2h-4.8v11.8c0,2.8,1.2,3.7,2.8,3.7s1.5-.1,2.4-.4l.3,2.1c-1.1.3-1.8.5-2.9.5-3.5,0-5.3-1.7-5.3-6.2v-11.5h-3.2v-2.2Z"/>
        <path class="st9" d="M1388.4,1742.6c5.2,0,8.5,3.9,8.5,9.3v1h-14.4c0,4.5,2.2,7.8,6.8,7.8s4.7-1,6-2.2l1.4,1.7c-1.6,1.7-4.2,2.8-7.5,2.8-5.6,0-9.3-3.5-9.3-10.3s3.3-10.1,8.6-10.1ZM1382.7,1750.8h11.6c-.3-3.5-2.4-6-5.8-6s-5.3,2.4-5.8,6Z"/>
      </g>
      <g class="st3">
        <path class="st9" d="M1088.6,1821.5h2.9v-22.9h-2.9v-2.2h9.9c4.9,0,8.3,2.1,8.3,6.6s-1.6,4.9-3.9,5.8c3.6.8,5.9,2.9,5.9,6.9s-3.6,7.9-9.1,7.9h-11.1v-2.2ZM1094.2,1798.6v9.3h4.3c3.7,0,5.4-1.9,5.4-4.7s-1.7-4.7-5.4-4.7h-4.3ZM1094.2,1810.1v11.4h5.1c4.4,0,6.5-2.4,6.5-5.8s-1.9-5.6-6.5-5.6h-5.1Z"/>
        <path class="st9" d="M1121.5,1803.7c5.6,0,9.2,4,9.2,10.1s-3.6,10.3-9.2,10.3-9.3-4.2-9.3-10.3,3.6-10.1,9.3-10.1ZM1121.5,1806.1c-4.2,0-6.5,3.2-6.5,7.7s2.3,8,6.5,8,6.5-3.5,6.5-8-2.3-7.7-6.5-7.7Z"/>
        <path class="st9" d="M1139,1821.5h2.7v2.2h-7.9v-2.2h2.5v-23.7h-2.6v-2.2h5.2v25.8Z"/>
        <path class="st9" d="M1143.7,1804.2h3.2v-4.7h2.6v4.7h4.8v2.2h-4.8v11.8c0,2.8,1.2,3.7,2.8,3.7s1.5-.1,2.4-.4l.3,2.1c-1.1.3-1.8.5-2.9.5-3.5,0-5.3-1.7-5.3-6.2v-11.5h-3.2v-2.2Z"/>
        <path class="st9" d="M1157.4,1821.8l12.1-15.5h-9.3v3.2h-2.5v-5.4h15.1v1.8l-12.1,15.5h10v-2.7h2.5s0,4.9,0,4.9h-15.9v-1.8Z"/>
        <path class="st9" d="M1189,1821.5h2.6v-10c0-3.5-2.1-5.4-4.7-5.4s-5.3,2.3-5.3,5.4v10h2.6v2.2h-7.8v-2.2h2.6v-15.1h-2.6v-2.2h4.9l.2,2.7c1.1-1.8,3.2-3.2,5.7-3.2s4.9,1.2,6.1,3.7c1.6-2.5,3.5-3.7,6.5-3.7,4.3,0,6.8,2.7,6.8,7.7v10h2.6v2.2h-7.8v-2.2h2.6v-10c0-3.7-2-5.4-4.5-5.4s-5.1,1.8-5.4,4.8v10.6h2.6v2.2h-7.8v-2.2Z"/>
        <path class="st9" d="M1229.6,1823.6h-4.8l-.2-2.7c-1.3,1.9-3.4,3.2-6.4,3.2-4.3,0-6.2-2.7-6.2-5.9s2.2-5.8,7.8-5.8h4.7v-1.9c0-2.8-1.7-4.6-4.9-4.6s-3.1.2-4.1.5v3.2h-2.3v-4.7c1.4-.7,3.8-1.2,6.5-1.2,4.9,0,7.5,2.3,7.5,6.8v11h2.5v2.2ZM1224.5,1816.3v-1.9h-4.6c-3.5,0-5.2,1.4-5.2,3.8s1.2,3.7,3.9,3.7,5.9-2.4,5.9-5.5Z"/>
        <path class="st9" d="M1253.3,1823.6h-5.2v-11.2c0-4.1-1.8-6.3-4.9-6.3s-5.7,1.7-5.7,6.5v8.8h2.6v2.2h-7.8v-2.2h2.6v-15.1h-2.6v-2.2h5l.2,3.3c1.1-2.1,3.2-3.7,6.3-3.7,4.6,0,7,3.2,7,8.7v9.1h2.6v2.2Z"/>
        <path class="st9" d="M1277,1823.6h-5.2v-11.2c0-4.1-1.8-6.3-4.9-6.3s-5.7,1.7-5.7,6.5v8.8h2.6v2.2h-7.8v-2.2h2.6v-15.1h-2.6v-2.2h5l.2,3.3c1.1-2.1,3.2-3.7,6.3-3.7,4.6,0,7,3.2,7,8.7v9.1h2.6v2.2Z"/>
        <path class="st9" d="M1280.1,1809.7h11.6v2.2h-11.6v-2.2Z"/>
        <path class="st9" d="M1304,1823.6h-8.6v-2.2h2.9v-22.9h-2.9v-2.2h8.6v2.2h-2.9v13.2l11.2-13.2h-2.4v-2.2h7.9v2.2h-2.4l-8.1,9.5,9,13.4h2.7v2.2h-8.4v-2.2h2.5l-7.6-11.4-4.4,5.2v6.2h2.9v2.2Z"/>
        <path class="st9" d="M1329.4,1803.7c5.6,0,9.2,4,9.2,10.1s-3.6,10.3-9.2,10.3-9.3-4.2-9.3-10.3,3.6-10.1,9.3-10.1ZM1329.4,1806.1c-4.2,0-6.5,3.2-6.5,7.7s2.3,8,6.5,8,6.5-3.5,6.5-8-2.3-7.7-6.5-7.7Z"/>
        <path class="st9" d="M1363.1,1823.6h-5.2v-11.2c0-4.1-1.8-6.3-4.9-6.3s-5.7,1.7-5.7,6.5v8.8h2.6v2.2h-7.8v-2.2h2.6v-15.1h-2.6v-2.2h5l.2,3.3c1.1-2.1,3.2-3.7,6.3-3.7,4.6,0,7,3.2,7,8.7v9.1h2.6v2.2Z"/>
        <path class="st9" d="M1368.4,1817.9v3.5c1.7.5,3.3.6,5,.6,3.1,0,4.8-1.1,4.8-3.4s-1.1-2.8-4-3.5l-2.8-.7c-3.8-1-5.4-2.5-5.4-5.3,0-4.2,3.9-5.4,7.4-5.4s5.3.8,6.6,1.4v5h-2.3v-3.6c-1.3-.4-2.6-.7-4.3-.7-2.6,0-4.9.7-4.9,3s.6,2.4,3.7,3.2l2.8.7c3.6.9,5.6,2.3,5.6,5.5s-3.1,5.9-7.2,5.9-5.1-.3-7.3-1.2v-5h2.3Z"/>
        <path class="st9" d="M1383.4,1804.2h3.2v-4.7h2.6v4.7h4.8v2.2h-4.8v11.8c0,2.8,1.2,3.7,2.8,3.7s1.5-.1,2.4-.4l.3,2.1c-1.1.3-1.8.5-2.9.5-3.5,0-5.3-1.7-5.3-6.2v-11.5h-3.2v-2.2Z"/>
        <path class="st9" d="M1414.6,1823.6h-4.8l-.2-2.7c-1.3,1.9-3.4,3.2-6.4,3.2-4.3,0-6.2-2.7-6.2-5.9s2.2-5.8,7.8-5.8h4.7v-1.9c0-2.8-1.7-4.6-4.9-4.6s-3.1.2-4.1.5v3.2h-2.3v-4.7c1.4-.7,3.8-1.2,6.5-1.2,4.9,0,7.5,2.3,7.5,6.8v11h2.5v2.2ZM1409.5,1816.3v-1.9h-4.6c-3.5,0-5.2,1.4-5.2,3.8s1.2,3.7,3.9,3.7,5.9-2.4,5.9-5.5Z"/>
        <path class="st9" d="M1438.3,1823.6h-5.2v-11.2c0-4.1-1.8-6.3-4.9-6.3s-5.7,1.7-5.7,6.5v8.8h2.6v2.2h-7.8v-2.2h2.6v-15.1h-2.6v-2.2h5l.2,3.3c1.1-2.1,3.2-3.7,6.3-3.7,4.6,0,7,3.2,7,8.7v9.1h2.6v2.2Z"/>
        <path class="st9" d="M1440.1,1804.2h3.2v-4.7h2.6v4.7h4.8v2.2h-4.8v11.8c0,2.8,1.2,3.7,2.8,3.7s1.5-.1,2.4-.4l.3,2.1c-1.1.3-1.8.5-2.9.5-3.5,0-5.3-1.7-5.3-6.2v-11.5h-3.2v-2.2Z"/>
        <path class="st9" d="M1462.1,1803.7c5.2,0,8.5,3.9,8.5,9.3v1h-14.4c0,4.5,2.2,7.8,6.8,7.8s4.7-1,6-2.2l1.4,1.7c-1.6,1.7-4.2,2.8-7.5,2.8-5.6,0-9.3-3.5-9.3-10.3s3.3-10.1,8.6-10.1ZM1456.4,1811.9h11.6c-.3-3.5-2.4-6-5.8-6s-5.3,2.4-5.8,6Z"/>
      </g>
    </g>
  </g>
  <path id="Pfad_193" class="st0" d="M866.1,1136.7l78.1,112.8,2.1,3,4.1,5.9,2.7,4,130.4,188.4s74.8.4,74.4,0"/>
  <g id="Gruppe_68">
    <g class="st11">
      <g id="Gruppe_67">
        <path id="Pfad_187" class="st9" d="M840.7,1803.2v-8.3h18.6v21.5c-2.3,2.1-5,3.9-8,5.1-4.1,1.6-8.4,2.3-12.8,2.2-5.1.1-10.1-1.1-14.6-3.6-4-2.3-7.2-5.7-9.3-9.7-2.2-4.2-3.3-8.9-3.3-13.6,0-3.6.6-7.3,1.9-10.7,1.2-3.2,3.1-6.2,5.5-8.8,2.4-2.5,5.3-4.5,8.4-5.9,3.4-1.5,7.1-2.2,10.8-2.1,4.5-.2,8.9.9,12.8,3,3.2,1.9,6,4.4,8.2,7.4l-6.9,6.1c-1.5-2.3-3.5-4.2-5.8-5.8-2.5-1.5-5.4-2.3-8.3-2.2-3.1,0-6.2.8-8.8,2.6-2.5,1.7-4.4,4.1-5.7,6.8-1.3,2.9-2,6-2,9.2,0,3.4.7,6.7,2.4,9.6,3,5.4,8.7,8.7,14.9,8.6,4,.3,7.9-1,11.1-3.4v-8.1h-9.3Z"/>
      </g>
    </g>
  </g>
  <g id="Gruppe_70">
    <g class="st4">
      <g id="Gruppe_69">
        <path id="Pfad_188" class="st9" d="M953.1,928.1l5.8,6.3c-1.8,2-4.1,3.5-6.5,4.6-2.7,1.2-5.7,1.8-8.7,1.7-3.9.1-7.8-.8-11.3-2.6-3-1.7-5.5-4.2-7.1-7.3-1.7-3.4-2.5-7.1-2.4-10.8,0-3.6.9-7.2,2.7-10.4,1.7-3.1,4.3-5.7,7.3-7.5,3.3-1.9,7.1-2.9,10.9-2.8,3,0,5.9.5,8.6,1.7,2.5,1.1,4.7,2.6,6.6,4.6l-6.2,6.3c-1-1.3-2.4-2.3-3.9-3-1.6-.7-3.4-1.1-5.2-1.1-2.2,0-4.4.5-6.2,1.7-1.6,1.1-2.9,2.7-3.6,4.5-.8,1.9-1.2,3.9-1.2,5.9,0,2,.4,3.9,1.2,5.7.8,1.8,2,3.4,3.6,4.6,1.8,1.3,4,1.9,6.2,1.8,1.8,0,3.7-.4,5.3-1.1,1.6-.7,2.9-1.7,4-3"/>
        <rect id="Rechteck_83" class="st9" x="963.9" y="895.8" width="14.7" height="5.4"/>
        <path id="Pfad_189" class="st9" d="M983.4,911.9v-5h5.2v-19.2l-5.8,3.1-2.4-4.4,8.9-4.9h5v25.5h5v5h-15.9Z"/>
      </g>
    </g>
  </g>
  <g id="Gruppe_72">
    <g class="st7">
      <g id="Gruppe_71">
        <path id="Pfad_190" class="st9" d="M1400.8,860.8v-59.6h10.4v22c1.4-1.4,3-2.6,4.7-3.5,2.4-1.2,5.1-1.8,7.9-1.7,4.5-.3,8.9,1.5,11.9,4.8,2.9,3.5,4.4,8,4.2,12.5v25.5h-10.6v-25.4c.1-2.3-.7-4.5-2.2-6.2-1.5-1.5-3.6-2.3-5.7-2.2-2.8,0-5.4,1.1-7.2,3.2-1.9,2.2-2.9,5-2.9,7.9v22.7h-10.6Z"/>
      </g>
    </g>
  </g>
  <g id="Gruppe_75">
    <path id="Pfad_191" class="st9" d="M207,801.2v59.8h10.6v-14.9l4.6-4.5,12.2,19.4h12.6l-17.6-26.5,15.8-15.5h-12.4l-15.1,14.9v-32.6h-10.6Z"/>
    <g id="Gruppe_74">
      <g class="st5">
        <g id="Gruppe_73">
          <path id="Pfad_192" class="st9" d="M251.3,876.7v-34.8h12c2.1,0,4.3.3,6.2,1.2,1.6.7,2.9,1.8,3.8,3.3.9,1.4,1.3,3,1.3,4.6,0,1.1-.2,2.2-.7,3.2-.4.8-.9,1.6-1.6,2.2-.6.5-1.2,1-1.9,1.3-.4.3-.9.4-1.4.5.8.1,1.5.3,2.2.6.9.3,1.7.8,2.4,1.5.8.7,1.5,1.6,1.9,2.6.5,1.2.8,2.6.8,3.9.1,2.1-.5,4.2-1.7,5.9-1.2,1.5-2.8,2.6-4.6,3.1-2.2.7-4.4,1-6.7.9h-12ZM257.6,855.7h5.3c1.3,0,2.5-.3,3.6-.9,1.1-.7,1.8-2,1.6-3.3,0-.9-.2-1.8-.8-2.5-.6-.6-1.2-1-2-1.2-.8-.2-1.6-.4-2.5-.4h-5.3v8.3ZM257.6,871.1h5.6c.7,0,1.4,0,2.1-.1.7,0,1.5-.3,2.1-.6.7-.3,1.3-.8,1.7-1.5.5-.8.7-1.7.7-2.7,0-1.2-.3-2.3-1.1-3.2-.7-.7-1.6-1.2-2.6-1.5-.9-.3-1.9-.4-2.9-.4h-5.6v9.9Z"/>
        </g>
      </g>
    </g>
  </g>
  <g id="Gruppe_86">
    <g id="Linie_181">
      <path class="st10" d="M891.3,1086.7c-.5,0-1-.3-1.2-.7-.4-.7-.1-1.5.6-1.9l295.7-156.3c.7-.4,1.5,0,1.9.6.4.7.1,1.5-.6,1.9l-295.7,156.3c-.2.1-.4.2-.6.2Z"/>
    </g>
    <g id="Linie_182">
      <path class="st10" d="M861.8,1102.3c-.5,0-1-.3-1.2-.7-.4-.7-.1-1.5.6-1.9l24.1-12.7c.7-.4,1.5-.1,1.9.6.4.7.1,1.5-.6,1.9l-24.1,12.7c-.2.1-.4.2-.6.2Z"/>
    </g>
    <g id="Linie_183">
      <path class="st10" d="M888.2,1081.3c-.5,0-1-.3-1.2-.7-.4-.7-.1-1.5.6-1.9l431.7-228.3c.7-.4,1.5-.1,1.9.6.4.7.1,1.5-.6,1.9l-431.7,228.3c-.2.1-.4.2-.6.2Z"/>
    </g>
    <g id="Linie_184">
      <path class="st10" d="M858.9,1096.8c-.5,0-1-.3-1.2-.7-.4-.7-.1-1.5.6-1.9l23.8-12.6c.7-.4,1.5,0,1.9.6.4.7.1,1.5-.6,1.9l-23.8,12.6c-.2.1-.4.2-.6.2Z"/>
    </g>
    <g id="Linie_185">
      <path class="st10" d="M850.5,1102.1c-.2,0-.4,0-.6-.1l-8.8-4.3c-.7-.3-1-1.2-.6-1.9.3-.7,1.2-1,1.9-.6l8.8,4.3c.7.3,1,1.2.6,1.9-.2.5-.7.8-1.2.8Z"/>
    </g>
    <g id="Linie_186">
      <path class="st10" d="M835.5,1094.8c-.2,0-.4,0-.6-.1l-32-15.7c-.7-.3-1-1.2-.6-1.9.3-.7,1.2-1,1.9-.6l32,15.7c.7.3,1,1.2.6,1.9-.2.5-.7.8-1.2.8Z"/>
    </g>
    <g id="Linie_187">
      <path class="st10" d="M797.9,1076.4c-.2,0-.4,0-.6-.1l-392.9-192.2c-.7-.3-1-1.2-.6-1.9.3-.7,1.2-1,1.9-.6l392.9,192.2c.7.3,1,1.2.6,1.9-.2.5-.7.8-1.2.8Z"/>
    </g>
    <g id="Linie_188">
      <path class="st10" d="M852.5,1096.2c-.2,0-.4,0-.6-.1l-10.6-5.2c-.7-.3-1-1.2-.6-1.9.3-.7,1.2-1,1.9-.6l10.6,5.2c.7.3,1,1.2.6,1.9-.2.5-.7.8-1.2.8Z"/>
    </g>
    <g id="Linie_189">
      <path class="st10" d="M835.8,1088c-.2,0-.4,0-.6-.1l-29.1-14.3c-.7-.3-1-1.2-.6-1.9.3-.7,1.2-1,1.9-.6l29.1,14.3c.7.3,1,1.2.6,1.9-.2.5-.7.8-1.2.8Z"/>
    </g>
    <g id="Linie_190">
      <path class="st10" d="M801,1071c-.2,0-.4,0-.6-.1l-443.9-217.1c-.7-.3-1-1.2-.6-1.9.3-.7,1.2-1,1.9-.6l443.9,217.1c.7.3,1,1.2.6,1.9-.2.5-.7.8-1.2.8Z"/>
    </g>
    <g id="Linie_191">
      <path class="st10" d="M789.7,1103.1c-.2,0-.5,0-.7-.2-.7-.4-.9-1.2-.5-1.9l48.4-83.8c.4-.7,1.2-.9,1.9-.5.7.4.9,1.2.5,1.9l-48.4,83.8c-.3.4-.7.7-1.2.7Z"/>
    </g>
    <g id="Linie_192">
      <path class="st10" d="M746.1,1178.5c-.2,0-.5,0-.7-.2-.7-.4-.9-1.2-.5-1.9l40.5-70.1c.4-.7,1.2-.9,1.9-.5.7.4.9,1.2.5,1.9l-40.5,70.1c-.3.4-.7.7-1.2.7Z"/>
    </g>
    <g id="Pfad_213">
      <path class="st10" d="M784.3,1100c-.2,0-.5,0-.7-.2-.7-.4-.9-1.2-.5-1.9l51.9-89.8-490.9-158.4c-.7-.2-1.1-1-.9-1.7.2-.7,1-1.1,1.7-.9l492.5,158.9c.4.1.7.4.9.8s.1.8,0,1.2l-52.7,91.3c-.3.4-.7.7-1.2.7Z"/>
    </g>
    <g id="Linie_193">
      <path class="st10" d="M834.4,1128.5s0,0,0,0c-.8,0-1.4-.7-1.3-1.4l4.1-119.7c0-.8.7-1.4,1.4-1.3.8,0,1.4.7,1.3,1.4l-4.1,119.7c0,.8-.6,1.3-1.4,1.3Z"/>
    </g>
    <g id="Linie_194">
      <path class="st10" d="M840.6,1128.3s0,0,0,0c-.8,0-1.4-.7-1.3-1.4l4.1-119.2c0-.8.7-1.4,1.4-1.3.8,0,1.4.7,1.3,1.4l-4.1,119.2c0,.8-.6,1.3-1.4,1.3Z"/>
    </g>
    <g id="Linie_195">
      <path class="st10" d="M948.3,1188.2c-.4,0-.8-.2-1.1-.5-.5-.6-.4-1.5.2-2l393.9-335.5c.6-.5,1.5-.4,2,.2.5.6.4,1.5-.2,2l-393.9,335.5c-.3.2-.6.3-.9.3Z"/>
    </g>
    <g id="Linie_196">
      <path class="st10" d="M841.6,1003.6c-.6,0-1.1-.4-1.3-1-.2-.7.2-1.5.9-1.8l492.8-161.9c.7-.2,1.5.2,1.8.9.2.7-.2,1.5-.9,1.8l-492.8,161.9c-.1,0-.3,0-.4,0Z"/>
    </g>
    <g id="Linie_197">
      <path class="st10" d="M829.1,1718.9c-.7,0-1.2-.5-1.4-1.1l-94-530.9c-.1-.8.4-1.5,1.1-1.6.8-.1,1.5.4,1.6,1.1l94,530.9c.1.8-.4,1.5-1.1,1.6,0,0-.2,0-.2,0Z"/>
    </g>
    <g id="Pfad_214">
      <path class="st10" d="M838.5,1703.9c0,0-.2,0-.3,0-.8-.2-1.2-.9-1.1-1.6l102.8-512.6h-99.7c-.8,0-1.4-.7-1.4-1.5s.6-1.4,1.4-1.4h101.4c.4,0,.8.3,1.1.6.3.3.4.7.3,1.2l-103.1,514.2c-.1.7-.7,1.1-1.4,1.1Z"/>
    </g>
    <g id="Pfad_215">
      <path class="st10" d="M832.3,1701c-.7,0-1.2-.5-1.4-1.1l-90.6-511.5c0-.4,0-.8.3-1.1.3-.3.7-.5,1.1-.5h92.3c.8,0,1.4.7,1.4,1.5s-.6,1.4-1.4,1.4h-90.7c0,0,90.3,509.8,90.3,509.8.1.8-.4,1.5-1.1,1.6,0,0-.2,0-.2,0Z"/>
    </g>
    <g id="Linie_198">
      <path class="st10" d="M931.9,1183.4h-91.6c-.8,0-1.4-.7-1.4-1.5s.6-1.4,1.4-1.4h91.6c.8,0,1.4.7,1.4,1.5,0,.8-.6,1.4-1.4,1.4Z"/>
    </g>
    <g id="Linie_199">
      <path class="st10" d="M834.1,1183.3h-83.6c-.8,0-1.4-.7-1.4-1.5s.6-1.4,1.4-1.4h83.6c.8,0,1.4.7,1.4,1.5s-.6,1.4-1.4,1.4Z"/>
    </g>
    <g id="Linie_200">
      <path class="st10" d="M859.1,1117.7s0,0,0,0c-.8,0-1.4-.7-1.3-1.4l.3-9.1c0-.8.8-1.4,1.4-1.3.8,0,1.4.7,1.3,1.4l-.3,9.1c0,.8-.6,1.3-1.4,1.3Z"/>
    </g>
    <g id="Linie_201">
      <path class="st10" d="M858.3,1140.5s0,0,0,0c-.8,0-1.4-.7-1.3-1.4l.5-15.5c0-.8.7-1.4,1.4-1.3.8,0,1.4.7,1.3,1.4l-.5,15.5c0,.8-.6,1.3-1.4,1.3Z"/>
    </g>
    <g id="Linie_202">
      <path class="st10" d="M856.9,1183.4s0,0,0,0c-.8,0-1.4-.7-1.3-1.4l1.2-36c0-.8.7-1.4,1.4-1.3.8,0,1.4.7,1.3,1.4l-1.2,36c0,.8-.6,1.3-1.4,1.3Z"/>
    </g>
    <g id="Linie_203">
      <path class="st10" d="M839.7,1698.1s0,0,0,0c-.8,0-1.4-.7-1.3-1.4l17-508.6c0-.8.8-1.4,1.4-1.3.8,0,1.4.7,1.3,1.4l-17,508.6c0,.8-.6,1.3-1.4,1.3Z"/>
    </g>
    <g id="Linie_204">
      <path class="st10" d="M852.7,1121.4s0,0,0,0c-.8,0-1.4-.7-1.3-1.4l.5-13.6c0-.8.8-1.4,1.4-1.3.8,0,1.4.7,1.3,1.4l-.5,13.6c0,.8-.6,1.3-1.4,1.3Z"/>
    </g>
    <g id="Linie_205">
      <path class="st10" d="M852.2,1137.5s0,0,0,0c-.8,0-1.4-.7-1.3-1.4l.3-8.9c0-.8.8-1.4,1.4-1.3.8,0,1.4.7,1.3,1.4l-.3,8.9c0,.8-.6,1.3-1.4,1.3Z"/>
    </g>
    <g id="Linie_206">
      <path class="st10" d="M850.7,1183.3s0,0,0,0c-.8,0-1.4-.7-1.3-1.4l1.3-39c0-.8.8-1.4,1.4-1.3.8,0,1.4.7,1.3,1.4l-1.3,39c0,.8-.6,1.3-1.4,1.3Z"/>
    </g>
    <g id="Linie_207">
      <path class="st10" d="M839.1,1528.7s0,0,0,0c-.8,0-1.4-.7-1.3-1.4l11.3-339.1c0-.8.8-1.4,1.4-1.3.8,0,1.4.7,1.3,1.4l-11.3,339.1c0,.8-.6,1.3-1.4,1.3Z"/>
    </g>
    <g id="Pfad_216">
      <path class="st10" d="M896.8,1096.2c-.5,0-.9-.2-1.2-.7l-50.5-87.5c-.2-.4-.2-.8,0-1.2s.5-.7.9-.8l479.3-157.5c.7-.2,1.5.2,1.8.9.2.7-.2,1.5-.9,1.8l-477.7,156.9,49.7,86c.4.7.2,1.5-.5,1.9-.2.1-.5.2-.7.2Z"/>
    </g>
    <g id="Pfad_217">
      <path class="st10" d="M946.2,1181.7c0,0-.2,0-.2,0-.4,0-.8-.3-1-.7l-46.3-80.2c-.4-.7-.2-1.5.5-1.9.7-.4,1.5-.2,1.9.5l45.5,78.7,379-322.8c.6-.5,1.5-.4,2,.2.5.6.4,1.5-.2,2l-380.3,323.9c-.3.2-.6.3-.9.3Z"/>
    </g>
    <g id="Linie_208">
      <path class="st10" d="M891.4,1099.3c-.5,0-.9-.2-1.2-.7l-47-81.4c-.4-.7-.2-1.5.5-1.9.7-.4,1.5-.2,1.9.5l47,81.4c.4.7.2,1.5-.5,1.9-.2.1-.5.2-.7.2Z"/>
    </g>
    <g id="Linie_209">
      <path class="st10" d="M937.6,1179.3c-.5,0-.9-.2-1.2-.7l-43.1-74.6c-.4-.7-.2-1.5.5-1.9.7-.4,1.5-.2,1.9.5l43.1,74.6c.4.7.2,1.5-.5,1.9-.2.1-.5.2-.7.2Z"/>
    </g>
    <g id="Linie_210">
      <path class="st10" d="M928.8,1174.9c-.3,0-.7-.1-1-.4l-58.9-56.2c-.6-.5-.6-1.4,0-2s1.4-.6,2,0l58.9,56.2c.6.5.6,1.4,0,2-.3.3-.6.4-1,.4Z"/>
    </g>
    <g id="Linie_211">
      <path class="st10" d="M865.2,1114.2c-.3,0-.7-.1-1-.4l-9-8.6c-.6-.5-.6-1.4,0-2,.5-.6,1.4-.6,2,0l9,8.6c.6.5.6,1.4,0,2-.3.3-.6.4-1,.4Z"/>
    </g>
    <g id="Linie_212">
      <path class="st10" d="M931.8,1169.3c-.3,0-.7-.1-1-.4l-56.3-53.8c-.6-.5-.6-1.4,0-2s1.4-.6,2,0l56.3,53.8c.6.5.6,1.4,0,2-.3.3-.6.4-1,.4Z"/>
    </g>
    <g id="Pfad_218">
      <path class="st10" d="M870.9,1111c-.3,0-.7-.1-1-.4l-11.4-11c-.2-.2-.3-.5-.4-.7v-.7c-.1,0-12.1-76.4-12.1-76.4-.1-.8.4-1.5,1.2-1.6.8-.1,1.5.4,1.6,1.2l12,76.7.6.6,10.5,10c.6.5.6,1.4,0,2-.3.3-.6.4-1,.4Z"/>
    </g>
    <g id="Linie_213">
      <path class="st10" d="M735.1,1188c-.3,0-.6-.1-.9-.3l-407.1-337c-.6-.5-.7-1.4-.2-2,.5-.6,1.4-.7,2-.2l407.1,337c.6.5.7,1.4.2,2-.3.3-.7.5-1.1.5Z"/>
    </g>
    <g id="Pfad_219">
      <path class="st10" d="M737.1,1181.6c-.3,0-.6-.1-.9-.3l-391-323.8c-.6-.5-.7-1.4-.2-2,.5-.6,1.4-.7,2-.2l389.7,322.7,43.2-74.8c.4-.7,1.2-.9,1.9-.5.7.4.9,1.2.5,1.9l-44,76.2c-.2.4-.6.6-1,.7,0,0-.2,0-.2,0Z"/>
    </g>
    <g id="Linie_214">
      <path class="st10" d="M842.1,1717.8c0,0-.2,0-.3,0-.8-.2-1.2-.9-1.1-1.6l106.2-529.6c.2-.8.9-1.3,1.6-1.1.8.2,1.2.9,1.1,1.6l-106.2,529.6c-.1.7-.7,1.1-1.4,1.1Z"/>
    </g>
    <g id="Linie_215">
      <path class="st10" d="M747.9,1175.5c-.4,0-.9-.2-1.1-.6-.4-.6-.3-1.5.3-1.9l69.3-49.6c.6-.4,1.5-.3,1.9.3.4.6.3,1.5-.3,1.9l-69.3,49.6c-.2.2-.5.3-.8.3Z"/>
    </g>
    <g id="Linie_216">
      <path class="st10" d="M822.8,1121.9c-.4,0-.9-.2-1.1-.6-.4-.6-.3-1.5.3-1.9l12.1-8.7c.6-.4,1.5-.3,1.9.3.4.6.3,1.5-.3,1.9l-12.1,8.7c-.2.2-.5.3-.8.3Z"/>
    </g>
    <g id="Pfad_220">
      <path class="st10" d="M841.3,1108.7c-.4,0-.9-.2-1.1-.6-.4-.6-.3-1.5.3-1.9l11.1-8-9.3-59.6c-.1-.8.4-1.5,1.2-1.6.8-.1,1.5.4,1.6,1.2l9.5,60.5c0,.5-.1,1-.6,1.3l-11.8,8.5c-.2.2-.5.3-.8.3Z"/>
    </g>
    <g id="Linie_217">
      <path class="st10" d="M777.6,1161.9c-.4,0-.9-.2-1.1-.6-.4-.6-.3-1.5.3-1.9l45.6-32.6c.6-.4,1.5-.3,1.9.3.4.6.3,1.5-.3,1.9l-45.6,32.6c-.2.2-.5.3-.8.3Z"/>
    </g>
    <g id="Linie_218">
      <path class="st10" d="M828.8,1125.3c-.4,0-.9-.2-1.1-.6-.4-.6-.3-1.5.3-1.9l5.9-4.2c.6-.4,1.5-.3,1.9.3s.3,1.5-.3,1.9l-5.9,4.2c-.2.2-.5.3-.8.3Z"/>
    </g>
    <g id="Linie_219">
      <path class="st10" d="M841,1116.5c-.4,0-.9-.2-1.1-.6-.4-.6-.3-1.5.3-1.9l15.2-10.9c.6-.4,1.5-.3,1.9.3.4.6.3,1.5-.3,1.9l-15.2,10.9c-.2.2-.5.3-.8.3Z"/>
    </g>
    <g id="Linie_220">
      <path class="st10" d="M942.3,1188.5c-.2,0-.4,0-.6-.1l-101.9-49.8c-.7-.3-1-1.2-.6-1.9.3-.7,1.2-1,1.9-.6l101.9,49.8c.7.3,1,1.2.6,1.9-.2.5-.7.8-1.2.8Z"/>
    </g>
    <g id="Linie_221">
      <path class="st10" d="M945,1182.9c-.2,0-.4,0-.6-.1l-101-49.3c-.7-.3-1-1.2-.6-1.9.3-.7,1.2-1,1.9-.6l101,49.3c.7.3,1,1.2.6,1.9-.2.5-.7.8-1.2.8Z"/>
    </g>
    <g id="Linie_222">
      <path class="st10" d="M741,1188.3c-.5,0-1-.3-1.2-.7-.4-.7-.1-1.5.6-1.9l93.2-49.4c.7-.4,1.5-.1,1.9.6s.1,1.5-.6,1.9l-93.2,49.4c-.2.1-.4.2-.6.2Z"/>
    </g>
    <g id="Linie_223">
      <path class="st10" d="M738.1,1182.8c-.5,0-1-.3-1.2-.7-.4-.7-.1-1.5.6-1.9l92.8-49.1c.7-.4,1.5-.1,1.9.6s.1,1.5-.6,1.9l-92.8,49.1c-.2.1-.4.2-.6.2Z"/>
    </g>
    <g id="Linie_224">
      <path class="st10" d="M841.6,1003.6c-.1,0-.3,0-.4,0l-505.1-163c-.7-.2-1.1-1-.9-1.7s1-1.1,1.7-.9l505.1,163c.7.2,1.1,1,.9,1.7-.2.6-.7,1-1.3,1Z"/>
    </g>
    <g id="Gruppe_83">
      <g class="st6">
        <g id="Gruppe_82">
          <g id="Pfad_221">
            <path class="st10" d="M838,1737.3h-5.4c-.5,0-1-.3-1.2-.7L314.4,841.2c-.2-.4-.2-.8,0-1.2l3.2-7.5c.2-.5.7-.8,1.3-.8h0l1031.5,1.1c.4,0,.9.2,1.1.6l5,6.8c.3.4.4,1,0,1.5l-517.4,895c-.2.4-.7.7-1.2.7ZM833.4,1734.6h3.8l516.5-893.6-4.1-5.5-1029.8-1.1-2.6,6,516.2,894.1Z"/>
          </g>
        </g>
      </g>
    </g>
    <g id="Pfad_222">
      <path class="st10" d="M837.5,1130.1c-.1,0-.2,0-.4,0-.2,0-.5,0-.7-.2l-508.6-289.4c-.5-.3-.8-1-.7-1.6s.7-1,1.3-1h0l1013.7,1.1c.6,0,1.2.4,1.3,1,.2.6-.1,1.2-.7,1.6l-504.7,288.4c-.2.1-.5.2-.7.2ZM333.8,840.7l503.6,286.5,499.6-285.5-1003.2-1.1Z"/>
    </g>
    <g id="Pfad_223">
      <path class="st10" d="M838.4,1724.1c-.1,0-.2,0-.4,0-.6-.2-1-.7-1-1.3l2-588.4c0-.5.3-1.1.7-1.4l505-288.5c.5-.3,1.2-.2,1.7.2.4.4.5,1.1.2,1.7l-507,877.1c-.3.4-.7.7-1.2.7ZM841.8,1135l-2,582.5,501.8-868.1-499.8,285.6Z"/>
    </g>
    <g id="Gruppe_85">
      <g class="st8">
        <g id="Gruppe_84">
          <g id="Pfad_224">
            <path class="st10" d="M832.2,1724.2c-.5,0-1-.3-1.2-.7l-507.1-878.3c-.3-.5-.2-1.2.2-1.7.4-.4,1.1-.5,1.7-.2l509.1,289.6c.4.2.7.7.7,1.2l-2,588.7c0,.6-.4,1.2-1,1.3-.1,0-.2,0-.4,0ZM328.9,848.3l502,869.4,2-582.7-503.9-286.7Z"/>
          </g>
        </g>
      </g>
    </g>
  </g>
  <g id="Gruppe_89">
    <g id="Bringen_Sie_die_Physik_zum_Leuchten_" class="st3">
      <g class="st3">
        <path class="st10" d="M271.7,383.7c0,14.9-10.7,23.6-27.5,23.6h-36.1v-81.7h35.8c15.1,0,25,7.2,25,21.2s-3.5,13.1-10.2,16.5c8.8,2.9,13,10.9,13,20.4ZM241.7,341.4h-16.9v16.5h17.4c6.9,0,9.9-2.8,9.9-8.3s-3.4-8.2-10.4-8.2ZM254.8,382.3c0-6-2.5-9.1-11.1-9.1h-18.9v18.2h19c8.5,0,11-3.6,11-9.1Z"/>
        <path class="st10" d="M323.3,341.9v17.2c-1.3-.1-2.2-.2-4.1-.2-10.6,0-19.7,4.7-19.7,19.8v28.6h-16.7v-64.2h16.7v11.2c4-8.4,11-12.6,20.1-12.6s2.7.1,3.7.2Z"/>
        <path class="st10" d="M351.2,323.2c0,5.7-4.3,9.9-10.4,9.9s-10.4-4.2-10.4-9.9,4.6-9.8,10.4-9.8,10.4,4.1,10.4,9.8ZM332.4,343.1h16.7v64.2h-16.7v-64.2Z"/>
        <path class="st10" d="M422.3,367v40.3h-16.7v-36.6c0-8.4-3.2-13.1-12-13.1s-14.5,5.5-14.5,16v33.7h-16.7v-64.2h16.7v8.8c4.7-6.5,11.1-10.2,20-10.2,14.5,0,23.2,9.6,23.2,25.3Z"/>
        <path class="st10" d="M499.7,343.1v63.4c0,19-12.4,31.4-31.7,31.4s-30.1-7.8-32.6-24.6h17.3c1.9,7.2,7.9,9.8,14.8,9.8,10.2,0,15.5-5.3,15.5-16.1v-9.2c-4.6,6.1-11.2,10-20.2,10-16.8,0-29.3-13.8-29.3-33s12.7-33,29.3-33,15.8,4.1,20.2,10.3v-8.9h16.7ZM483,374.7c0-10-7.1-17.2-16.5-17.2s-16.2,7.1-16.2,17.2,7,17.2,16.2,17.2,16.5-7,16.5-17.2Z"/>
        <path class="st10" d="M577.8,379.5h-49.2c1,10.3,8.1,15.4,16.7,15.4s12-2.9,14.2-8.1h17.3c-4.8,15.2-17.6,21.8-31.4,21.8-20.1,0-33.8-14.2-33.8-33.4s13.9-33.6,33.5-33.6,34.4,16.7,32.8,37.8ZM529.3,367.2h30.7c-1.9-7-7.1-11.8-15.2-11.8s-13.4,4.9-15.5,11.8Z"/>
        <path class="st10" d="M648.9,367v40.3h-16.7v-36.6c0-8.4-3.2-13.1-12-13.1s-14.5,5.5-14.5,16v33.7h-16.7v-64.2h16.7v8.8c4.7-6.5,11.1-10.2,20-10.2,14.5,0,23.2,9.6,23.2,25.3Z"/>
      </g>
      <g class="st3">
        <path class="st10" d="M761,383.1c0,19-17.3,25.6-31,25.6-23.9,0-33.7-13.5-35.6-27.7h16.8c2.2,8.1,7.1,12.1,18.7,12.1s14.4-3.5,14.4-9.3-5.7-6.9-20.1-10c-14.6-3-27.7-7.8-27.7-23.9s15.3-25.7,30.8-25.7,31,11.8,32.9,25.3h-16.9c-1.7-5.7-5.8-9.8-15.9-9.8s-14.1,4.2-14.1,9.5,4.1,6,14.8,8.3c21.8,4.7,32.9,9.5,32.9,25.7Z"/>
        <path class="st10" d="M790.8,323.2c0,5.7-4.3,9.9-10.4,9.9s-10.4-4.2-10.4-9.9,4.6-9.8,10.4-9.8,10.4,4.1,10.4,9.8ZM772,343.1h16.7v64.2h-16.7v-64.2Z"/>
        <path class="st10" d="M866.9,379.5h-49.2c1,10.3,8.1,15.4,16.7,15.4s12-2.9,14.2-8.1h17.3c-4.8,15.2-17.6,21.8-31.4,21.8-20.1,0-33.8-14.2-33.8-33.4s13.9-33.6,33.5-33.6,34.4,16.7,32.8,37.8ZM818.4,367.2h30.7c-1.9-7-7.1-11.8-15.2-11.8s-13.4,4.9-15.5,11.8Z"/>
      </g>
      <g class="st3">
        <path class="st10" d="M978.8,317.4v89.9h-16.7v-8.6c-4.4,6.1-11.2,10-20.2,10-16.7,0-29.3-13.8-29.3-33.5s12.7-33.5,29.2-33.5,15.9,4.2,20.3,10.4v-34.7h16.7ZM962.1,375.2c0-10.5-7.1-17.6-16.5-17.6s-16.2,7.1-16.2,17.6,7,17.6,16.2,17.6,16.5-7,16.5-17.6Z"/>
        <path class="st10" d="M1010.8,323.2c0,5.7-4.3,9.9-10.4,9.9s-10.4-4.2-10.4-9.9,4.6-9.8,10.4-9.8,10.4,4.1,10.4,9.8ZM992,343.1h16.7v64.2h-16.7v-64.2Z"/>
        <path class="st10" d="M1086.9,379.5h-49.2c1,10.3,8.1,15.4,16.7,15.4s12-2.9,14.2-8.1h17.3c-4.8,15.2-17.6,21.8-31.4,21.8-20.1,0-33.8-14.2-33.8-33.4s13.9-33.6,33.5-33.6,34.4,16.7,32.8,37.8ZM1038.5,367.2h30.7c-1.9-7-7.1-11.8-15.2-11.8s-13.4,4.9-15.5,11.8Z"/>
      </g>
      <g class="st3">
        <path class="st10" d="M1198.8,353c0,17.2-11.6,27.9-29.1,27.9h-17.6v26.4h-16.7v-81.7h34.3c17.5,0,29.1,10.3,29.1,27.4ZM1181.9,353.2c0-7.2-4.2-11.8-12.8-11.8h-16.9v23.6h16.9c8.6,0,12.8-4.7,12.8-11.8Z"/>
        <path class="st10" d="M1270.6,367v40.3h-16.7v-36.6c0-8.4-3.3-13.1-12-13.1s-14.4,5.5-14.4,16v33.7h-16.7v-89.9h16.7v34.4c4.7-6.5,11.1-10.2,20-10.2,14.4,0,23.1,9.6,23.1,25.3Z"/>
        <path class="st10" d="M1346.6,343.1l-41.8,93.4h-17.7l16.8-37.7-24.7-55.7h17.7l15.9,37.6,16-37.6h17.9Z"/>
        <path class="st10" d="M1350.6,386.1h16.9c1.3,5.1,5.1,8.6,15.5,8.6s10.9-1.7,10.9-5.2-5-4.7-14.7-7c-18.2-4.3-25.7-8.4-25.7-19.5s11.2-21.4,28.1-21.4,26.6,8.6,28.8,20.5h-16.9c-1.3-4.1-4.8-6.5-12.5-6.5s-10.7,1.9-10.7,5.4,2.9,3.6,12.3,5.7c18.3,4.2,28.6,7.7,28.6,20.5s-12.7,21.4-28.6,21.4-29.6-8.4-32-22.5Z"/>
        <path class="st10" d="M1440.8,323.2c0,5.7-4.3,9.9-10.4,9.9s-10.4-4.2-10.4-9.9,4.6-9.8,10.4-9.8,10.4,4.1,10.4,9.8ZM1422,343.1h16.7v64.2h-16.7v-64.2Z"/>
        <path class="st10" d="M1495.6,407.2l-26.3-28v28h-16.7v-89.9h16.7v52.4l24.4-26.7h21.2l-29.3,30.6,31.3,33.6h-21.4Z"/>
      </g>
      <g class="st3">
        <path class="st10" d="M258.5,519.3v15.8h-55v-15.8l32.4-32.7h-30.6v-15.8h52.3v15.8l-32.6,32.7h33.4Z"/>
        <path class="st10" d="M328.3,470.8v64.2h-16.7v-8.9c-4.7,6.5-11,10.3-19.8,10.3-14.1,0-22.9-9.7-22.9-25.3v-40.3h16.7v36.6c0,8.4,3.2,13.1,11.8,13.1s14.2-5.5,14.2-16v-33.7h16.7Z"/>
        <path class="st10" d="M440.4,494.4v40.6h-16.7v-37c0-8.2-3-12.7-11.1-12.7s-13.3,5.8-13.3,16v33.7h-16.7v-37c0-8.2-3-12.7-11.1-12.7s-13.4,5.8-13.4,16v33.7c.1,0-16.7,0-16.7,0v-64.2h16.8v8.5c4.6-6.4,10.6-9.9,19-9.9s16,4.3,19.5,12.1c4.7-7.6,12-12.1,21.5-12.1,13.7,0,22.2,9.5,22.2,25Z"/>
      </g>
      <g class="st3">
        <path class="st10" d="M542,519.2v15.9h-51.7v-81.7h16.7v65.8h35Z"/>
        <path class="st10" d="M616,507.3h-49.2c1,10.3,8.1,15.4,16.7,15.4s12-2.9,14.2-8.1h17.3c-4.8,15.2-17.6,21.8-31.4,21.8-20.1,0-33.8-14.2-33.8-33.4s13.9-33.6,33.5-33.6,34.4,16.7,32.8,37.8ZM567.6,495h30.7c-1.9-7-7.1-11.8-15.2-11.8s-13.4,4.9-15.5,11.8Z"/>
        <path class="st10" d="M686.1,470.8v64.2h-16.7v-8.9c-4.7,6.5-11,10.3-19.8,10.3-14.1,0-22.9-9.7-22.9-25.3v-40.3h16.7v36.6c0,8.4,3.2,13.1,11.8,13.1s14.2-5.5,14.2-16v-33.7h16.7Z"/>
        <path class="st10" d="M697.8,502.9c0-19,14.1-33.5,33.5-33.5s29.5,9.5,32,25.8h-17.2c-2-7-8.1-10.4-14.8-10.4-10.2,0-16.7,7.5-16.6,18.1-.1,10.7,6.7,18.1,16.5,18.1s13-3.5,14.9-10.5h17.2c-2.6,16.9-16.7,25.9-32.1,25.9s-33.4-14.5-33.4-33.5Z"/>
        <path class="st10" d="M834.2,494.8v40.3h-16.7v-36.6c0-8.4-3.3-13.1-12-13.1s-14.4,5.5-14.4,16v33.7h-16.7v-89.9h16.7v34.4c4.7-6.5,11.1-10.2,20-10.2,14.4,0,23.1,9.6,23.1,25.3Z"/>
        <path class="st10" d="M897.4,531.3c-3.5,2.3-11.4,5.1-19.1,5.1-12.8,0-24-7.7-24-26.1v-23.7h-11.4v-15.8h11.4v-13.9l16.7-3.6v17.5h23.8v15.8h-23.8v22.8c0,7.6,3.6,11.6,10.3,11.6s8.2-1.3,13.4-3.1l2.8,13.5Z"/>
        <path class="st10" d="M969.8,507.3h-49.2c1,10.3,8.1,15.4,16.7,15.4s12-2.9,14.2-8.1h17.3c-4.8,15.2-17.6,21.8-31.4,21.8-20.1,0-33.8-14.2-33.8-33.4s13.9-33.6,33.5-33.6,34.4,16.7,32.8,37.8ZM921.3,495h30.7c-1.9-7-7.1-11.8-15.2-11.8s-13.4,4.9-15.5,11.8Z"/>
        <path class="st10" d="M1040.9,494.8v40.3h-16.7v-36.6c0-8.4-3.1-13.1-12-13.1s-14.5,5.5-14.5,16v33.7h-16.7v-64.2h16.7v8.8c4.7-6.5,11.1-10.2,20-10.2,14.5,0,23.2,9.6,23.2,25.3Z"/>
        <path class="st10" d="M1076.6,526.5c0,5.7-4.6,9.9-10.4,9.9s-10.4-4.2-10.4-9.9,4.4-9.9,10.4-9.9,10.4,4.2,10.4,9.9ZM1074.5,480.4l-1,27.3h-14.6l-1-27.3v-27.1h16.7v27.1Z"/>
      </g>
    </g>
    <g id="Erkunden_Sie_mit_Hilfe_des_Hexadekachors_die_16_Theorien_der_Physik_abgeleitet_aus_den_vier_Naturkonstanten_nach_Max_Planck._" class="st3">
      <g class="st3">
        <path class="st10" d="M222.1,611.2l-.4,6.9h-20.3v-2.5h3.1v-24.1h-3.1v-2.5h20v6.3h-3v-3.8h-10.8v10.6h9.5v2.8h-9.5v10.7h11.2l.3-4.4h3Z"/>
        <path class="st10" d="M235.2,618.1h-9.4v-2.5h2.7v-15.7h-2.7v-2.5h5.5l.3,3.5c.8-2,2.4-4.1,5.6-4.1s1.7.1,2.5.5l-.4,2.7c-.9-.2-1.7-.3-2.3-.3-3.3,0-5.3,3-5.3,8.2v7.7h3.6v2.5Z"/>
        <path class="st10" d="M250,618.1h-8.6v-2.5h2.7v-24.9h-2.7v-2.5h5.8v17.8l7.9-6.1h-2.6v-2.5h9.4v2.5c.1,0-3,0-3,0l-8.4,6.5,9.5,9.3h2.7v2.5h-9v-2.5h2.5l-8.9-8.7v8.7h2.8v2.5Z"/>
        <path class="st10" d="M278.4,597.3h5.8v18.3h2.8v2.5h-5.5l-.2-3c-1.2,2.1-3.7,3.5-6.7,3.5-4.4,0-7.5-2.7-7.5-9v-9.8h-2.7v-2.5h5.8v12.3c0,4.5,2.2,6.3,5.2,6.3s5.8-3,5.8-6.1v-9.9h-2.7v-2.5Z"/>
        <path class="st10" d="M312.8,618.1h-5.8v-11.9c0-4.3-1.8-6.6-5-6.6s-6,1.8-6,6.8v9.2h2.7v2.5h-8.6v-2.5h2.7v-15.8h-2.7v-2.5h5.5l.2,3.5c1.2-2.2,3.5-4,6.8-4,4.9,0,7.5,3.5,7.5,9.3v9.5h2.8v2.5Z"/>
        <path class="st10" d="M338,618.1h-5.7l-.2-2.8v-.6c-1.5,2.4-4,3.9-7.1,3.9-5.4,0-9.2-4.2-9.2-10.9s3.8-10.9,9.3-10.9,5.8,1.7,7.1,4.1v-.4s0-9.8,0-9.8h-2.8v-2.5h5.8v27.5h2.8v2.5ZM325.5,615.9c4.1,0,6.7-3.3,6.7-8.2s-2.6-8.1-6.7-8.1-6.5,3.3-6.5,8.2,2.5,8.2,6.5,8.2Z"/>
        <path class="st10" d="M350.6,596.8c5.6,0,9.2,4.2,9.2,10v1.1h-15.3c0,4.7,2.4,8.1,7.1,8.1s5-1.1,6.3-2.3l1.5,1.9c-1.7,1.8-4.5,3-8.1,3-6,0-10-3.7-10-11s3.5-10.8,9.3-10.8ZM344.6,605.5h12c-.4-3.7-2.5-6.1-6-6.1s-5.5,2.4-6,6.1Z"/>
        <path class="st10" d="M386,618.1h-5.8v-11.9c0-4.3-1.8-6.6-5-6.6s-6,1.8-6,6.8v9.2h2.7v2.5h-8.6v-2.5h2.7v-15.8h-2.7v-2.5h5.5l.2,3.5c1.2-2.2,3.5-4,6.8-4,4.9,0,7.5,3.5,7.5,9.3v9.5h2.8v2.5Z"/>
        <path class="st10" d="M401.9,611v4.3c1.9.6,4.1.8,6,.8,4.3,0,6.7-1.7,6.7-6,0-8.1-15.5-4.2-15.5-14s4.1-7.6,9-7.6,6.7,1.1,8.8,2.3v5.6h-2.8v-4.1c-1.5-.7-3.3-1.2-5.7-1.2s-6.1,1.3-6.1,4.7c0,7.5,15.5,3.7,15.5,14s-4,8.9-9.9,8.9-6.5-.5-8.7-1.5v-6.2h2.9Z"/>
        <path class="st10" d="M421.6,597.3h5.8v18.3h2.8v2.5h-8.6v-2.5h2.7v-15.8h-2.7v-2.5ZM425.8,588.1c1.3,0,2.1.9,2.1,2s-.8,2-2.1,2-2-.9-2-2,.7-2,2-2Z"/>
        <path class="st10" d="M442.7,596.8c5.6,0,9.2,4.2,9.2,10v1.1h-15.3c0,4.7,2.4,8.1,7.1,8.1s5-1.1,6.3-2.3l1.5,1.9c-1.7,1.8-4.5,3-8.1,3-6,0-10-3.7-10-11s3.5-10.8,9.3-10.8ZM436.7,605.5h12c-.4-3.7-2.5-6.1-6-6.1s-5.5,2.4-6,6.1Z"/>
        <path class="st10" d="M478.3,615.6h2.8v-10.3c0-3.7-2.2-5.7-4.9-5.7s-5.5,2.5-5.5,5.7v10.3h2.8v2.5h-8.6v-2.5h2.7v-15.8h-2.7v-2.5h5.5l.2,2.9c1.2-2,3.4-3.4,6.1-3.4s5.3,1.3,6.5,3.9c1.7-2.6,3.8-3.9,6.9-3.9,4.7,0,7.4,2.9,7.4,8.3v10.5h2.7v2.5h-8.6v-2.5h2.8v-10.3c0-4-2.1-5.7-4.8-5.7s-5.5,2.1-5.6,5.5v10.6h2.8v2.5h-8.6v-2.5Z"/>
        <path class="st10" d="M503.2,597.3h5.8v18.3h2.8v2.5h-8.6v-2.5h2.7v-15.8h-2.7v-2.5ZM507.5,588.1c1.3,0,2.1.9,2.1,2s-.8,2-2.1,2-2-.9-2-2,.7-2,2-2Z"/>
        <path class="st10" d="M514,597.3h3.4v-5.1h3v5.1h5.2v2.5h-5.2v12.2c0,3,1.2,3.9,3,3.9s1.6-.1,2.6-.4l.4,2.4c-1.2.4-2,.6-3.2.6-3.9,0-5.8-2-5.8-6.8v-11.9h-3.4v-2.5Z"/>
        <path class="st10" d="M548.1,618.1h-9.4v-2.5h3.1v-24.1h-3.1v-2.5h9.4v2.5h-3.1v10.6h14v-10.6h-3.1v-2.5h9.4v2.5h-3.1v24.1h3.1v2.5h-9.4v-2.5h3.1v-10.8h-14v10.8h3.1v2.5Z"/>
        <path class="st10" d="M569.1,597.3h5.8v18.3h2.8v2.5h-8.6v-2.5h2.7v-15.8h-2.7v-2.5ZM573.4,588.1c1.3,0,2.1.9,2.1,2s-.8,2-2.1,2-2-.9-2-2,.7-2,2-2Z"/>
        <path class="st10" d="M586.2,615.6h2.9v2.5h-8.6v-2.5h2.7v-24.9h-2.8v-2.5h5.8v27.5Z"/>
        <path class="st10" d="M598.5,597.3h5.7v2.5h-5.7v15.8h3.7v2.5h-10.1v-2.5h3.2v-15.8h-3.3v-2.5h3.3v-1.6c0-5.4,2.8-8,7.1-8s2.4.2,3.2.5l-.3,2.5c-.7-.1-1.6-.3-2.6-.3-2.8,0-4.2,2-4.2,5.5v1.5Z"/>
        <path class="st10" d="M615.7,596.8c5.6,0,9.2,4.2,9.2,10v1.1h-15.3c0,4.7,2.4,8.1,7.1,8.1s5-1.1,6.3-2.3l1.5,1.9c-1.7,1.8-4.5,3-8.1,3-6,0-10-3.7-10-11s3.5-10.8,9.3-10.8ZM609.7,605.5h12c-.4-3.7-2.5-6.1-6-6.1s-5.5,2.4-6,6.1Z"/>
        <path class="st10" d="M660.2,618.1h-5.7l-.2-2.8v-.6c-1.5,2.4-4,3.9-7.1,3.9-5.4,0-9.2-4.2-9.2-10.9s3.8-10.9,9.3-10.9,5.8,1.7,7.1,4.1v-.4s0-9.8,0-9.8h-2.8v-2.5h5.8v27.5h2.8v2.5ZM647.7,615.9c4.1,0,6.7-3.3,6.7-8.2s-2.6-8.1-6.7-8.1-6.5,3.3-6.5,8.2,2.5,8.2,6.5,8.2Z"/>
        <path class="st10" d="M672.8,596.8c5.6,0,9.2,4.2,9.2,10v1.1h-15.3c0,4.7,2.4,8.1,7.1,8.1s5-1.1,6.3-2.3l1.5,1.9c-1.7,1.8-4.5,3-8.1,3-6,0-10-3.7-10-11s3.5-10.8,9.3-10.8ZM666.8,605.5h12c-.4-3.7-2.5-6.1-6-6.1s-5.5,2.4-6,6.1Z"/>
        <path class="st10" d="M688.6,612v3.7c1.8.5,3.5.6,5.3.6,3.2,0,5-1.1,5-3.5s-1.1-2.8-4.2-3.6l-3-.8c-4.1-1.1-5.9-2.7-5.9-5.7,0-4.5,4.2-5.8,8-5.8s5.7.8,7.2,1.6v5.3h-2.6v-3.8c-1.4-.5-2.9-.7-4.6-.7-2.8,0-5.2.7-5.2,3.1s.7,2.4,3.9,3.2l3.1.7c3.9,1,6,2.4,6,6s-3.4,6.3-7.9,6.3-5.5-.3-7.9-1.2v-5.4h2.6Z"/>
        <path class="st10" d="M724.7,618.1h-9.4v-2.5h3.1v-24.1h-3.1v-2.5h9.4v2.5h-3.1v10.6h14v-10.6h-3.1v-2.5h9.4v2.5h-3.1v24.1h3.1v2.5h-9.4v-2.5h3.1v-10.8h-14v10.8h3.1v2.5Z"/>
        <path class="st10" d="M754.4,596.8c5.6,0,9.2,4.2,9.2,10v1.1h-15.3c0,4.7,2.4,8.1,7.1,8.1s5-1.1,6.3-2.3l1.5,1.9c-1.7,1.8-4.5,3-8.1,3-6,0-10-3.7-10-11s3.5-10.8,9.3-10.8ZM748.4,605.5h12c-.4-3.7-2.5-6.1-6-6.1s-5.5,2.4-6,6.1Z"/>
        <path class="st10" d="M766.6,597.3h7.8v2.5h-2l4.3,6.3,4.3-6.3h-2v-2.5h7.7v2.5h-2.4l-5.6,7.8,6,8h2.3v2.5h-7.9v-2.5h2.3l-4.8-6.4-4.8,6.4h2.3v2.5h-7.9v-2.5h2.4l6-8-5.5-7.8h-2.4v-2.5Z"/>
        <path class="st10" d="M808.9,618.1h-5.3l-.3-2.9c-1.3,2-3.6,3.4-6.8,3.4-4.7,0-6.7-2.9-6.7-6.4s2.4-6.3,8.5-6.3h4.8v-1.8c0-3-1.7-4.8-5.2-4.8s-3.2.2-4.2.5v3.4h-2.7v-5.2c1.5-.7,4.1-1.2,7-1.2,5.4,0,8.2,2.5,8.2,7.4v11.4h2.6v2.5ZM803.2,610.5v-2.2h-4.8c-3.7,0-5.4,1.4-5.4,3.9s1.3,3.8,4.1,3.8,6-2.3,6.1-5.5Z"/>
        <path class="st10" d="M834.1,618.1h-5.7l-.2-2.8v-.6c-1.5,2.4-4,3.9-7.1,3.9-5.4,0-9.2-4.2-9.2-10.9s3.8-10.9,9.3-10.9,5.8,1.7,7.1,4.1v-.4s0-9.8,0-9.8h-2.8v-2.5h5.8v27.5h2.8v2.5ZM821.6,615.9c4.1,0,6.7-3.3,6.7-8.2s-2.6-8.1-6.7-8.1-6.5,3.3-6.5,8.2,2.5,8.2,6.5,8.2Z"/>
        <path class="st10" d="M846.7,596.8c5.6,0,9.2,4.2,9.2,10v1.1h-15.3c0,4.7,2.4,8.1,7.1,8.1s5-1.1,6.3-2.3l1.5,1.9c-1.7,1.8-4.5,3-8.1,3-6,0-10-3.7-10-11s3.5-10.8,9.3-10.8ZM840.7,605.5h12c-.4-3.7-2.5-6.1-6-6.1s-5.5,2.4-6,6.1Z"/>
        <path class="st10" d="M867.6,618.1h-8.6v-2.5h2.7v-24.9h-2.7v-2.5h5.8v17.8l7.9-6.1h-2.6v-2.5h9.4v2.5c.1,0-3,0-3,0l-8.4,6.5,9.5,9.3h2.7v2.5h-9v-2.5h2.5l-8.9-8.7v8.7h2.8v2.5Z"/>
        <path class="st10" d="M901.4,618.1h-5.3l-.3-2.9c-1.3,2-3.6,3.4-6.8,3.4-4.7,0-6.7-2.9-6.7-6.4s2.4-6.3,8.5-6.3h4.8v-1.8c0-3-1.7-4.8-5.2-4.8s-3.2.2-4.2.5v3.4h-2.7v-5.2c1.5-.7,4.1-1.2,7-1.2,5.4,0,8.2,2.5,8.2,7.4v11.4h2.6v2.5ZM895.7,610.5v-2.2h-4.8c-3.7,0-5.4,1.4-5.4,3.9s1.3,3.8,4.1,3.8,6-2.3,6.1-5.5Z"/>
        <path class="st10" d="M915,615.9c2.2,0,4.5-.8,5.7-2l1.6,2c-1.9,1.7-4.3,2.6-7.6,2.6-6,0-10.3-3.7-10.3-11s4.5-10.8,9.9-10.8,5.3.7,6.8,2v6h-2.8v-4.4c-1-.6-2.3-.9-3.8-.9-3.8,0-6.8,2.7-6.8,8.1s3.1,8.3,7.4,8.3Z"/>
        <path class="st10" d="M947.6,618.1h-5.8v-11.9c0-4.3-1.8-6.6-5-6.6s-6,1.8-6,6.8v9.2h2.8v2.5h-8.6v-2.5h2.7v-24.9h-2.7v-2.5h5.8v12.4c1.2-2.1,3.5-3.7,6.6-3.7,4.9,0,7.5,3.5,7.5,9.3v9.5h2.8v2.5Z"/>
        <path class="st10" d="M960.6,596.8c6,0,9.9,4.3,9.9,10.8s-3.9,11-9.9,11-10-4.5-10-11,3.9-10.8,10-10.8ZM960.6,599.6c-4.4,0-6.8,3.4-6.8,8s2.3,8.3,6.8,8.3,6.7-3.6,6.7-8.3-2.3-8-6.7-8Z"/>
        <path class="st10" d="M983.6,618.1h-9.4v-2.5h2.7v-15.7h-2.7v-2.5h5.5l.3,3.5c.8-2,2.4-4.1,5.6-4.1s1.7.1,2.5.5l-.4,2.7c-.9-.2-1.7-.3-2.3-.3-3.3,0-5.3,3-5.3,8.2v7.7h3.6v2.5Z"/>
        <path class="st10" d="M993,612v3.7c1.8.5,3.5.6,5.3.6,3.2,0,5-1.1,5-3.5s-1.1-2.8-4.2-3.6l-3-.8c-4.1-1.1-5.9-2.7-5.9-5.7,0-4.5,4.2-5.8,8-5.8s5.7.8,7.2,1.6v5.3h-2.6v-3.8c-1.4-.5-2.9-.7-4.6-.7-2.8,0-5.2.7-5.2,3.1s.7,2.4,3.9,3.2l3.1.7c3.9,1,6,2.4,6,6s-3.4,6.3-7.9,6.3-5.5-.3-7.9-1.2v-5.4h2.6Z"/>
        <path class="st10" d="M1041.8,618.1h-5.7l-.2-2.8v-.6c-1.5,2.4-4,3.9-7.1,3.9-5.4,0-9.2-4.2-9.2-10.9s3.8-10.9,9.3-10.9,5.8,1.7,7.1,4.1v-.4s0-9.8,0-9.8h-2.8v-2.5h5.8v27.5h2.8v2.5ZM1029.3,615.9c4.1,0,6.7-3.3,6.7-8.2s-2.6-8.1-6.7-8.1-6.5,3.3-6.5,8.2,2.5,8.2,6.5,8.2Z"/>
        <path class="st10" d="M1045,597.3h5.8v18.3h2.8v2.5h-8.6v-2.5h2.7v-15.8h-2.7v-2.5ZM1049.2,588.1c1.3,0,2.1.9,2.1,2s-.8,2-2.1,2-2-.9-2-2,.7-2,2-2Z"/>
        <path class="st10" d="M1066.1,596.8c5.6,0,9.2,4.2,9.2,10v1.1h-15.3c0,4.7,2.4,8.1,7.1,8.1s5-1.1,6.3-2.3l1.5,1.9c-1.7,1.8-4.5,3-8.1,3-6,0-10-3.7-10-11s3.5-10.8,9.3-10.8ZM1060.1,605.5h12c-.4-3.7-2.5-6.1-6-6.1s-5.5,2.4-6,6.1Z"/>
        <path class="st10" d="M1101.4,618.1h-12.9v-2.5h5v-23.5l-4.7,2-.7-2.5,5.9-2.7h2.7v26.6h4.7v2.5Z"/>
        <path class="st10" d="M1104.7,604.3c0-14.1,8-15.8,12.8-15.8s3.9.4,4.6.9v5.4h-2.7v-3.6c-.6-.1-1.3-.2-2-.2-3.6,0-9.3,1.3-9.7,12.6,1.3-2.7,3.7-4.4,7-4.4,4.9,0,8.4,3.8,8.4,9.6s-3,9.9-8.9,9.9-9.6-4.5-9.6-14.3ZM1108.1,608.1c.5,5.7,2.4,8,6.2,8s5.7-3.2,5.7-7.2-2.5-7.3-5.8-7.3-5.5,2.6-6.1,6.5Z"/>
        <path class="st10" d="M1155.7,589v6.3h-3v-3.8h-6v24.1h3.1v2.5h-9.4v-2.5h3.1v-24.1h-6.1v3.8h-3v-6.3h21.2Z"/>
        <path class="st10" d="M1180.7,618.1h-5.8v-11.9c0-4.3-1.8-6.6-5-6.6s-6,1.8-6,6.8v9.2h2.8v2.5h-8.6v-2.5h2.7v-24.9h-2.7v-2.5h5.8v12.4c1.2-2.1,3.5-3.7,6.6-3.7,4.9,0,7.5,3.5,7.5,9.3v9.5h2.8v2.5Z"/>
        <path class="st10" d="M1193,596.8c5.6,0,9.2,4.2,9.2,10v1.1h-15.3c0,4.7,2.4,8.1,7.1,8.1s5-1.1,6.3-2.3l1.5,1.9c-1.7,1.8-4.5,3-8.1,3-6,0-10-3.7-10-11s3.5-10.8,9.3-10.8ZM1187,605.5h12c-.4-3.7-2.5-6.1-6-6.1s-5.5,2.4-6,6.1Z"/>
        <path class="st10" d="M1215.8,596.8c6,0,9.9,4.3,9.9,10.8s-3.9,11-9.9,11-10-4.5-10-11,3.9-10.8,10-10.8ZM1215.8,599.6c-4.4,0-6.8,3.4-6.8,8s2.3,8.3,6.8,8.3,6.7-3.6,6.7-8.3-2.3-8-6.7-8Z"/>
        <path class="st10" d="M1238.8,618.1h-9.4v-2.5h2.7v-15.7h-2.7v-2.5h5.5l.3,3.5c.8-2,2.4-4.1,5.6-4.1s1.7.1,2.5.5l-.4,2.7c-.9-.2-1.7-.3-2.3-.3-3.3,0-5.3,3-5.3,8.2v7.7h3.6v2.5Z"/>
        <path class="st10" d="M1245.6,597.3h5.8v18.3h2.8v2.5h-8.6v-2.5h2.7v-15.8h-2.7v-2.5ZM1249.8,588.1c1.3,0,2.1.9,2.1,2s-.8,2-2.1,2-2-.9-2-2,.7-2,2-2Z"/>
        <path class="st10" d="M1266.7,596.8c5.6,0,9.2,4.2,9.2,10v1.1h-15.3c0,4.7,2.4,8.1,7.1,8.1s5-1.1,6.3-2.3l1.5,1.9c-1.7,1.8-4.5,3-8.1,3-6,0-10-3.7-10-11s3.5-10.8,9.3-10.8ZM1260.7,605.5h12c-.4-3.7-2.5-6.1-6-6.1s-5.5,2.4-6,6.1Z"/>
        <path class="st10" d="M1302.1,618.1h-5.8v-11.9c0-4.3-1.8-6.6-5-6.6s-6,1.8-6,6.8v9.2h2.7v2.5h-8.6v-2.5h2.7v-15.8h-2.7v-2.5h5.5l.2,3.5c1.2-2.2,3.5-4,6.8-4,4.9,0,7.5,3.5,7.5,9.3v9.5h2.8v2.5Z"/>
        <path class="st10" d="M1336.8,618.1h-5.7l-.2-2.8v-.6c-1.5,2.4-4,3.9-7.1,3.9-5.4,0-9.2-4.2-9.2-10.9s3.8-10.9,9.3-10.9,5.8,1.7,7.1,4.1v-.4s0-9.8,0-9.8h-2.8v-2.5h5.8v27.5h2.8v2.5ZM1324.3,615.9c4.1,0,6.7-3.3,6.7-8.2s-2.6-8.1-6.7-8.1-6.5,3.3-6.5,8.2,2.5,8.2,6.5,8.2Z"/>
        <path class="st10" d="M1349.4,596.8c5.6,0,9.2,4.2,9.2,10v1.1h-15.3c0,4.7,2.4,8.1,7.1,8.1s5-1.1,6.3-2.3l1.5,1.9c-1.7,1.8-4.5,3-8.1,3-6,0-10-3.7-10-11s3.5-10.8,9.3-10.8ZM1343.3,605.5h12c-.4-3.7-2.5-6.1-6-6.1s-5.5,2.4-6,6.1Z"/>
        <path class="st10" d="M1371.5,618.1h-9.4v-2.5h2.7v-15.7h-2.7v-2.5h5.5l.3,3.5c.8-2,2.4-4.1,5.6-4.1s1.7.1,2.5.5l-.4,2.7c-.9-.2-1.7-.3-2.3-.3-3.3,0-5.3,3-5.3,8.2v7.7h3.6v2.5Z"/>
      </g>
      <g class="st3">
        <path class="st10" d="M210.8,673.7h-9.4v-2.5h3.1v-24.1h-3.1v-2.5h10.3c7.8,0,11.2,3.9,11.2,9s-3.4,9.3-11.2,9.3h-4v8.3h3.1v2.5ZM207.7,647.1v13.3h4c5.7,0,7.8-2.9,7.8-6.8s-2.3-6.5-7.8-6.5h-4Z"/>
        <path class="st10" d="M248.2,673.7h-5.8v-11.9c0-4.3-1.8-6.6-5-6.6s-6,1.8-6,6.8v9.2h2.8v2.5h-8.6v-2.5h2.7v-24.9h-2.7v-2.5h5.8v12.4c1.2-2.1,3.5-3.7,6.6-3.7,4.9,0,7.5,3.5,7.5,9.3v9.5h2.8v2.5Z"/>
        <path class="st10" d="M270.7,655.4h-2.5l-7.7,20.2c-2.3,6-4.9,7.5-8.7,7.5s-2-.1-2.6-.4l.4-2.4c.5.1,1.4.3,2.1.3,2.3,0,4.2-.9,5.8-4.8l.8-2.1h-.4l-6.7-18.3h-2.5v-2.5h7.9v2.5h-2.1l5.2,15.2,5.2-15.2h-2.4v-2.5h8.1v2.5Z"/>
        <path class="st10" d="M275.5,667.5v3.7c1.8.5,3.5.6,5.3.6,3.2,0,5-1.1,5-3.5s-1.1-2.8-4.2-3.6l-3-.8c-4.1-1.1-5.9-2.7-5.9-5.7,0-4.5,4.2-5.8,8-5.8s5.7.8,7.2,1.6v5.3h-2.6v-3.8c-1.4-.5-2.9-.7-4.6-.7-2.8,0-5.2.7-5.2,3.1s.7,2.4,3.9,3.2l3.1.7c3.9,1,6,2.4,6,6s-3.4,6.3-7.9,6.3-5.5-.3-7.9-1.2v-5.4h2.6Z"/>
        <path class="st10" d="M292.5,652.9h5.8v18.3h2.8v2.5h-8.6v-2.5h2.7v-15.8h-2.7v-2.5ZM296.7,643.7c1.3,0,2.1.9,2.1,2s-.8,2-2.1,2-2-.9-2-2,.7-2,2-2Z"/>
        <path class="st10" d="M312.4,673.7h-8.6v-2.5h2.7v-24.9h-2.7v-2.5h5.8v17.8l7.9-6.1h-2.6v-2.5h9.4v2.5c.1,0-3,0-3,0l-8.4,6.5,9.5,9.3h2.7v2.5h-9v-2.5h2.5l-8.9-8.7v8.7h2.8v2.5Z"/>
        <path class="st10" d="M356.1,673.7h-5.3l-.3-2.9c-1.3,2-3.6,3.4-6.8,3.4-4.7,0-6.7-2.9-6.7-6.4s2.4-6.3,8.5-6.3h4.8v-1.8c0-3-1.7-4.8-5.2-4.8s-3.2.2-4.2.5v3.4h-2.7v-5.2c1.5-.7,4.1-1.2,7-1.2,5.4,0,8.2,2.5,8.2,7.4v11.4h2.6v2.5ZM350.4,666.1v-2.2h-4.8c-3.7,0-5.4,1.4-5.4,3.9s1.3,3.8,4.1,3.8,6-2.3,6.1-5.5Z"/>
        <path class="st10" d="M364.3,643.7v12.8c1.3-2.4,3.7-4.2,7.1-4.2,5.5,0,9.3,4.1,9.3,10.9s-3.8,10.9-9.2,10.9-5.7-1.5-7.3-4v3.5h-5.8v-2.5h2.7v-24.9h-2.7v-2.5h5.8ZM371.1,655.1c-4.1,0-6.7,3.3-6.7,8.1s2.6,8.2,6.7,8.2,6.5-3.3,6.5-8.2-2.5-8.2-6.5-8.2Z"/>
        <path class="st10" d="M406.8,655.4h-2.8v17.2c0,7.2-4.4,10.5-11,10.5s-5.2-.4-6.9-1.3l.8-2.5c1.4.7,3.7,1.1,5.9,1.1,4.7,0,8.2-2.4,8.2-7.9v-2.4c-1.6,2.5-4,4-7.2,4-5.4,0-9.2-4.2-9.2-10.9s3.8-10.9,9.3-10.9,5.7,1.7,7.1,4l.2-3.5h5.7v2.5ZM394.3,671.5c4.1,0,6.7-3.3,6.7-8.2s-2.6-8.1-6.7-8.1-6.5,3.3-6.5,8.2,2.5,8.2,6.5,8.2Z"/>
        <path class="st10" d="M419.3,652.4c5.6,0,9.2,4.2,9.2,10v1.1h-15.3c0,4.7,2.4,8.1,7.1,8.1s5-1.1,6.3-2.3l1.5,1.9c-1.7,1.8-4.5,3-8.1,3-6,0-10-3.7-10-11s3.5-10.8,9.3-10.8ZM413.3,661h12c-.4-3.7-2.5-6.1-6-6.1s-5.5,2.4-6,6.1Z"/>
        <path class="st10" d="M437.4,671.2h2.9v2.5h-8.6v-2.5h2.7v-24.9h-2.8v-2.5h5.8v27.5Z"/>
        <path class="st10" d="M452.8,652.4c5.6,0,9.2,4.2,9.2,10v1.1h-15.3c0,4.7,2.4,8.1,7.1,8.1s5-1.1,6.3-2.3l1.5,1.9c-1.7,1.8-4.5,3-8.1,3-6,0-10-3.7-10-11s3.5-10.8,9.3-10.8ZM446.8,661h12c-.4-3.7-2.5-6.1-6-6.1s-5.5,2.4-6,6.1Z"/>
        <path class="st10" d="M465.5,652.9h5.8v18.3h2.8v2.5h-8.6v-2.5h2.7v-15.8h-2.7v-2.5ZM469.8,643.7c1.3,0,2.1.9,2.1,2s-.8,2-2.1,2-2-.9-2-2,.7-2,2-2Z"/>
        <path class="st10" d="M476.3,652.9h3.4v-5.1h3v5.1h5.2v2.5h-5.2v12.2c0,3,1.2,3.9,3,3.9s1.6-.1,2.6-.4l.4,2.4c-1.2.4-2,.6-3.2.6-3.9,0-5.8-2-5.8-6.8v-11.9h-3.4v-2.5Z"/>
        <path class="st10" d="M500.3,652.4c5.6,0,9.2,4.2,9.2,10v1.1h-15.3c0,4.7,2.4,8.1,7.1,8.1s5-1.1,6.3-2.3l1.5,1.9c-1.7,1.8-4.5,3-8.1,3-6,0-10-3.7-10-11s3.5-10.8,9.3-10.8ZM494.3,661h12c-.4-3.7-2.5-6.1-6-6.1s-5.5,2.4-6,6.1Z"/>
        <path class="st10" d="M512.1,652.9h3.4v-5.1h3v5.1h5.2v2.5h-5.2v12.2c0,3,1.2,3.9,3,3.9s1.6-.1,2.6-.4l.4,2.4c-1.2.4-2,.6-3.2.6-3.9,0-5.8-2-5.8-6.8v-11.9h-3.4v-2.5Z"/>
        <path class="st10" d="M555.4,673.7h-5.3l-.3-2.9c-1.3,2-3.6,3.4-6.8,3.4-4.7,0-6.7-2.9-6.7-6.4s2.4-6.3,8.5-6.3h4.8v-1.8c0-3-1.7-4.8-5.2-4.8s-3.2.2-4.2.5v3.4h-2.7v-5.2c1.5-.7,4.1-1.2,7-1.2,5.4,0,8.2,2.5,8.2,7.4v11.4h2.6v2.5ZM549.7,666.1v-2.2h-4.8c-3.7,0-5.4,1.4-5.4,3.9s1.3,3.8,4.1,3.8,6-2.3,6.1-5.5Z"/>
        <path class="st10" d="M571.7,652.9h5.8v18.3h2.8v2.5h-5.5l-.2-3c-1.2,2.1-3.7,3.5-6.7,3.5-4.4,0-7.5-2.7-7.5-9v-9.8h-2.7v-2.5h5.8v12.3c0,4.5,2.2,6.3,5.2,6.3s5.8-3,5.8-6.1v-9.9h-2.7v-2.5Z"/>
        <path class="st10" d="M586.5,667.5v3.7c1.8.5,3.5.6,5.3.6,3.2,0,5-1.1,5-3.5s-1.1-2.8-4.2-3.6l-3-.8c-4.1-1.1-5.9-2.7-5.9-5.7,0-4.5,4.2-5.8,8-5.8s5.7.8,7.2,1.6v5.3h-2.6v-3.8c-1.4-.5-2.9-.7-4.6-.7-2.8,0-5.2.7-5.2,3.1s.7,2.4,3.9,3.2l3.1.7c3.9,1,6,2.4,6,6s-3.4,6.3-7.9,6.3-5.5-.3-7.9-1.2v-5.4h2.6Z"/>
        <path class="st10" d="M635.2,673.7h-5.7l-.2-2.8v-.6c-1.5,2.4-4,3.9-7.1,3.9-5.4,0-9.2-4.2-9.2-10.9s3.8-10.9,9.3-10.9,5.8,1.7,7.1,4.1v-.4s0-9.8,0-9.8h-2.8v-2.5h5.8v27.5h2.8v2.5ZM622.7,671.5c4.1,0,6.7-3.3,6.7-8.2s-2.6-8.1-6.7-8.1-6.5,3.3-6.5,8.2,2.5,8.2,6.5,8.2Z"/>
        <path class="st10" d="M647.8,652.4c5.6,0,9.2,4.2,9.2,10v1.1h-15.3c0,4.7,2.4,8.1,7.1,8.1s5-1.1,6.3-2.3l1.5,1.9c-1.7,1.8-4.5,3-8.1,3-6,0-10-3.7-10-11s3.5-10.8,9.3-10.8ZM641.8,661h12c-.4-3.7-2.5-6.1-6-6.1s-5.5,2.4-6,6.1Z"/>
        <path class="st10" d="M683.2,673.7h-5.8v-11.9c0-4.3-1.8-6.6-5-6.6s-6,1.8-6,6.8v9.2h2.7v2.5h-8.6v-2.5h2.7v-15.8h-2.7v-2.5h5.5l.2,3.5c1.2-2.2,3.5-4,6.8-4,4.9,0,7.5,3.5,7.5,9.3v9.5h2.8v2.5Z"/>
        <path class="st10" d="M702.8,673.7l-7.1-18.3h-2.4v-2.5h7.9v2.5h-2.3l5.4,15.1,5.3-15.1h-2.3v-2.5h7.9v2.5h-2.4l-7,18.3h-3Z"/>
        <path class="st10" d="M717.7,652.9h5.8v18.3h2.8v2.5h-8.6v-2.5h2.7v-15.8h-2.7v-2.5ZM721.9,643.7c1.3,0,2.1.9,2.1,2s-.8,2-2.1,2-2-.9-2-2,.7-2,2-2Z"/>
        <path class="st10" d="M738.8,652.4c5.6,0,9.2,4.2,9.2,10v1.1h-15.3c0,4.7,2.4,8.1,7.1,8.1s5-1.1,6.3-2.3l1.5,1.9c-1.7,1.8-4.5,3-8.1,3-6,0-10-3.7-10-11s3.5-10.8,9.3-10.8ZM732.8,661h12c-.4-3.7-2.5-6.1-6-6.1s-5.5,2.4-6,6.1Z"/>
        <path class="st10" d="M760.9,673.7h-9.4v-2.5h2.7v-15.7h-2.7v-2.5h5.5l.3,3.5c.8-2,2.4-4.1,5.6-4.1s1.7.1,2.5.5l-.4,2.7c-.9-.2-1.7-.3-2.3-.3-3.3,0-5.3,3-5.3,8.2v7.7h3.6v2.5Z"/>
        <path class="st10" d="M785.8,673.7h-9.4v-2.5h3.1v-24.1h-3.1v-2.5h5.8l14.5,22.2.9,1.4v-21h-3.5v-2.5h9.4v2.5h-3.1v26.6h-2.5l-14.8-22.3-.7-1.2v20.9h3.4v2.5Z"/>
        <path class="st10" d="M825.2,673.7h-5.3l-.3-2.9c-1.3,2-3.6,3.4-6.8,3.4-4.7,0-6.7-2.9-6.7-6.4s2.4-6.3,8.5-6.3h4.8v-1.8c0-3-1.7-4.8-5.2-4.8s-3.2.2-4.2.5v3.4h-2.7v-5.2c1.5-.7,4.1-1.2,7-1.2,5.4,0,8.2,2.5,8.2,7.4v11.4h2.6v2.5ZM819.5,666.1v-2.2h-4.8c-3.7,0-5.4,1.4-5.4,3.9s1.3,3.8,4.1,3.8,6-2.3,6.1-5.5Z"/>
        <path class="st10" d="M827.1,652.9h3.4v-5.1h3v5.1h5.2v2.5h-5.2v12.2c0,3,1.2,3.9,3,3.9s1.6-.1,2.6-.4l.4,2.4c-1.2.4-2,.6-3.2.6-3.9,0-5.8-2-5.8-6.8v-11.9h-3.4v-2.5Z"/>
        <path class="st10" d="M855.4,652.9h5.8v18.3h2.8v2.5h-5.5l-.2-3c-1.2,2.1-3.7,3.5-6.7,3.5-4.4,0-7.5-2.7-7.5-9v-9.8h-2.7v-2.5h5.8v12.3c0,4.5,2.2,6.3,5.2,6.3s5.8-3,5.8-6.1v-9.9h-2.7v-2.5Z"/>
        <path class="st10" d="M876.6,673.7h-9.4v-2.5h2.7v-15.7h-2.7v-2.5h5.5l.3,3.5c.8-2,2.4-4.1,5.6-4.1s1.7.1,2.5.5l-.4,2.7c-.9-.2-1.7-.3-2.3-.3-3.3,0-5.3,3-5.3,8.2v7.7h3.6v2.5Z"/>
        <path class="st10" d="M891.4,673.7h-8.6v-2.5h2.7v-24.9h-2.7v-2.5h5.8v17.8l7.9-6.1h-2.6v-2.5h9.4v2.5c.1,0-3,0-3,0l-8.4,6.5,9.5,9.3h2.7v2.5h-9v-2.5h2.5l-8.9-8.7v8.7h2.8v2.5Z"/>
        <path class="st10" d="M915.3,652.4c6,0,9.9,4.3,9.9,10.8s-3.9,11-9.9,11-10-4.5-10-11,3.9-10.8,10-10.8ZM915.3,655.1c-4.4,0-6.8,3.4-6.8,8s2.3,8.3,6.8,8.3,6.7-3.6,6.7-8.3-2.3-8-6.7-8Z"/>
        <path class="st10" d="M951.6,673.7h-5.8v-11.9c0-4.3-1.8-6.6-5-6.6s-6,1.8-6,6.8v9.2h2.7v2.5h-8.6v-2.5h2.7v-15.8h-2.7v-2.5h5.5l.2,3.5c1.2-2.2,3.5-4,6.8-4,4.9,0,7.5,3.5,7.5,9.3v9.5h2.8v2.5Z"/>
        <path class="st10" d="M957.5,667.5v3.7c1.8.5,3.5.6,5.3.6,3.2,0,5-1.1,5-3.5s-1.1-2.8-4.2-3.6l-3-.8c-4.1-1.1-5.9-2.7-5.9-5.7,0-4.5,4.2-5.8,8-5.8s5.7.8,7.2,1.6v5.3h-2.6v-3.8c-1.4-.5-2.9-.7-4.6-.7-2.8,0-5.2.7-5.2,3.1s.7,2.4,3.9,3.2l3.1.7c3.9,1,6,2.4,6,6s-3.4,6.3-7.9,6.3-5.5-.3-7.9-1.2v-5.4h2.6Z"/>
        <path class="st10" d="M973.5,652.9h3.4v-5.1h3v5.1h5.2v2.5h-5.2v12.2c0,3,1.2,3.9,3,3.9s1.6-.1,2.6-.4l.4,2.4c-1.2.4-2,.6-3.2.6-3.9,0-5.8-2-5.8-6.8v-11.9h-3.4v-2.5Z"/>
        <path class="st10" d="M1007.4,673.7h-5.3l-.3-2.9c-1.3,2-3.6,3.4-6.8,3.4-4.7,0-6.7-2.9-6.7-6.4s2.4-6.3,8.5-6.3h4.8v-1.8c0-3-1.7-4.8-5.2-4.8s-3.2.2-4.2.5v3.4h-2.7v-5.2c1.5-.7,4.1-1.2,7-1.2,5.4,0,8.2,2.5,8.2,7.4v11.4h2.6v2.5ZM1001.7,666.1v-2.2h-4.8c-3.7,0-5.4,1.4-5.4,3.9s1.3,3.8,4.1,3.8,6-2.3,6.1-5.5Z"/>
        <path class="st10" d="M1033,673.7h-5.8v-11.9c0-4.3-1.8-6.6-5-6.6s-6,1.8-6,6.8v9.2h2.7v2.5h-8.6v-2.5h2.7v-15.8h-2.7v-2.5h5.5l.2,3.5c1.2-2.2,3.5-4,6.8-4,4.9,0,7.5,3.5,7.5,9.3v9.5h2.8v2.5Z"/>
        <path class="st10" d="M1034.8,652.9h3.4v-5.1h3v5.1h5.2v2.5h-5.2v12.2c0,3,1.2,3.9,3,3.9s1.6-.1,2.6-.4l.4,2.4c-1.2.4-2,.6-3.2.6-3.9,0-5.8-2-5.8-6.8v-11.9h-3.4v-2.5Z"/>
        <path class="st10" d="M1058.8,652.4c5.6,0,9.2,4.2,9.2,10v1.1h-15.3c0,4.7,2.4,8.1,7.1,8.1s5-1.1,6.3-2.3l1.5,1.9c-1.7,1.8-4.5,3-8.1,3-6,0-10-3.7-10-11s3.5-10.8,9.3-10.8ZM1052.8,661h12c-.4-3.7-2.5-6.1-6-6.1s-5.5,2.4-6,6.1Z"/>
        <path class="st10" d="M1094.2,673.7h-5.8v-11.9c0-4.3-1.8-6.6-5-6.6s-6,1.8-6,6.8v9.2h2.7v2.5h-8.6v-2.5h2.7v-15.8h-2.7v-2.5h5.5l.2,3.5c1.2-2.2,3.5-4,6.8-4,4.9,0,7.5,3.5,7.5,9.3v9.5h2.8v2.5Z"/>
        <path class="st10" d="M1129.2,673.7h-5.8v-11.9c0-4.3-1.8-6.6-5-6.6s-6,1.8-6,6.8v9.2h2.7v2.5h-8.6v-2.5h2.7v-15.8h-2.7v-2.5h5.5l.2,3.5c1.2-2.2,3.5-4,6.8-4,4.9,0,7.5,3.5,7.5,9.3v9.5h2.8v2.5Z"/>
        <path class="st10" d="M1151,673.7h-5.3l-.3-2.9c-1.3,2-3.6,3.4-6.8,3.4-4.7,0-6.7-2.9-6.7-6.4s2.4-6.3,8.5-6.3h4.8v-1.8c0-3-1.7-4.8-5.2-4.8s-3.2.2-4.2.5v3.4h-2.7v-5.2c1.5-.7,4.1-1.2,7-1.2,5.4,0,8.2,2.5,8.2,7.4v11.4h2.6v2.5ZM1145.3,666.1v-2.2h-4.8c-3.7,0-5.4,1.4-5.4,3.9s1.3,3.8,4.1,3.8,6-2.3,6.1-5.5Z"/>
        <path class="st10" d="M1164.6,671.5c2.2,0,4.5-.8,5.7-2l1.6,2c-1.9,1.7-4.3,2.6-7.6,2.6-6,0-10.3-3.7-10.3-11s4.5-10.8,9.9-10.8,5.3.7,6.8,2v6h-2.8v-4.4c-1-.6-2.3-.9-3.8-.9-3.8,0-6.8,2.7-6.8,8.1s3.1,8.3,7.4,8.3Z"/>
        <path class="st10" d="M1197.3,673.7h-5.8v-11.9c0-4.3-1.8-6.6-5-6.6s-6,1.8-6,6.8v9.2h2.8v2.5h-8.6v-2.5h2.7v-24.9h-2.7v-2.5h5.8v12.4c1.2-2.1,3.5-3.7,6.6-3.7,4.9,0,7.5,3.5,7.5,9.3v9.5h2.8v2.5Z"/>
        <path class="st10" d="M1219.3,673.7h-9.4v-2.5h3.1v-24.1h-3.1v-2.5h5.7l10.3,17.8,10.2-17.8h5.8v2.5h-3.1v24.1h3.1v2.5h-9.4v-2.5h3.1v-20l-8.4,14.6h-2.7l-8.4-14.5v19.9h3.1v2.5Z"/>
        <path class="st10" d="M1264.5,673.7h-5.3l-.3-2.9c-1.3,2-3.6,3.4-6.8,3.4-4.7,0-6.7-2.9-6.7-6.4s2.4-6.3,8.5-6.3h4.8v-1.8c0-3-1.7-4.8-5.2-4.8s-3.2.2-4.2.5v3.4h-2.7v-5.2c1.5-.7,4.1-1.2,7-1.2,5.4,0,8.2,2.5,8.2,7.4v11.4h2.6v2.5ZM1258.8,666.1v-2.2h-4.8c-3.7,0-5.4,1.4-5.4,3.9s1.3,3.8,4.1,3.8,6-2.3,6.1-5.5Z"/>
        <path class="st10" d="M1267.1,652.9h7.8v2.5h-2l4.3,6.3,4.3-6.3h-2v-2.5h7.7v2.5h-2.4l-5.6,7.8,6,8h2.3v2.5h-7.9v-2.5h2.3l-4.8-6.4-4.8,6.4h2.3v2.5h-7.9v-2.5h2.4l6-8-5.5-7.8h-2.4v-2.5Z"/>
        <path class="st10" d="M1309.6,673.7h-9.4v-2.5h3.1v-24.1h-3.1v-2.5h10.3c7.8,0,11.2,3.9,11.2,9s-3.4,9.3-11.2,9.3h-4v8.3h3.1v2.5ZM1306.5,647.1v13.3h4c5.7,0,7.8-2.9,7.8-6.8s-2.3-6.5-7.8-6.5h-4Z"/>
        <path class="st10" d="M1330.1,671.2h2.9v2.5h-8.6v-2.5h2.7v-24.9h-2.8v-2.5h5.8v27.5Z"/>
        <path class="st10" d="M1355,673.7h-5.3l-.3-2.9c-1.3,2-3.6,3.4-6.8,3.4-4.7,0-6.7-2.9-6.7-6.4s2.4-6.3,8.5-6.3h4.8v-1.8c0-3-1.7-4.8-5.2-4.8s-3.2.2-4.2.5v3.4h-2.7v-5.2c1.5-.7,4.1-1.2,7-1.2,5.4,0,8.2,2.5,8.2,7.4v11.4h2.6v2.5ZM1349.4,666.1v-2.2h-4.8c-3.7,0-5.4,1.4-5.4,3.9s1.3,3.8,4.1,3.8,6-2.3,6.1-5.5Z"/>
        <path class="st10" d="M1380.6,673.7h-5.8v-11.9c0-4.3-1.8-6.6-5-6.6s-6,1.8-6,6.8v9.2h2.7v2.5h-8.6v-2.5h2.7v-15.8h-2.7v-2.5h5.5l.2,3.5c1.2-2.2,3.5-4,6.8-4,4.9,0,7.5,3.5,7.5,9.3v9.5h2.8v2.5Z"/>
        <path class="st10" d="M1394.1,671.5c2.2,0,4.5-.8,5.7-2l1.6,2c-1.9,1.7-4.3,2.6-7.6,2.6-6,0-10.3-3.7-10.3-11s4.5-10.8,9.9-10.8,5.3.7,6.8,2v6h-2.8v-4.4c-1-.6-2.3-.9-3.8-.9-3.8,0-6.8,2.7-6.8,8.1s3.1,8.3,7.4,8.3Z"/>
        <path class="st10" d="M1412.7,673.7h-8.6v-2.5h2.7v-24.9h-2.7v-2.5h5.8v17.8l7.9-6.1h-2.6v-2.5h9.4v2.5c.1,0-3,0-3,0l-8.4,6.5,9.5,9.3h2.7v2.5h-9v-2.5h2.5l-8.9-8.7v8.7h2.8v2.5Z"/>
        <path class="st10" d="M1430.2,670.2c1.3,0,2,.9,2,2s-.7,2-2,2-2-.9-2-2,.7-2,2-2Z"/>
      </g>
    </g>
  </g>
  <line class="st1" x1="1668" y1="1911.9" x2="1668" y2="2242.5"/>
</svg>