<?xml version="1.0" encoding="UTF-8"?>
<svg id="Ebene_1" xmlns="http://www.w3.org/2000/svg" xmlns:xlink="http://www.w3.org/1999/xlink" version="1.1" viewBox="0 0 385.86 191.38">
  <!-- Generator: Adobe Illustrator 29.3.1, SVG Export Plug-In . SVG Version: 2.1.0 Build 151)  -->
  <defs>
    <style>
      .st0 {
        fill: none;
      }

      .st1 {
        fill: #fbfbfc;
      }

      .st2 {
        clip-path: url(#clippath);
      }
    </style>
    <clipPath id="clippath">
      <rect class="st0" width="385.86" height="191.38"/>
    </clipPath>
  </defs>
  <g class="st2">
    <g id="Gruppe_5">
      <path id="Pfad_1" class="st1" d="M314.23,2.59c-2.68.54-6.57-.26-7.9,2.76l3.32,48.52,23.97-41.91c-.33-2.06.11-6.54-.92-8.18-.77-1.22-4.63-1.14-6.01-1.14l.05-2.18,22.08-.06-.23,2.2c-2.01.3-7.41.17-7.9,2.76l3.32,48.52,26.18-45.73c1.62-4.4-2.15-5.28-5.64-5.52l.27-2.08c.88-1.13,6.88-.14,8.44-.12,1.37.01,8.9-.56,9.26-.04,1.59,2.26-2.44,2.41-3.37,2.72-5.19,1.69-6.65,5.16-9.27,9.5-10.29,17.01-19.37,34.81-29.58,51.87-1.62,2.24-3.05,1.31-3.13-1.22l-3.17-47.57-28.04,48.79c-1.84,2.3-2.86,1.3-3.13-1.22-1.8-17.03-2.08-34.73-3.51-51.86-.13-1.56-.37-6.9-1.12-7.79-.78-.94-4.54-.86-5.88-.96V.62c.25-1.14,5.48-.21,6.51-.2,5.21.08,10.53-.81,15.62-.04l-.24,2.2Z"/>
      <rect id="Rechteck_8" class="st1" x="186.74" y="101.29" width="199.12" height="4.14"/>
      <path id="Pfad_2" class="st1" d="M279.3,156.02l2.71-2.54c4.15-3.73,9.92-5.06,15.28-3.52,12.61,4.13,1.38,24.59-.72,32.73-.55,2.13-1.8,6.65,1.65,6.78,3.25.13,5.6-2.89,7.01-5.44.75-1.37,2.57-7.06,2.85-7.33.47-.48,1.17-.3,1.76-.31-.6,6.65-5.89,16.71-13.94,14.74-10.17-2.49-1.95-17.27-.22-23.33,1.5-5.25,5.2-17.19-4.15-16.56-6.2.42-12.2,6.73-14.05,12.35-2.72,8.23-3.85,17.61-6.52,25.93-1.19,2.18-5.47,2.81-5.67-.25l14-57.28-.04-1.54c-1.09-1.8-6.48.28-6.61-1.93-.07-1.14.42-1.54,1.43-1.73,3.37-.5,6.76-.83,10.17-.98.64-.04,2.1-.24,2.35.52l-7.28,29.69Z"/>
      <path id="Pfad_3" class="st1" d="M198.19,57.05h23.38c.64-.18,1.27-.4,1.88-.66,1.15-.77,1.74-6.65,2.11-8.23h2.21s-2.54,15.58-2.54,15.58h-34.03l.49-2.85c5.86-6.81,12.34-13.19,18.12-20.06,6.54-7.77,13.01-17.35,8.9-28.01-4.76-12.32-21.12-9.76-24.33,2.23,3.44-.53,6.23,1.5,5.65,5.18-.47,2.4-2.79,3.97-5.19,3.51-1.89-.37-3.33-1.91-3.56-3.83-1.1-8.42,6.84-17.03,15.06-17.86,18.25-1.85,27.68,16.2,16.33,30.66-6.91,8.81-17.28,15.65-24.48,24.35"/>
      <path id="Pfad_4" class="st1" d="M19.44,127.72l-3.27,17.26c-1.8,2.82-6.2,2.76-5.58-1.44.67-4.57,3.81-10.72,4.87-15.5.14-.41.18-.85.13-1.27C6.87,125-.11,118.05,0,108.76c.73-7.36,3.32-14.41,7.52-20.5.84-1.02,1.52-1.91,2.99-1.62.03.35.01.7-.06,1.05-.23.93-3.46,4.99-4.24,6.57-1.77,3.56-4.22,10.92-3.96,14.81.51,7.5,8.32,12.01,15.08,12.91,3.67-10.44,6.92-26.78,16.3-33.7,7.54-5.55,17.33-2.32,18.23,7.43,1.6,17.46-15.05,33.62-32.42,31.99M20.7,122.6h5.89c7.03,0,16.84-7.15,20.33-13.07,8.9-15.1-5.43-25.96-16.84-13.34-6.21,6.87-8.24,17.5-9.38,26.42"/>
      <path id="Pfad_5" class="st1" d="M246.37,28.73c-2.53.64-4.83,1.98-6.65,3.85-1.56,1.59-2.57,4.76-4.96,4.42-.8-.78,3.96-7.47,4.78-8.42,2.14-2.73,5.28-4.51,8.73-4.95,10.64-.84,22.35.66,33.11,0,2.46-.2,3.07,2.56,1.56,4.14-1.81,1.9-11.29.56-14.14.98-1.76,7.64-2.16,15.52-1.17,23.3.54,3.38,1.8,6.33,2.47,9.63-.14,2.38-3.74,4.22-5.38,2.19-2.99-3.71-1.92-15.58-1.22-20.23.75-5.01,2.32-9.88,3.09-14.89h-10.03l-.48.8c-2.31,8.41-4.01,17.01-6.45,25.37-.6,2.05-2.19,8.24-3.73,9.31-1.43.99-4.12.47-4.44-1.28-.34-1.82,2.99-7.7,3.87-9.8,3.43-7.95,6.39-16.1,8.85-24.4-2.44.23-5.42-.32-7.79,0"/>
      <path id="Pfad_6" class="st1" d="M87.42,93.09l57.18-.08c2.96.34,2.63,3.61-.31,3.52h-56.64l-1.43-.48c-.73-1.37-.53-2.83,1.2-2.95"/>
      <path id="Pfad_7" class="st1" d="M86.3,113.62c-.56-1.02-.81-2.58.54-2.96l57.76-.15c3.11.36,2.59,3.56-.31,3.52-18.24-.91-37.58,1.17-55.69,0-.78,0-1.56-.14-2.29-.41"/>
    </g>
  </g>
</svg>